SplineFontDB: 3.0
FontName: Bouquet
FullName: Bouquet 
FamilyName: Bouquet
Weight: Book
Copyright: Copyright (c) 2016, Marco van Luijn
Version: 1.0
ItalicAngle: 0
UnderlinePosition: -307
UnderlineWidth: 102
Ascent: 1638
Descent: 410
InvalidEm: 0
sfntRevision: 0x00010000
woffMajor: 1
woffMinor: 0
LayerCount: 2
Layer: 0 1 "Back" 1
Layer: 1 1 "Fore" 0
XUID: [1021 296 -274499582 3424775]
StyleMap: 0x0040
FSType: 4
OS2Version: 4
OS2_WeightWidthSlopeOnly: 0
OS2_UseTypoMetrics: 1
CreationTime: 1470586070
ModificationTime: 1522495444
PfmFamily: 17
TTFWeight: 400
TTFWidth: 5
LineGap: 0
VLineGap: 0
Panose: 2 0 5 3 0 0 0 0 0 0
OS2TypoAscent: 1638
OS2TypoAOffset: 0
OS2TypoDescent: -410
OS2TypoDOffset: 0
OS2TypoLinegap: 0
OS2WinAscent: 1635
OS2WinAOffset: 0
OS2WinDescent: 294
OS2WinDOffset: 0
HheadAscent: 1635
HheadAOffset: 0
HheadDescent: -294
HheadDOffset: 0
OS2SubXSize: 1331
OS2SubYSize: 1434
OS2SubXOff: 0
OS2SubYOff: 287
OS2SupXSize: 1331
OS2SupYSize: 1434
OS2SupXOff: 0
OS2SupYOff: 983
OS2StrikeYSize: 100
OS2StrikeYPos: 528
OS2CapHeight: 1478
OS2XHeight: 1477
OS2Vendor: 'PfEd'
OS2CodePages: 00000001.00000000
OS2UnicodeRanges: 80000003.00000000.00000000.00000000
Lookup: 258 0 0 "'kern' Horizontal Kerning in Latin lookup 0" { "'kern' Horizontal Kerning in Latin lookup 0 subtable"  } ['kern' ('DFLT' <'dflt' > 'latn' <'dflt' > ) ]
MarkAttachClasses: 1
DEI: 91125
KernClass2: 48 41 "'kern' Horizontal Kerning in Latin lookup 0 subtable"
 13 A backslash a
 3 B b
 3 C c
 3 D d
 3 E e
 3 F f
 3 G g
 3 J j
 3 K k
 3 L l
 6 at O o
 3 P p
 3 Q q
 3 R r
 10 dollar S s
 3 T t
 3 U u
 9 slash V v
 3 W w
 3 X x
 3 Y y
 3 Z z
 4 zero
 3 two
 11 three eight
 4 four
 4 five
 3 six
 5 seven
 4 nine
 6 exclam
 8 quotedbl
 10 numbersign
 7 percent
 9 ampersand
 9 parenleft
 10 parenright
 8 asterisk
 18 plus hyphen bullet
 37 comma period colon semicolon ellipsis
 4 less
 7 greater
 5 equal
 8 question
 11 asciicircum
 10 underscore
 5 space
 9 slash A a
 3 B b
 11 C G Q c g q
 3 J j
 6 at O o

StartChar: .notdef
Encoding: 65536 -1 0
Width: 748
Flags: W
LayerCount: 2
Fore
SplineSet
68 0 m 1,0,-1
 68 1365 l 1,1,-1
 612 1365 l 1,2,-1
 612 0 l 1,3,-1
 68 0 l 1,0,-1
136 68 m 1,4,-1
 544 68 l 1,5,-1
 544 1297 l 1,6,-1
 136 1297 l 1,7,-1
 136 68 l 1,4,-1
EndSplineSet
EndChar

StartChar: exclam
Encoding: 33 33 4
Width: 581
GlyphClass: 2
Flags: W
LayerCount: 2
Fore
SplineSet
149 141 m 0,0,1
 149 142 149 142 149.5 144 c 128,-1,2
 150 146 150 146 150 147 c 0,3,4
 151 199 151 199 194 240 c 128,-1,5
 237 281 237 281 291 283 c 2,6,-1
 297 283 l 2,7,8
 349 283 349 283 390.5 242 c 128,-1,9
 432 201 432 201 432 141 c 2,10,-1
 432 137 l 2,11,12
 432 84 432 84 388 41 c 128,-1,13
 344 -2 344 -2 290 -2 c 2,14,-1
 287 -2 l 2,15,16
 233 -1 233 -1 191 43 c 128,-1,17
 149 87 149 87 149 141 c 0,0,1
156 1303 m 0,18,19
 156 1398 156 1398 229 1454 c 0,20,21
 260 1476 260 1476 290 1476 c 0,22,23
 317 1476 317 1476 352 1454 c 0,24,25
 423 1403 423 1403 426 1303 c 0,26,27
 427 1285 427 1285 427 1249 c 0,28,29
 427 1232 427 1232 426.5 1196 c 128,-1,30
 426 1160 426 1160 426 1143 c 2,31,-1
 426 967 l 2,32,33
 426 916 426 916 424 794 c 128,-1,34
 422 672 422 672 422 621 c 0,35,36
 422 524 422 524 383 476 c 128,-1,37
 344 428 344 428 295 428 c 0,38,39
 244 428 244 428 203 468.5 c 128,-1,40
 162 509 162 509 162 600 c 0,41,42
 162 640 162 640 156 1303 c 0,18,19
EndSplineSet
EndChar

StartChar: quotedbl
Encoding: 34 34 5
Width: 1013
GlyphClass: 2
Flags: W
LayerCount: 2
Fore
SplineSet
151 1165 m 0,0,1
 151 1166 151 1166 151.5 1169 c 128,-1,2
 152 1172 152 1172 152 1174 c 0,3,4
 164 1347 164 1347 281 1444 c 0,5,6
 325 1479 325 1479 350 1487 c 0,7,8
 372 1496 372 1496 392 1496 c 0,9,10
 443 1496 443 1496 477 1444 c 0,11,12
 496 1408 496 1408 479 1380 c 0,13,14
 460 1347 460 1347 453 1337 c 0,15,16
 424 1292 424 1292 424 1248 c 0,17,18
 424 1218 424 1218 436 1186 c 0,19,20
 450 1149 450 1149 450 1119 c 0,21,22
 450 1059 450 1059 389 1010 c 0,23,24
 353 979 353 979 307 979 c 2,25,-1
 305 979 l 2,26,27
 267 979 267 979 225 1006 c 0,28,29
 151 1062 151 1062 151 1165 c 0,0,1
567 1163 m 2,30,-1
 567 1180 l 1,31,32
 573 1338 573 1338 690 1440 c 1,33,-1
 692 1442 l 2,34,35
 729 1476 729 1476 756 1483 c 0,36,37
 780 1491 780 1491 804 1491 c 0,38,39
 852 1491 852 1491 877 1462 c 0,40,41
 890 1446 890 1446 890 1419 c 0,42,43
 890 1380 890 1380 856 1329 c 0,44,45
 830 1291 830 1291 830 1260 c 0,46,47
 830 1244 830 1244 846 1198 c 0,48,49
 850 1194 850 1194 850 1190 c 0,50,51
 865 1151 865 1151 865 1119 c 0,52,53
 865 1053 865 1053 797 1004 c 0,54,55
 761 979 761 979 721 979 c 128,-1,56
 681 979 681 979 645 1001 c 0,57,58
 567 1057 567 1057 567 1163 c 2,30,-1
EndSplineSet
EndChar

StartChar: numbersign
Encoding: 35 35 6
Width: 1499
GlyphClass: 2
Flags: W
LayerCount: 2
Fore
SplineSet
142 485 m 0,0,1
 142 513 142 513 160 537 c 0,2,3
 188 572 188 572 252 580 c 0,4,5
 278 584 278 584 315 602 c 0,6,7
 361 629 361 629 385 682 c 0,8,9
 405 727 405 727 405 765 c 0,10,11
 405 772 405 772 403 786 c 0,12,13
 391 845 391 845 324 879 c 0,14,15
 315 882 315 882 309 885 c 0,16,17
 274 901 274 901 254 918 c 0,18,19
 223 950 223 950 223 978 c 0,20,21
 223 1005 223 1005 252 1036 c 0,22,23
 286 1070 286 1070 338 1079 c 0,24,25
 408 1091 408 1091 440.5 1124.5 c 128,-1,26
 473 1158 473 1158 485 1229 c 0,27,28
 486 1233 486 1233 487 1240 c 128,-1,29
 488 1247 488 1247 489 1251 c 0,30,31
 490 1257 490 1257 506 1335 c 0,32,33
 523 1409 523 1409 575 1444 c 0,34,35
 593 1456 593 1456 624 1456 c 0,36,37
 651 1456 651 1456 666 1444 c 0,38,39
 709 1413 709 1413 709 1341 c 2,40,-1
 709 1330 l 2,41,42
 709 1312 709 1312 700 1260 c 0,43,44
 692 1224 692 1224 692 1202 c 2,45,-1
 692 1192 l 2,46,47
 692 1155 692 1155 710.5 1127.5 c 128,-1,48
 729 1100 729 1100 762 1090 c 0,49,50
 792 1080 792 1080 823 1080 c 0,51,52
 866 1080 866 1080 901 1100 c 0,53,54
 957 1130 957 1130 973 1196 c 0,55,56
 982 1242 982 1242 991 1292 c 0,57,58
 996 1323 996 1323 999 1333 c 0,59,60
 1006 1371 1006 1371 1017 1395.5 c 128,-1,61
 1028 1420 1028 1420 1053 1438 c 0,62,63
 1078 1457 1078 1457 1109 1457 c 0,64,65
 1142 1457 1142 1457 1165 1438 c 0,66,67
 1203 1407 1203 1407 1203 1355 c 0,68,69
 1203 1343 1203 1343 1202 1337 c 0,70,71
 1201 1324 1201 1324 1198 1297.5 c 128,-1,72
 1195 1271 1195 1271 1194 1257 c 0,73,74
 1190 1241 1190 1241 1190 1229 c 0,75,76
 1186 1199 1186 1199 1186 1188 c 0,77,78
 1186 1148 1186 1148 1205.5 1123 c 128,-1,79
 1225 1098 1225 1098 1272 1077 c 0,80,81
 1317 1057 1317 1057 1337 1032 c 0,82,83
 1360 1006 1360 1006 1360 980 c 128,-1,84
 1360 954 1360 954 1337 926 c 0,85,86
 1308 893 1308 893 1239 877 c 0,87,88
 1175 865 1175 865 1143.5 832.5 c 128,-1,89
 1112 800 1112 800 1100 735 c 0,90,91
 1096 709 1096 709 1096 699 c 0,92,93
 1096 627 1096 627 1169 588 c 0,94,95
 1172 586 1172 586 1180.5 583 c 128,-1,96
 1189 580 1189 580 1192 578 c 0,97,98
 1220 568 1220 568 1239 551 c 0,99,100
 1268 522 1268 522 1268 485 c 0,101,102
 1268 445 1268 445 1239 422 c 1,103,104
 1206 389 1206 389 1151 383 c 0,105,106
 1095 380 1095 380 1055 334 c 0,107,108
 1024 303 1024 303 1018 264 c 0,109,110
 1014 241 1014 241 989 129 c 1,111,-1
 989 127 l 1,112,113
 976 64 976 64 930 33 c 0,114,115
 914 21 914 21 885 21 c 128,-1,116
 856 21 856 21 836 35 c 0,117,118
 790 66 790 66 790 136 c 0,119,120
 790 140 790 140 790.5 146 c 128,-1,121
 791 152 791 152 791 156 c 0,122,123
 795 176 795 176 795 186 c 0,124,125
 803 233 803 233 805 256 c 0,126,127
 806 262 806 262 806 274 c 0,128,129
 806 308 806 308 788.5 335.5 c 128,-1,130
 771 363 771 363 741 373 c 0,131,132
 712 384 712 384 677 384 c 0,133,134
 632 384 632 384 594 362 c 0,135,136
 537 331 537 331 522 260 c 0,137,138
 520 251 520 251 517 232.5 c 128,-1,139
 514 214 514 214 512 205 c 0,140,141
 509 183 509 183 502 154 c 1,142,143
 499 122 499 122 483 90 c 0,144,145
 470 60 470 60 440 37 c 0,146,147
 415 18 415 18 389 18 c 0,148,149
 362 18 362 18 336 41 c 0,150,151
 299 71 299 71 299 127 c 0,152,153
 299 131 299 131 298.5 137 c 128,-1,154
 298 143 298 143 298 146 c 0,155,156
 298 182 298 182 307 227 c 0,157,158
 312 257 312 257 312 275 c 0,159,160
 312 314 312 314 292 339.5 c 128,-1,161
 272 365 272 365 225 387 c 1,162,-1
 223 389 l 1,163,164
 179 410 179 410 162 432 c 0,165,166
 142 456 142 456 142 485 c 0,0,1
601 694 m 0,167,168
 601 663 601 663 618.5 636.5 c 128,-1,169
 636 610 636 610 664 600 c 0,170,171
 701 586 701 586 735 586 c 0,172,173
 774 586 774 586 805 602 c 0,174,175
 863 627 863 627 885 698 c 0,176,177
 889 711 889 711 893 745 c 1,178,-1
 893 758 l 2,179,180
 894 763 894 763 894 773 c 0,181,182
 894 809 894 809 870.5 837 c 128,-1,183
 847 865 847 865 811 872 c 0,184,185
 806 873 806 873 795.5 874.5 c 128,-1,186
 785 876 785 876 780 877 c 2,187,-1
 766 877 l 1,188,-1
 754 877 l 2,189,190
 713 877 713 877 683 858.5 c 128,-1,191
 653 840 653 840 625 797 c 0,192,193
 610 774 610 774 606 729 c 0,194,195
 605 726 605 726 604 720 c 128,-1,196
 603 714 603 714 602 711 c 0,197,198
 601 705 601 705 601 694 c 0,167,168
EndSplineSet
EndChar

StartChar: dollar
Encoding: 36 36 7
Width: 1370
GlyphClass: 2
Flags: W
LayerCount: 2
Fore
SplineSet
157 1037 m 0,0,1
 157 1154 157 1154 227 1249 c 0,2,3
 303 1351 303 1351 406 1391 c 0,4,5
 501 1427 501 1427 551 1520 c 0,6,7
 569 1555 569 1555 604 1583 c 0,8,9
 638 1610 638 1610 671 1610 c 0,10,11
 701 1610 701 1610 733 1585 c 0,12,13
 764 1563 764 1563 786 1524 c 0,14,15
 839 1427 839 1427 940 1393 c 0,16,17
 1023 1366 1023 1366 1085 1307 c 0,18,19
 1118 1274 1118 1274 1133 1249 c 0,20,21
 1155 1214 1155 1214 1155 1178 c 0,22,23
 1155 1158 1155 1158 1147 1137 c 0,24,25
 1126 1079 1126 1079 1059 1059 c 0,26,27
 1043 1055 1043 1055 1033 1055 c 0,28,29
 1014 1055 1014 1055 989 1065 c 0,30,31
 942 1085 942 1085 897 1112 c 0,32,33
 802 1171 802 1171 681 1171 c 0,34,35
 639 1171 639 1171 586 1163 c 0,36,37
 498 1150 498 1150 463 1108 c 0,38,39
 441 1080 441 1080 441 1046 c 128,-1,40
 441 1012 441 1012 463 981 c 0,41,42
 467 975 467 975 471.5 970.5 c 128,-1,43
 476 966 476 966 482 962 c 128,-1,44
 488 958 488 958 491.5 955.5 c 128,-1,45
 495 953 495 953 504 949 c 128,-1,46
 513 945 513 945 515 944 c 128,-1,47
 517 943 517 943 528 939 c 128,-1,48
 539 935 539 935 541 934 c 128,-1,49
 543 933 543 933 547 932 c 128,-1,50
 551 931 551 931 553 930 c 0,51,52
 613 906 613 906 727 881 c 0,53,54
 830 857 830 857 924 823 c 0,55,56
 1029 782 1029 782 1106 711 c 0,57,58
 1216 607 1216 607 1216 454 c 0,59,60
 1216 321 1216 321 1135 223 c 0,61,62
 1052 118 1052 118 950 88 c 0,63,64
 833 51 833 51 782 -53 c 0,65,66
 767 -92 767 -92 727 -115 c 1,67,68
 701 -135 701 -135 670 -135 c 128,-1,69
 639 -135 639 -135 610 -115 c 0,70,71
 562 -80 562 -80 551 -39 c 0,72,73
 515 71 515 71 397 117 c 0,74,75
 324 147 324 147 252 207 c 0,76,77
 196 257 196 257 178 301 c 0,78,79
 169 323 169 323 169 345 c 0,80,81
 169 387 169 387 203 422 c 0,82,83
 228 450 228 450 258 463 c 0,84,85
 273 469 273 469 291 469 c 0,86,87
 310 469 310 469 328 463 c 0,88,89
 373 447 373 447 438 403 c 0,90,91
 550 329 550 329 686 317 c 1,92,-1
 712 317 l 2,93,94
 764 317 764 317 815 330 c 1,95,96
 870 338 870 338 918 399 c 0,97,98
 932 419 932 419 932 451 c 0,99,100
 935 476 935 476 911 506 c 0,101,102
 871 556 871 556 809 578 c 0,103,104
 741 603 741 603 639 625 c 1,105,-1
 633 625 l 1,106,107
 478 664 478 664 410 696 c 0,108,109
 312 744 312 744 258 801 c 0,110,111
 164 892 164 892 158 1018 c 0,112,113
 158 1021 158 1021 157.5 1027.5 c 128,-1,114
 157 1034 157 1034 157 1037 c 0,0,1
EndSplineSet
EndChar

StartChar: percent
Encoding: 37 37 8
Width: 1921
GlyphClass: 2
Flags: W
LayerCount: 2
Fore
SplineSet
145 1092 m 128,-1,1
 145 1242 145 1242 250.5 1347 c 128,-1,2
 356 1452 356 1452 506 1452 c 0,3,4
 655 1452 655 1452 759.5 1346.5 c 128,-1,5
 864 1241 864 1241 864 1092 c 0,6,7
 864 942 864 942 759.5 836.5 c 128,-1,8
 655 731 655 731 506 731 c 0,9,10
 356 731 356 731 250.5 836.5 c 128,-1,0
 145 942 145 942 145 1092 c 128,-1,1
350 1092 m 128,-1,12
 350 1028 350 1028 396 982 c 128,-1,13
 442 936 442 936 506 936 c 0,14,15
 569 936 569 936 614 982 c 128,-1,16
 659 1028 659 1028 659 1092 c 128,-1,17
 659 1156 659 1156 614 1200.5 c 128,-1,18
 569 1245 569 1245 506 1245 c 0,19,20
 441 1245 441 1245 395.5 1200.5 c 128,-1,11
 350 1156 350 1156 350 1092 c 128,-1,12
398 109 m 0,21,22
 398 120 398 120 399 125 c 0,23,24
 412 170 412 170 463 238 c 0,25,26
 503 292 503 292 575 392 c 128,-1,27
 647 492 647 492 676 532 c 0,28,29
 689 550 689 550 714.5 585 c 128,-1,30
 740 620 740 620 754 637 c 0,31,32
 769 657 769 657 795 693.5 c 128,-1,33
 821 730 821 730 843 760.5 c 128,-1,34
 865 791 865 791 885 817 c 0,35,36
 1205 1257 1205 1257 1270 1346 c 0,37,38
 1324 1424 1324 1424 1374 1456 c 0,39,40
 1398 1473 1398 1473 1432 1473 c 0,41,42
 1468 1473 1468 1473 1493 1452 c 1,43,-1
 1495 1452 l 1,44,45
 1524 1421 1524 1421 1524 1384 c 0,46,47
 1524 1349 1524 1349 1499 1309 c 0,48,49
 1484 1282 1484 1282 1454 1239 c 0,50,51
 1382 1141 1382 1141 1250 959.5 c 128,-1,52
 1118 778 1118 778 1010.5 630.5 c 128,-1,53
 903 483 903 483 809 354 c 2,54,-1
 643 125 l 2,55,56
 561 10 561 10 487 10 c 0,57,58
 477 10 477 10 471 12 c 0,59,60
 435 18 435 18 412 59 c 0,61,62
 398 85 398 85 398 109 c 0,21,22
1065 383 m 128,-1,64
 1065 532 1065 532 1170.5 637.5 c 128,-1,65
 1276 743 1276 743 1425 743 c 128,-1,66
 1574 743 1574 743 1680 637.5 c 128,-1,67
 1786 532 1786 532 1786 383 c 128,-1,68
 1786 234 1786 234 1680 128.5 c 128,-1,69
 1574 23 1574 23 1425 23 c 128,-1,70
 1276 23 1276 23 1170.5 128.5 c 128,-1,63
 1065 234 1065 234 1065 383 c 128,-1,64
1270 383 m 128,-1,72
 1270 319 1270 319 1315 274 c 128,-1,73
 1360 229 1360 229 1425 229 c 128,-1,74
 1490 229 1490 229 1534.5 273.5 c 128,-1,75
 1579 318 1579 318 1579 383 c 128,-1,76
 1579 448 1579 448 1534.5 492.5 c 128,-1,77
 1490 537 1490 537 1425 537 c 128,-1,78
 1360 537 1360 537 1315 492 c 128,-1,71
 1270 447 1270 447 1270 383 c 128,-1,72
EndSplineSet
EndChar

StartChar: ampersand
Encoding: 38 38 9
Width: 1499
GlyphClass: 2
Flags: W
LayerCount: 2
Fore
SplineSet
143 324 m 0,0,1
 143 392 143 392 170 467 c 0,2,3
 204 566 204 566 313 680 c 0,4,5
 314 681 314 681 318.5 684.5 c 128,-1,6
 323 688 323 688 324 690 c 0,7,8
 341 704 341 704 369 737 c 0,9,10
 395 774 395 774 395 810 c 0,11,12
 395 834 395 834 381 860 c 1,13,-1
 381 862 l 2,14,15
 378 869 378 869 370.5 884.5 c 128,-1,16
 363 900 363 900 360 907 c 0,17,18
 322 997 322 997 322 1086 c 0,19,20
 322 1177 322 1177 362 1257 c 0,21,22
 408 1347 408 1347 487 1405 c 0,23,24
 562 1465 562 1465 649 1483 c 0,25,26
 701 1496 701 1496 753 1496 c 0,27,28
 796 1496 796 1496 836 1487 c 0,29,30
 925 1466 925 1466 1001 1397 c 0,31,32
 1108 1299 1108 1299 1108 1153 c 2,33,-1
 1108 1145 l 1,34,-1
 1108 1137 l 2,35,36
 1108 994 1108 994 997 860 c 0,37,38
 994 856 994 856 987 848 c 128,-1,39
 980 840 980 840 977 836 c 128,-1,40
 974 832 974 832 967 824.5 c 128,-1,41
 960 817 960 817 955 810.5 c 128,-1,42
 950 804 950 804 946 799 c 0,43,44
 920 762 920 762 920 730 c 0,45,46
 920 696 920 696 948 664 c 2,47,-1
 963 649 l 2,48,49
 1006 606 1006 606 1042 606 c 0,50,51
 1079 606 1079 606 1128 649 c 0,52,53
 1131 651 1131 651 1137.5 656.5 c 128,-1,54
 1144 662 1144 662 1147 664 c 0,55,56
 1181 694 1181 694 1196 705 c 0,57,58
 1230 729 1230 729 1265 729 c 0,59,60
 1294 729 1294 729 1321 711 c 0,61,62
 1386 668 1386 668 1386 605 c 0,63,64
 1386 600 1386 600 1384 588 c 0,65,66
 1381 550 1381 550 1360 516 c 0,67,68
 1327 467 1327 467 1309 444 c 0,69,70
 1273 398 1273 398 1273 354 c 0,71,72
 1273 312 1273 312 1303 272 c 0,73,74
 1339 216 1339 216 1348 186 c 0,75,76
 1354 168 1354 168 1354 143 c 0,77,78
 1354 98 1354 98 1323 63 c 0,79,80
 1281 15 1281 15 1235 15 c 0,81,82
 1199 15 1199 15 1159 43 c 0,83,84
 1135 63 1135 63 1124 74 c 0,85,86
 1104 90 1104 90 1098 96 c 0,87,88
 1052 131 1052 131 1016 131 c 0,89,90
 984 131 984 131 946 106 c 0,91,92
 852 42 852 42 733 6 c 0,93,94
 632 -23 632 -23 551 -23 c 0,95,96
 488 -23 488 -23 406 -2 c 0,97,98
 357 13 357 13 324 33 c 0,99,100
 143 139 143 139 143 324 c 0,0,1
412 353 m 0,101,102
 412 332 412 332 422 305 c 0,103,104
 430 284 430 284 453 267 c 128,-1,105
 476 250 476 250 508 246 c 0,106,107
 532 242 532 242 563 242 c 0,108,109
 590 242 590 242 616 246 c 0,110,111
 650 251 650 251 684 264 c 0,112,113
 726 280 726 280 760 303 c 0,114,115
 805 329 805 329 811 367 c 1,116,-1
 811 373 l 2,117,118
 811 407 811 407 778 440 c 0,119,120
 740 484 740 484 688 522 c 0,121,122
 645 555 645 555 597 555 c 0,123,124
 572 555 572 555 555 545 c 0,125,126
 481 493 481 493 446 449 c 0,127,128
 412 402 412 402 412 353 c 0,101,102
593 1072 m 0,129,130
 593 1020 593 1020 625 985 c 0,131,132
 653 954 653 954 700 954 c 0,133,134
 718 954 718 954 731 958 c 0,135,136
 825 988 825 988 840 1083 c 0,137,138
 843 1101 843 1101 843 1118 c 0,139,140
 843 1159 843 1159 823 1188 c 0,141,142
 805 1218 805 1218 766 1225 c 0,143,144
 760 1227 760 1227 748 1227 c 0,145,146
 710 1227 710 1227 666 1198 c 0,147,148
 636 1176 636 1176 616.5 1146.5 c 128,-1,149
 597 1117 597 1117 594 1090 c 0,150,151
 593 1084 593 1084 593 1072 c 0,129,130
EndSplineSet
EndChar

StartChar: quotesingle
Encoding: 39 39 10
Width: 667
GlyphClass: 2
Flags: W
LayerCount: 2
Fore
SplineSet
146 1312 m 0,0,1
 146 1390 146 1390 217 1452 c 0,2,3
 265 1495 265 1495 332 1495 c 0,4,5
 385 1495 385 1495 428 1464 c 0,6,7
 521 1393 521 1393 521 1282 c 0,8,9
 521 1269 521 1269 520 1262 c 0,10,11
 505 1072 505 1072 391 963 c 0,12,13
 350 925 350 925 309 911 c 0,14,15
 290 903 290 903 270 903 c 0,16,17
 232 903 232 903 201 934 c 0,18,19
 178 962 178 962 178 986 c 0,20,21
 178 1001 178 1001 186 1022 c 1,22,23
 196 1037 196 1037 197 1040 c 0,24,25
 198 1041 198 1041 205 1055 c 0,26,27
 222 1086 222 1086 222 1118 c 0,28,29
 222 1156 222 1156 197 1190 c 1,30,-1
 197 1192 l 1,31,32
 179 1213 179 1213 168 1233 c 0,33,34
 146 1274 146 1274 146 1312 c 0,0,1
EndSplineSet
EndChar

StartChar: parenleft
Encoding: 40 40 11
Width: 761
GlyphClass: 2
Flags: W
LayerCount: 2
Fore
SplineSet
147 688 m 2,0,-1
 147 713 l 1,1,2
 153 1006 153 1006 205 1188 c 0,3,4
 244 1319 244 1319 303 1407 c 0,5,6
 358 1489 358 1489 418 1524 c 0,7,8
 456 1549 456 1549 493 1549 c 0,9,10
 545 1549 545 1549 588 1497 c 0,11,12
 617 1462 617 1462 617 1426 c 0,13,14
 617 1404 617 1404 606 1380 c 0,15,16
 573 1320 573 1320 557 1298 c 0,17,18
 455 1161 455 1161 430 936 c 0,19,20
 416 827 416 827 416 702 c 0,21,22
 419 566 419 566 449 422 c 0,23,24
 480 278 480 278 553 180 c 0,25,26
 591 128 591 128 608 84 c 0,27,28
 617 62 617 62 617 42 c 0,29,30
 617 -1 617 -1 573 -43 c 0,31,32
 533 -80 533 -80 494 -80 c 0,33,34
 481 -80 481 -80 453 -72 c 0,35,36
 414 -56 414 -56 373 -18 c 0,37,38
 315 34 315 34 264 131 c 0,39,40
 188 287 188 287 164 489 c 2,41,-1
 158 543 l 2,42,43
 147 626 147 626 147 688 c 2,0,-1
EndSplineSet
EndChar

StartChar: parenright
Encoding: 41 41 12
Width: 761
GlyphClass: 2
Flags: W
LayerCount: 2
Fore
SplineSet
146 39 m 128,-1,1
 146 57 146 57 154 78 c 0,2,3
 167 118 167 118 201 164 c 0,4,5
 306 304 306 304 334 555 c 0,6,7
 345 652 345 652 345 738 c 0,8,9
 345 822 345 822 336 903 c 0,10,11
 318 1061 318 1061 283 1152.5 c 128,-1,12
 248 1244 248 1244 199 1311 c 0,13,14
 175 1342 175 1342 162 1374 c 0,15,16
 149 1403 149 1403 149 1429 c 0,17,18
 149 1474 149 1474 193 1516 c 0,19,20
 229 1549 229 1549 274 1549 c 0,21,22
 299 1549 299 1549 328 1536 c 0,23,24
 377 1512 377 1512 420 1460 c 0,25,26
 473 1399 473 1399 516 1300 c 0,27,28
 580 1155 580 1155 600 952 c 0,29,30
 603 930 603 930 605 905 c 128,-1,31
 607 880 607 880 609 850 c 128,-1,32
 611 820 611 820 612 803 c 0,33,34
 612 791 612 791 613 771.5 c 128,-1,35
 614 752 614 752 614 745 c 2,36,-1
 614 739 l 1,37,-1
 614 721 l 1,38,-1
 614 690 l 2,39,40
 614 485 614 485 557 291 c 0,41,42
 513 139 513 139 442 37 c 1,43,44
 387 -34 387 -34 340 -59 c 0,45,46
 300 -80 300 -80 270 -80 c 0,47,48
 251 -80 251 -80 233 -74 c 0,49,50
 183 -57 183 -57 154 2 c 0,51,0
 146 21 146 21 146 39 c 128,-1,1
EndSplineSet
EndChar

StartChar: asterisk
Encoding: 42 42 13
Width: 1009
GlyphClass: 2
Flags: W
LayerCount: 2
Fore
SplineSet
146 1258 m 0,0,1
 146 1270 146 1270 150 1282 c 0,2,3
 160 1312 160 1312 190 1329 c 128,-1,4
 220 1346 220 1346 262 1346 c 0,5,6
 265 1343 265 1343 268 1343 c 0,7,8
 281 1343 281 1343 287 1341 c 0,9,10
 291 1341 291 1341 299 1340 c 128,-1,11
 307 1339 307 1339 311 1339 c 0,12,13
 382 1339 382 1339 406 1415 c 2,14,-1
 408 1421 l 1,15,16
 419 1471 419 1471 442 1497 c 0,17,18
 475 1530 475 1530 503 1530 c 2,19,-1
 508 1530 l 2,20,21
 539 1530 539 1530 569 1493 c 0,22,23
 598 1460 598 1460 604 1417 c 0,24,25
 611 1383 611 1383 633 1366 c 0,26,27
 667 1336 667 1336 692 1336 c 0,28,29
 702 1336 702 1336 713 1339 c 0,30,31
 720 1341 720 1341 760 1346 c 1,32,-1
 764 1346 l 2,33,34
 820 1346 820 1346 854 1292 c 0,35,36
 866 1271 866 1271 866 1257 c 0,37,38
 866 1242 866 1242 854 1225 c 0,39,40
 836 1191 836 1191 797 1165 c 0,41,42
 796 1163 796 1163 791.5 1159.5 c 128,-1,43
 787 1156 787 1156 786 1155 c 0,44,45
 766 1145 766 1145 752 1131 c 0,46,47
 725 1102 725 1102 725 1073 c 0,48,49
 725 1053 725 1053 737 1026 c 0,50,51
 738 1023 738 1023 741 1017 c 128,-1,52
 744 1011 744 1011 745 1008 c 0,53,54
 754 993 754 993 764 973 c 0,55,56
 770 955 770 955 770 937 c 0,57,58
 770 905 770 905 745 877 c 0,59,60
 716 845 716 845 685 845 c 0,61,62
 664 845 664 845 639 860 c 0,63,64
 616 874 616 874 592 895 c 0,65,66
 536 944 536 944 505 944 c 0,67,68
 476 944 476 944 420 897 c 0,69,70
 419 896 419 896 417 895 c 128,-1,71
 415 894 415 894 414 893 c 0,72,73
 401 880 401 880 373 860 c 0,74,75
 351 846 351 846 326 846 c 0,76,77
 303 846 303 846 279 864 c 0,78,79
 239 895 239 895 239 935 c 0,80,81
 239 954 239 954 246 969 c 0,82,83
 254 992 254 992 262 1006 c 0,84,85
 267 1014 267 1014 270 1022 c 0,86,87
 283 1048 283 1048 283 1071 c 0,88,89
 283 1107 283 1107 250 1137 c 0,90,91
 246 1141 246 1141 231 1151 c 0,92,93
 229 1152 229 1152 226 1155 c 128,-1,94
 223 1158 223 1158 221 1159 c 0,95,96
 220 1160 220 1160 217 1162 c 128,-1,97
 214 1164 214 1164 213 1165 c 0,98,99
 208 1167 208 1167 201.5 1173 c 128,-1,100
 195 1179 195 1179 193 1180 c 0,101,102
 146 1221 146 1221 146 1258 c 0,0,1
EndSplineSet
EndChar

StartChar: plus
Encoding: 43 43 14
Width: 1091
GlyphClass: 2
Flags: W
LayerCount: 2
Fore
SplineSet
136 737 m 0,0,1
 136 748 136 748 137 754 c 0,2,3
 143 803 143 803 182 835.5 c 128,-1,4
 221 868 221 868 274 868 c 2,5,-1
 338 868 l 2,6,7
 369 868 369 868 391.5 891 c 128,-1,8
 414 914 414 914 414 946 c 2,9,-1
 414 1014 l 2,10,11
 414 1072 414 1072 459 1114 c 0,12,13
 497 1146 497 1146 545 1146 c 0,14,15
 558 1146 558 1146 565 1145 c 0,16,17
 614 1139 614 1139 647 1100 c 128,-1,18
 680 1061 680 1061 680 1010 c 2,19,-1
 680 946 l 2,20,21
 680 914 680 914 702.5 891 c 128,-1,22
 725 868 725 868 756 868 c 2,23,-1
 819 868 l 2,24,25
 872 868 872 868 911 835.5 c 128,-1,26
 950 803 950 803 956 754 c 0,27,28
 957 748 957 748 957 737 c 0,29,30
 957 685 957 685 924 649 c 0,31,32
 886 602 886 602 825 602 c 2,33,-1
 756 602 l 2,34,35
 725 602 725 602 702.5 580 c 128,-1,36
 680 558 680 558 680 526 c 2,37,-1
 680 459 l 2,38,39
 680 397 680 397 635 358 c 0,40,41
 600 326 600 326 547 326 c 2,42,-1
 528 326 l 1,43,44
 478 334 478 334 446 372.5 c 128,-1,45
 414 411 414 411 414 463 c 2,46,-1
 414 526 l 2,47,48
 414 558 414 558 391.5 580 c 128,-1,49
 369 602 369 602 338 602 c 2,50,-1
 268 602 l 2,51,52
 208 602 208 602 170 649 c 0,53,54
 136 686 136 686 136 737 c 0,0,1
EndSplineSet
EndChar

StartChar: comma
Encoding: 44 44 15
Width: 630
GlyphClass: 2
Flags: W
LayerCount: 2
Fore
SplineSet
120 178 m 0,0,1
 120 256 120 256 190 317 c 0,2,3
 238 360 238 360 305 360 c 0,4,5
 359 360 359 360 401 330 c 0,6,7
 494 260 494 260 494 148 c 2,8,-1
 494 127 l 1,9,10
 479 -66 479 -66 365 -172 c 0,11,12
 322 -211 322 -211 283 -225 c 0,13,14
 262 -231 262 -231 244 -231 c 0,15,16
 204 -231 204 -231 174 -201 c 0,17,18
 151 -173 151 -173 151 -149 c 0,19,20
 151 -136 151 -136 160 -113 c 0,21,22
 167 -102 167 -102 170 -94 c 0,23,24
 174 -90 174 -90 178 -82 c 0,25,26
 196 -48 196 -48 196 -17 c 0,27,28
 196 20 196 20 170 55 c 0,29,30
 148 86 148 86 141 98 c 0,31,32
 120 137 120 137 120 178 c 0,0,1
EndSplineSet
EndChar

StartChar: hyphen
Encoding: 45 45 16
Width: 954
GlyphClass: 2
Flags: W
LayerCount: 2
Fore
SplineSet
138 734 m 128,-1,1
 138 789 138 789 177 828 c 128,-1,2
 216 867 216 867 271 867 c 2,3,-1
 687 867 l 2,4,5
 742 867 742 867 781 828 c 128,-1,6
 820 789 820 789 820 734 c 128,-1,7
 820 679 820 679 781 640 c 128,-1,8
 742 601 742 601 687 601 c 2,9,-1
 271 601 l 2,10,11
 216 601 216 601 177 640 c 128,-1,0
 138 679 138 679 138 734 c 128,-1,1
EndSplineSet
EndChar

StartChar: period
Encoding: 46 46 17
Width: 622
GlyphClass: 2
Flags: W
LayerCount: 2
Fore
SplineSet
129 172 m 1,0,-1
 129 178 l 2,1,2
 129 245 129 245 193 309 c 0,3,4
 245 356 245 356 313 356 c 0,5,6
 385 356 385 356 438 303 c 0,7,8
 494 250 494 250 494 178 c 0,9,10
 494 103 494 103 440 49 c 0,11,12
 385 -6 385 -6 315 -6 c 2,13,-1
 311 -6 l 2,14,15
 241 -6 241 -6 187.5 47 c 128,-1,16
 134 100 134 100 129 172 c 1,0,-1
EndSplineSet
EndChar

StartChar: slash
Encoding: 47 47 18
Width: 1193
GlyphClass: 2
Flags: W
LayerCount: 2
Fore
SplineSet
134 72 m 0,0,1
 134 105 134 105 147 131 c 2,2,-1
 809 1466 l 2,3,4
 833 1515 833 1515 887 1534 c 0,5,6
 908 1540 908 1540 929 1540 c 0,7,8
 960 1540 960 1540 987 1528 c 0,9,10
 1036 1504 1036 1504 1055 1450 c 0,11,12
 1062 1432 1062 1432 1062 1409 c 0,13,14
 1062 1375 1062 1375 1049 1348 c 2,15,-1
 387 14 l 2,16,17
 370 -21 370 -21 336.5 -41 c 128,-1,18
 303 -61 303 -61 266 -61 c 0,19,20
 240 -61 240 -61 209 -47 c 0,21,22
 160 -23 160 -23 141 31 c 0,23,24
 134 49 134 49 134 72 c 0,0,1
EndSplineSet
EndChar

StartChar: zero
Encoding: 48 48 19
Width: 1404
GlyphClass: 2
Flags: W
LayerCount: 2
Fore
SplineSet
112 737 m 0,0,1
 112 773 112 773 115 807 c 0,2,3
 124 958 124 958 190 1112 c 128,-1,4
 256 1266 256 1266 381 1370 c 0,5,6
 526 1491 526 1491 696 1491 c 2,7,-1
 709 1491 l 2,8,9
 881 1491 881 1491 1026 1368 c 0,10,11
 1217 1211 1217 1211 1276 928 c 0,12,13
 1294 840 1294 840 1294 731 c 2,14,-1
 1294 718 l 2,15,16
 1294 543 1294 543 1219 367 c 0,17,18
 1155 215 1155 215 1028 106 c 0,19,20
 885 -16 885 -16 705 -16 c 0,21,22
 523 -16 523 -16 377 109 c 0,23,24
 205 256 205 256 143 494 c 0,25,26
 112 614 112 614 112 737 c 0,0,1
383 715 m 2,27,28
 383 620 383 620 416 522 c 0,29,30
 459 400 459 400 549 319 c 0,31,32
 619 258 619 258 698 258 c 2,33,-1
 705 258 l 2,34,35
 791 258 791 258 856 317 c 0,36,37
 924 379 924 379 958 446 c 0,38,39
 1026 591 1026 591 1026 733 c 2,40,-1
 1026 745 l 2,41,42
 1026 879 1026 879 963 1020 c 0,43,44
 921 1109 921 1109 842 1167 c 0,45,46
 775 1219 775 1219 705 1219 c 128,-1,47
 635 1219 635 1219 567 1169 c 0,48,49
 499 1121 499 1121 449 1028 c 0,50,51
 383 899 383 899 383 743 c 2,52,-1
 383 733 l 1,53,-1
 383 731 l 1,54,-1
 383 715 l 2,27,28
EndSplineSet
EndChar

StartChar: one
Encoding: 49 49 20
Width: 794
GlyphClass: 2
Flags: W
LayerCount: 2
Fore
SplineSet
107 1185 m 0,0,1
 107 1210 107 1210 119 1235 c 0,2,3
 144 1284 144 1284 199 1323 c 0,4,5
 314 1404 314 1404 403 1452 c 0,6,7
 412 1458 412 1458 424 1462 c 0,8,9
 462 1478 462 1478 494 1478 c 0,10,11
 527 1478 527 1478 557 1462 c 0,12,13
 618 1431 618 1431 633 1354 c 0,14,15
 639 1329 639 1329 639 1276 c 2,16,-1
 639 1274 l 1,17,-1
 639 883 l 1,18,-1
 639 754 l 1,19,-1
 639 614 l 1,20,-1
 639 197 l 2,21,22
 639 -4 639 -4 508 -4 c 0,23,24
 424 -4 424 -4 389 86 c 0,25,26
 371 135 371 135 371 199 c 2,27,-1
 371 926 l 1,28,-1
 371 940 l 2,29,30
 371 973 371 973 369 989 c 0,31,32
 364 1023 364 1023 340 1045 c 128,-1,33
 316 1067 316 1067 281 1067 c 0,34,35
 262 1067 262 1067 252 1065 c 2,36,-1
 246 1065 l 2,37,38
 244 1065 244 1065 239.5 1064.5 c 128,-1,39
 235 1064 235 1064 233 1064 c 0,40,41
 171 1064 171 1064 127 1124 c 0,42,43
 107 1151 107 1151 107 1185 c 0,0,1
EndSplineSet
EndChar

StartChar: two
Encoding: 50 50 21
Width: 1335
GlyphClass: 2
Flags: W
LayerCount: 2
Fore
SplineSet
145 139 m 0,0,1
 145 175 145 175 170 213 c 0,2,3
 193 250 193 250 254 307 c 0,4,5
 279 330 279 330 338 381 c 0,6,7
 426 461 426 461 475 508 c 0,8,9
 644 660 644 660 748 780 c 0,10,11
 826 870 826 870 864 938 c 0,12,13
 895 993 895 993 895 1046 c 0,14,15
 895 1078 895 1078 885 1104 c 0,16,17
 859 1175 859 1175 758 1212 c 0,18,19
 716 1225 716 1225 680 1225 c 0,20,21
 634 1225 634 1225 588 1206 c 0,22,23
 508 1171 508 1171 465 1087 c 0,24,25
 457 1063 457 1063 451 1049 c 0,26,27
 451 1047 451 1047 446 1032 c 0,28,29
 431 991 431 991 410 967 c 0,30,31
 367 913 367 913 315 913 c 0,32,33
 312 913 312 913 287 918 c 0,34,35
 206 943 206 943 190 1028 c 0,36,37
 188 1040 188 1040 188 1066 c 0,38,39
 188 1110 188 1110 203 1161 c 0,40,41
 239 1284 239 1284 346 1374 c 0,42,43
 465 1478 465 1478 621 1493 c 0,44,45
 652 1496 652 1496 683 1496 c 0,46,47
 817 1496 817 1496 922 1440 c 0,48,49
 1150 1317 1150 1317 1174 1071 c 0,50,51
 1175 1061 1175 1061 1175 1042 c 0,52,53
 1175 973 1175 973 1139 883 c 0,54,55
 1100 790 1100 790 1012 676 c 0,56,57
 927 569 927 569 762 408 c 0,58,59
 755 401 755 401 752 395 c 0,60,61
 750 393 750 393 740 384.5 c 128,-1,62
 730 376 730 376 727 371 c 0,63,64
 706 350 706 350 709 322 c 0,65,66
 715 296 715 296 743 281 c 0,67,68
 765 268 765 268 811 268 c 2,69,-1
 883 268 l 1,70,-1
 1010 268 l 2,71,72
 1058 268 1058 268 1095.5 254.5 c 128,-1,73
 1133 241 1133 241 1153.5 219 c 128,-1,74
 1174 197 1174 197 1184 174 c 128,-1,75
 1194 151 1194 151 1194 129 c 0,76,77
 1194 69 1194 69 1153 41 c 1,78,79
 1106 0 1106 0 987 0 c 2,80,-1
 725 0 l 1,81,-1
 676 0 l 1,82,-1
 590 0 l 2,83,84
 438 0 438 0 362 -2 c 2,85,-1
 358 -2 l 2,86,87
 308 -2 308 -2 258 10 c 0,88,89
 227 19 227 19 199 41 c 0,90,91
 145 86 145 86 145 139 c 0,0,1
EndSplineSet
EndChar

StartChar: three
Encoding: 51 51 22
Width: 1327
GlyphClass: 2
Flags: W
LayerCount: 2
Fore
SplineSet
149 408 m 0,0,1
 149 449 149 449 166 481 c 0,2,3
 187 528 187 528 236 553 c 0,4,5
 256 563 256 563 276 563 c 128,-1,6
 296 563 296 563 319 551 c 0,7,8
 370 525 370 525 401 465 c 0,9,10
 408 447 408 447 416 434 c 1,11,12
 423 410 423 410 434 393 c 0,13,14
 501 272 501 272 639 256 c 0,15,16
 663 254 663 254 675 254 c 0,17,18
 793 254 793 254 862 326 c 0,19,20
 908 375 908 375 911 442 c 0,21,22
 911 510 911 510 864 557 c 0,23,24
 805 616 805 616 715 633 c 0,25,26
 697 636 697 636 682 639 c 0,27,28
 644 643 644 643 627 649 c 0,29,30
 578 661 578 661 545 697.5 c 128,-1,31
 512 734 512 734 510 774 c 0,32,33
 510 815 510 815 541 854 c 0,34,35
 572 890 572 890 623 905 c 0,36,37
 660 913 660 913 676 915 c 0,38,39
 679 916 679 916 685 917.5 c 128,-1,40
 691 919 691 919 694 920 c 0,41,42
 790 937 790 937 840 1012 c 0,43,44
 862 1044 862 1044 862 1074 c 0,45,46
 862 1106 862 1106 838 1139 c 0,47,48
 775 1217 775 1217 676 1217 c 0,49,50
 671 1217 671 1217 665.5 1216.5 c 128,-1,51
 660 1216 660 1216 653.5 1215 c 128,-1,52
 647 1214 647 1214 643 1214 c 0,53,54
 553 1201 553 1201 485 1139 c 1,55,-1
 469 1122 l 1,56,57
 420 1077 420 1077 391 1057 c 0,58,59
 349 1026 349 1026 313 1026 c 0,60,61
 307 1026 307 1026 295 1028 c 0,62,63
 246 1037 246 1037 211 1087 c 0,64,65
 192 1115 192 1115 192 1150 c 0,66,67
 192 1171 192 1171 199 1192 c 0,68,69
 209 1229 209 1229 244 1276 c 0,70,71
 323 1376 323 1376 434 1432 c 0,72,73
 545 1489 545 1489 672 1489 c 2,74,-1
 678 1489 l 1,75,-1
 682 1489 l 1,76,77
 867 1480 867 1480 989 1378 c 0,78,79
 1100 1289 1100 1289 1128 1163 c 0,80,81
 1138 1120 1138 1120 1138 1084 c 0,82,83
 1138 1006 1138 1006 1104 918 c 0,84,85
 1101 910 1101 910 1081 870 c 0,86,87
 1063 837 1063 837 1063 805 c 0,88,89
 1063 766 1063 766 1090 725 c 0,90,91
 1092 722 1092 722 1096 715 c 128,-1,92
 1100 708 1100 708 1102 705 c 0,93,94
 1103 703 1103 703 1105 699.5 c 128,-1,95
 1107 696 1107 696 1108 694 c 0,96,97
 1190 576 1190 576 1190 437 c 0,98,99
 1190 397 1190 397 1182 354 c 0,100,101
 1164 266 1164 266 1112 197 c 0,102,103
 1056 118 1056 118 977 68 c 0,104,105
 838 -20 838 -20 678 -20 c 0,106,107
 633 -20 633 -20 578 -10 c 0,108,109
 473 9 473 9 382 64.5 c 128,-1,110
 291 120 291 120 229 205 c 1,111,112
 172 276 172 276 152 379 c 0,113,114
 149 394 149 394 149 408 c 0,0,1
EndSplineSet
EndChar

StartChar: four
Encoding: 52 52 23
Width: 1349
GlyphClass: 2
Flags: W
LayerCount: 2
Fore
SplineSet
118 424 m 0,0,1
 118 455 118 455 135 492 c 0,2,3
 153 532 153 532 190 578 c 0,4,5
 436 907 436 907 698 1249 c 1,6,-1
 780 1360 l 2,7,8
 825 1416 825 1416 856 1440 c 0,9,10
 902 1477 902 1477 953 1477 c 0,11,12
 972 1477 972 1477 985 1473 c 0,13,14
 1050 1454 1050 1454 1075 1374 c 0,15,16
 1090 1328 1090 1328 1090 1264 c 0,17,18
 1089 1241 1089 1241 1089 1196 c 0,19,20
 1089 1173 1089 1173 1089.5 1128 c 128,-1,21
 1090 1083 1090 1083 1090 1061 c 2,22,-1
 1090 1006 l 1,23,-1
 1090 995 l 1,24,-1
 1090 973 l 1,25,-1
 1090 952 l 2,26,27
 1090 932 1090 932 1088.5 854 c 128,-1,28
 1087 776 1087 776 1087 737 c 0,29,30
 1087 701 1087 701 1094 673.5 c 128,-1,31
 1101 646 1101 646 1119 623 c 128,-1,32
 1137 600 1137 600 1147.5 590.5 c 128,-1,33
 1158 581 1158 581 1184 559 c 0,34,35
 1211 537 1211 537 1224 524.5 c 128,-1,36
 1237 512 1237 512 1249.5 485.5 c 128,-1,37
 1262 459 1262 459 1262 426 c 0,38,39
 1262 392 1262 392 1246.5 364 c 128,-1,40
 1231 336 1231 336 1216.5 324 c 128,-1,41
 1202 312 1202 312 1171 291 c 0,42,43
 1141 272 1141 272 1126.5 260 c 128,-1,44
 1112 248 1112 248 1097.5 222.5 c 128,-1,45
 1083 197 1083 197 1083 164 c 0,46,47
 1083 126 1083 126 1066 89.5 c 128,-1,48
 1049 53 1049 53 1026 31 c 0,49,50
 985 -2 985 -2 950 -2 c 0,51,52
 912 -2 912 -2 872 35 c 0,53,54
 827 77 827 77 821 133 c 0,55,56
 815 207 815 207 799 229 c 0,57,58
 758 285 758 285 686 285 c 2,59,-1
 684 285 l 1,60,-1
 358 285 l 1,61,-1
 354 285 l 1,62,-1
 301 285 l 2,63,64
 298 285 298 285 280.5 286 c 128,-1,65
 263 287 263 287 260 287 c 0,66,67
 222 290 222 290 188 311 c 0,68,69
 118 355 118 355 118 424 c 0,0,1
560 616 m 0,70,71
 560 599 560 599 567 586 c 0,72,73
 582 551 582 551 635 551 c 0,74,75
 643 551 643 551 658 550 c 128,-1,76
 673 549 673 549 680 549 c 2,77,-1
 715 549 l 2,78,79
 753 549 753 549 779.5 559.5 c 128,-1,80
 806 570 806 570 819.5 583.5 c 128,-1,81
 833 597 833 597 839.5 622 c 128,-1,82
 846 647 846 647 847 662.5 c 128,-1,83
 848 678 848 678 848 707 c 0,84,85
 848 792 848 792 836 832 c 128,-1,86
 824 872 824 872 791 872 c 0,87,88
 728 872 728 872 584 682 c 0,89,90
 560 646 560 646 560 616 c 0,70,71
EndSplineSet
EndChar

StartChar: five
Encoding: 53 53 24
Width: 1327
GlyphClass: 2
Flags: W
LayerCount: 2
Fore
SplineSet
154 289 m 0,0,1
 154 332 154 332 190 369 c 0,2,3
 230 412 230 412 277 412 c 0,4,5
 304 412 304 412 330 399 c 0,6,7
 349 391 349 391 382.5 369 c 128,-1,8
 416 347 416 347 422 344 c 2,9,-1
 426 340 l 1,10,11
 494 292 494 292 537 279 c 0,12,13
 606 254 606 254 667 254 c 0,14,15
 681 254 681 254 705 256 c 0,16,17
 788 268 788 268 856 330 c 0,18,19
 930 398 930 398 930 485 c 0,20,21
 930 574 930 574 856 639 c 0,22,23
 768 717 768 717 657 717 c 0,24,25
 600 717 600 717 535 696 c 0,26,27
 511 687 511 687 485 674 c 0,28,29
 467 665 467 665 463 664 c 0,30,31
 449 655 449 655 442 653 c 0,32,33
 424 644 424 644 403 635 c 0,34,35
 371 625 371 625 349 625 c 0,36,37
 317 625 317 625 285 641 c 0,38,39
 229 673 229 673 217 739 c 0,40,41
 211 768 211 768 215 801 c 0,42,43
 218 817 218 817 223 847.5 c 128,-1,44
 228 878 228 878 231 893 c 0,45,46
 262 1102 262 1102 299 1305 c 0,47,48
 314 1386 314 1386 367 1427 c 1,49,50
 416 1470 416 1470 502 1470 c 2,51,-1
 647 1470 l 1,52,-1
 713 1470 l 1,53,-1
 717 1470 l 1,54,-1
 721 1470 l 1,55,-1
 780 1470 l 1,56,-1
 932 1470 l 2,57,58
 988 1470 988 1470 1037.5 1435.5 c 128,-1,59
 1087 1401 1087 1401 1087 1333 c 0,60,61
 1087 1264 1087 1264 1028 1229 c 0,62,63
 979 1202 979 1202 924 1202 c 2,64,-1
 920 1202 l 1,65,-1
 844 1202 l 2,66,67
 826 1202 826 1202 788 1201.5 c 128,-1,68
 750 1201 750 1201 731 1201 c 0,69,70
 693 1201 693 1201 674 1202 c 2,71,-1
 666 1202 l 2,72,73
 590 1202 590 1202 549 1155 c 0,74,75
 515 1116 515 1116 515 1064 c 0,76,77
 515 1049 515 1049 520 1034 c 0,78,79
 539 988 539 988 613 988 c 0,80,81
 628 988 628 988 635 989 c 0,82,83
 638 989 638 989 643 989.5 c 128,-1,84
 648 990 648 990 651 990 c 0,85,86
 708 990 708 990 782 973 c 0,87,88
 1008 927 1008 927 1133 733 c 0,89,90
 1206 617 1206 617 1206 484 c 0,91,92
 1206 310 1206 310 1083 170 c 0,93,94
 964 33 964 33 778 -6 c 0,95,96
 713 -16 713 -16 662 -16 c 0,97,98
 543 -16 543 -16 438 25 c 0,99,100
 305 77 305 77 223 162 c 0,101,102
 187 198 187 198 172 227 c 0,103,104
 154 260 154 260 154 289 c 0,0,1
EndSplineSet
EndChar

StartChar: six
Encoding: 54 54 25
Width: 1337
GlyphClass: 2
Flags: W
LayerCount: 2
Fore
SplineSet
131 518 m 0,0,1
 131 617 131 617 180 729 c 0,2,3
 206 788 206 788 268 872 c 0,4,5
 327 952 327 952 444 1110 c 128,-1,6
 561 1268 561 1268 621 1348 c 0,7,8
 667 1410 667 1410 713 1444 c 0,9,10
 754 1475 754 1475 793 1475 c 0,11,12
 824 1475 824 1475 856 1454 c 0,13,14
 913 1411 913 1411 913 1351 c 0,15,16
 913 1326 913 1326 905 1305 c 0,17,18
 895 1278 895 1278 868 1233 c 0,19,20
 840 1191 840 1191 834 1184 c 0,21,22
 819 1162 819 1162 809 1149 c 0,23,24
 789 1118 789 1118 789 1092 c 0,25,26
 789 1087 789 1087 791 1079 c 0,27,28
 797 1047 797 1047 836 1022 c 0,29,30
 860 1010 860 1010 874 1004 c 0,31,32
 878 1002 878 1002 887.5 997.5 c 128,-1,33
 897 993 897 993 901 991 c 0,34,35
 1136 873 1136 873 1192 639 c 0,36,37
 1207 574 1207 574 1207 510 c 0,38,39
 1207 328 1207 328 1094 188 c 0,40,41
 1022 95 1022 95 909 37 c 0,42,43
 802 -18 802 -18 692 -18 c 2,44,-1
 682 -18 l 1,45,46
 459 -13 459 -13 303.5 126 c 128,-1,47
 148 265 148 265 133 477 c 0,48,49
 131 503 131 503 131 518 c 0,0,1
403 508 m 0,50,51
 403 415 403 415 475 340 c 0,52,53
 556 256 556 256 670 256 c 2,54,-1
 680 256 l 2,55,56
 786 256 786 256 860 330 c 0,57,58
 938 408 938 408 938 516 c 0,59,60
 938 620 938 620 864 694 c 0,61,62
 783 772 783 772 680 772 c 2,63,-1
 664 772 l 2,64,65
 570 772 570 772 489 694 c 0,66,67
 406 617 406 617 403 508 c 0,50,51
EndSplineSet
EndChar

StartChar: seven
Encoding: 55 55 26
Width: 1316
GlyphClass: 2
Flags: W
LayerCount: 2
Fore
SplineSet
137 1333 m 0,0,1
 137 1389 137 1389 172 1421 c 0,2,3
 219 1470 219 1470 311 1470 c 2,4,-1
 561 1470 l 1,5,-1
 662 1470 l 1,6,-1
 760 1470 l 1,7,-1
 1012 1470 l 2,8,9
 1102 1470 1102 1470 1151 1393 c 0,10,11
 1178 1348 1178 1348 1178 1295 c 0,12,13
 1178 1243 1178 1243 1153 1192 c 0,14,15
 981 852 981 852 895 680 c 0,16,17
 672 234 672 234 627 147 c 0,18,19
 588 71 588 71 543 35 c 0,20,21
 504 2 504 2 465 2 c 0,22,23
 443 2 443 2 420 12 c 0,24,25
 344 52 344 52 344 124 c 2,26,-1
 344 129 l 2,27,28
 344 173 344 173 356 203 c 2,29,-1
 369 229 l 2,30,31
 373 237 373 237 382 258 c 128,-1,32
 391 279 391 279 397 289 c 0,33,34
 427 349 427 349 488 468 c 128,-1,35
 549 587 549 587 578 647 c 0,36,37
 619 732 619 732 768 1028 c 0,38,39
 769 1031 769 1031 772 1036 c 128,-1,40
 775 1041 775 1041 776 1044 c 0,41,42
 779 1051 779 1051 786.5 1065.5 c 128,-1,43
 794 1080 794 1080 797 1087 c 0,44,45
 805 1103 805 1103 805 1123 c 0,46,47
 805 1141 805 1141 797 1159 c 0,48,49
 779 1194 779 1194 733 1200 c 0,50,51
 719 1202 719 1202 690 1202 c 2,52,-1
 676 1202 l 1,53,-1
 340 1202 l 1,54,-1
 289 1202 l 2,55,56
 277 1202 277 1202 255 1208.5 c 128,-1,57
 233 1215 233 1215 205 1228 c 128,-1,58
 177 1241 177 1241 157 1269 c 128,-1,59
 137 1297 137 1297 137 1333 c 0,0,1
EndSplineSet
EndChar

StartChar: eight
Encoding: 56 56 27
Width: 1384
GlyphClass: 2
Flags: W
LayerCount: 2
Fore
SplineSet
146 448 m 0,0,1
 146 560 146 560 211 666 c 0,2,3
 217 678 217 678 233 698 c 0,4,5
 235 701 235 701 242.5 711 c 128,-1,6
 250 721 250 721 252 727 c 0,7,8
 275 763 275 763 275 802 c 0,9,10
 275 833 275 833 260 866 c 1,11,-1
 248 885 l 2,12,13
 240 901 240 901 236 911 c 0,14,15
 196 997 196 997 196 1077 c 0,16,17
 196 1186 196 1186 266 1284 c 0,18,19
 393 1467 393 1467 635 1491 c 0,20,21
 657 1494 657 1494 676 1491 c 2,22,-1
 694 1491 l 1,23,-1
 709 1491 l 2,24,25
 810 1491 810 1491 903 1454 c 0,26,27
 1006 1412 1006 1412 1079 1333 c 0,28,29
 1169 1236 1169 1236 1184 1124 c 0,30,31
 1187 1100 1187 1100 1187 1077 c 0,32,33
 1187 981 1187 981 1141 895 c 0,34,35
 1138 887 1138 887 1133 879 c 2,36,-1
 1129 872 l 2,37,38
 1125 866 1125 866 1124 862 c 0,39,40
 1109 831 1109 831 1109 800 c 0,41,42
 1109 764 1109 764 1130 729 c 0,43,44
 1133 724 1133 724 1140.5 713.5 c 128,-1,45
 1148 703 1148 703 1151 698 c 0,46,47
 1155 694 1155 694 1163 682 c 0,48,49
 1239 573 1239 573 1239 451 c 0,50,51
 1239 440 1239 440 1237 416 c 0,52,53
 1225 278 1225 278 1126 170 c 0,54,55
 993 22 993 22 778 -8 c 0,56,57
 732 -14 732 -14 688 -14 c 0,58,59
 631 -14 631 -14 584 -6 c 0,60,61
 494 9 494 9 399 57 c 0,62,63
 284 117 284 117 219 219 c 0,64,65
 146 331 146 331 146 448 c 0,0,1
424 445 m 2,66,67
 424 396 424 396 469 348 c 0,68,69
 549 259 549 259 686 256 c 2,70,-1
 695 256 l 2,71,72
 835 256 835 256 915 348 c 0,73,74
 961 400 961 400 961 450 c 128,-1,75
 961 500 961 500 920 547 c 0,76,77
 838 641 838 641 696 641 c 2,78,-1
 694 641 l 2,79,80
 553 641 553 641 471 553 c 0,81,82
 424 500 424 500 424 451 c 2,83,-1
 424 445 l 2,66,67
479 1072 m 128,-1,85
 479 1038 479 1038 508 1001 c 0,86,87
 571 923 571 923 688 920 c 0,88,89
 806 920 806 920 872 995 c 0,90,91
 908 1036 908 1036 908 1073 c 256,92,93
 908 1110 908 1110 872 1149 c 0,94,95
 807 1223 807 1223 690 1223 c 2,96,-1
 682 1223 l 1,97,-1
 680 1223 l 2,98,99
 572 1223 572 1223 508 1143 c 0,100,84
 479 1106 479 1106 479 1072 c 128,-1,85
EndSplineSet
EndChar

StartChar: nine
Encoding: 57 57 28
Width: 1341
GlyphClass: 2
Flags: W
LayerCount: 2
Fore
SplineSet
131 963 m 0,0,1
 131 1092 131 1092 197 1212 c 0,2,3
 252 1309 252 1309 340 1377 c 128,-1,4
 428 1445 428 1445 535 1475 c 0,5,6
 592 1491 592 1491 650 1491 c 2,7,-1
 668 1491 l 1,8,-1
 674 1491 l 2,9,10
 831 1491 831 1491 962.5 1406.5 c 128,-1,11
 1094 1322 1094 1322 1165 1171 c 0,12,13
 1212 1074 1212 1074 1212 972 c 0,14,15
 1212 866 1212 866 1161 750 c 0,16,17
 1134 683 1134 683 1079 610 c 0,18,19
 806 239 806 239 719 123 c 0,20,21
 682 69 682 69 633 31 c 0,22,23
 590 -4 590 -4 549 -4 c 0,24,25
 520 -4 520 -4 485 20 c 0,26,27
 429 61 429 61 429 122 c 0,28,29
 429 146 429 146 440 176 c 0,30,31
 449 199 449 199 479 248 c 1,32,-1
 510 291 l 2,33,34
 513 296 513 296 520 305 c 128,-1,35
 527 314 527 314 530 319 c 0,36,37
 553 355 553 355 553 382 c 0,38,39
 553 387 553 387 551 397 c 0,40,41
 542 434 542 434 494 459 c 0,42,43
 489 461 489 461 477.5 466 c 128,-1,44
 466 471 466 471 461 473 c 0,45,46
 454 476 454 476 440.5 482.5 c 128,-1,47
 427 489 427 489 420 492 c 0,48,49
 219 605 219 605 156 807 c 0,50,51
 131 887 131 887 131 963 c 0,0,1
407 970 m 0,52,53
 407 968 407 968 408 966 c 0,54,55
 408 964 408 964 408 963 c 2,56,-1
 408 956 l 1,57,-1
 408 950 l 2,58,59
 408 858 408 858 475 791 c 0,60,61
 560 700 560 700 668 700 c 2,62,-1
 676 700 l 2,63,64
 776 700 776 700 855.5 779.5 c 128,-1,65
 935 859 935 859 936 963 c 2,66,-1
 936 969 l 2,67,68
 936 1067 936 1067 858 1143 c 0,69,70
 777 1221 777 1221 670 1221 c 2,71,-1
 666 1221 l 2,72,73
 616 1221 616 1221 565.5 1197.5 c 128,-1,74
 515 1174 515 1174 477 1133 c 0,75,76
 407 1060 407 1060 407 970 c 0,52,53
EndSplineSet
EndChar

StartChar: colon
Encoding: 58 58 29
Width: 630
GlyphClass: 2
Flags: W
LayerCount: 2
Fore
SplineSet
135 172 m 2,0,-1
 135 176 l 2,1,2
 135 245 135 245 186 298.5 c 128,-1,3
 237 352 237 352 309 358 c 0,4,5
 311 358 311 358 314.5 358.5 c 128,-1,6
 318 359 318 359 320 359 c 0,7,8
 387 359 387 359 444 299 c 0,9,10
 498 245 498 245 498 188 c 2,11,-1
 498 178 l 1,12,-1
 498 168 l 2,13,14
 498 109 498 109 451 57 c 0,15,16
 394 -6 394 -6 319 -6 c 2,17,-1
 315 -6 l 2,18,19
 241 -4 241 -4 188 48 c 128,-1,20
 135 100 135 100 135 172 c 2,0,-1
135 793 m 2,21,-1
 135 798 l 2,22,23
 135 866 135 866 195 920 c 0,24,25
 248 973 248 973 313 973 c 2,26,-1
 324 973 l 1,27,28
 395 967 395 967 446.5 912 c 128,-1,29
 498 857 498 857 498 788 c 0,30,31
 498 717 498 717 440 662 c 0,32,33
 383 608 383 608 313 608 c 2,34,-1
 309 608 l 2,35,36
 238 611 238 611 186.5 665.5 c 128,-1,37
 135 720 135 720 135 793 c 2,21,-1
EndSplineSet
EndChar

StartChar: semicolon
Encoding: 59 59 30
Width: 630
GlyphClass: 2
Flags: W
LayerCount: 2
Fore
SplineSet
121 166 m 2,0,-1
 121 175 l 2,1,2
 121 220 121 220 147 260 c 0,3,4
 204 358 204 358 303 358 c 0,5,6
 312 358 312 358 330 356 c 0,7,8
 394 350 394 350 440 295 c 0,9,10
 494 229 494 229 494 129 c 128,-1,11
 494 29 494 29 464 -42 c 128,-1,12
 434 -113 434 -113 365 -176 c 0,13,14
 323 -216 323 -216 281 -227 c 0,15,16
 263 -233 263 -233 246 -233 c 0,17,18
 201 -233 201 -233 174 -199 c 0,19,20
 153 -175 153 -175 153 -149 c 0,21,22
 153 -134 153 -134 162 -117 c 0,23,24
 164 -115 164 -115 164 -113 c 0,25,26
 165 -112 165 -112 166 -108.5 c 128,-1,27
 167 -105 167 -105 168 -104 c 0,28,29
 197 -60 197 -60 197 -21 c 0,30,31
 197 26 197 26 158 74 c 0,32,33
 124 117 124 117 121 166 c 2,0,-1
133 797 m 0,34,35
 135 828 135 828 153 862.5 c 128,-1,36
 171 897 171 897 201 924 c 0,37,38
 256 973 256 973 314 973 c 2,39,-1
 319 973 l 2,40,41
 392 970 392 970 444 915 c 0,42,43
 498 858 498 858 498 784 c 2,44,-1
 498 780 l 2,45,46
 498 716 498 716 438 659 c 0,47,48
 384 608 384 608 324 608 c 2,49,-1
 315 608 l 1,50,-1
 309 608 l 2,51,52
 248 608 248 608 197 659 c 0,53,54
 133 720 133 720 133 797 c 0,34,35
EndSplineSet
EndChar

StartChar: less
Encoding: 60 60 31
Width: 1097
GlyphClass: 2
Flags: W
LayerCount: 2
Fore
SplineSet
154 733 m 0,0,1
 154 775 154 775 177.5 815.5 c 128,-1,2
 201 856 201 856 246 885 c 2,3,-1
 719 1161 l 2,4,5
 764 1183 764 1183 795 1190 c 0,6,7
 810 1195 810 1195 833 1195 c 0,8,9
 884 1195 884 1195 918 1165 c 0,10,11
 960 1129 960 1129 960 1084 c 0,12,13
 960 1042 960 1042 924 995 c 0,14,15
 887 947 887 947 827 913 c 0,16,17
 802 897 802 897 744.5 864.5 c 128,-1,18
 687 832 687 832 657 813 c 0,19,20
 618 790 618 790 602 764 c 0,21,22
 593 749 593 749 593 735 c 0,23,24
 593 696 593 696 657 655 c 0,25,26
 689 634 689 634 751 598 c 128,-1,27
 813 562 813 562 825 555 c 0,28,29
 889 517 889 517 920 475 c 0,30,31
 943 443 943 443 943 401 c 0,32,33
 943 362 943 362 922 332 c 0,34,35
 882 280 882 280 811 280 c 0,36,37
 772 280 772 280 733 301 c 0,38,39
 484 445 484 445 238 592 c 0,40,41
 203 615 203 615 180 647 c 0,42,43
 154 687 154 687 154 733 c 0,0,1
EndSplineSet
EndChar

StartChar: equal
Encoding: 61 61 32
Width: 1062
GlyphClass: 2
Flags: W
LayerCount: 2
Fore
SplineSet
137 517 m 128,-1,1
 137 572 137 572 176 611 c 128,-1,2
 215 650 215 650 270 650 c 2,3,-1
 795 650 l 2,4,5
 850 650 850 650 889 611 c 128,-1,6
 928 572 928 572 928 517 c 128,-1,7
 928 462 928 462 889 423 c 128,-1,8
 850 384 850 384 795 384 c 2,9,-1
 270 384 l 2,10,11
 215 384 215 384 176 423 c 128,-1,0
 137 462 137 462 137 517 c 128,-1,1
137 964 m 128,-1,13
 137 1019 137 1019 176 1058 c 128,-1,14
 215 1097 215 1097 270 1097 c 2,15,-1
 795 1097 l 2,16,17
 850 1097 850 1097 889 1058 c 128,-1,18
 928 1019 928 1019 928 964 c 128,-1,19
 928 909 928 909 889 870 c 128,-1,20
 850 831 850 831 795 831 c 2,21,-1
 270 831 l 2,22,23
 215 831 215 831 176 870 c 128,-1,12
 137 909 137 909 137 964 c 128,-1,13
EndSplineSet
EndChar

StartChar: greater
Encoding: 62 62 33
Width: 1097
GlyphClass: 2
Flags: W
LayerCount: 2
Fore
SplineSet
154 1085 m 128,-1,1
 154 1129 154 1129 197 1165 c 0,2,3
 232 1195 232 1195 282 1195 c 0,4,5
 299 1195 299 1195 319 1190 c 0,6,7
 356 1180 356 1180 395 1161 c 0,8,9
 468 1119 468 1119 624 1027.5 c 128,-1,10
 780 936 780 936 868 885 c 1,11,12
 961 821 961 821 961 731 c 0,13,14
 961 647 961 647 877 592 c 1,15,16
 491 364 491 364 381 301 c 1,17,-1
 381 299 l 1,18,19
 340 281 340 281 303 281 c 0,20,21
 231 281 231 281 193 332 c 0,22,23
 171 363 171 363 171 401 c 0,24,25
 171 442 171 442 195 475 c 0,26,27
 231 524 231 524 289 555 c 0,28,29
 293 558 293 558 309 567.5 c 128,-1,30
 325 577 325 577 334 582 c 2,31,-1
 457 655 l 2,32,33
 520 695 520 695 520 732 c 2,34,-1
 520 735 l 2,35,36
 520 773 520 773 457 813 c 0,37,38
 393 852 393 852 356 872 c 0,39,40
 308 902 308 902 287 913 c 0,41,42
 229 947 229 947 190 995 c 0,43,0
 154 1041 154 1041 154 1085 c 128,-1,1
EndSplineSet
EndChar

StartChar: question
Encoding: 63 63 34
Width: 1140
GlyphClass: 2
Flags: W
LayerCount: 2
Fore
SplineSet
137 1128 m 0,0,1
 137 1154 137 1154 145 1186 c 0,2,3
 173 1293 173 1293 261 1371 c 128,-1,4
 349 1449 349 1449 455 1470 c 0,5,6
 523 1481 523 1481 524 1481 c 0,7,8
 528 1481 528 1481 541 1482 c 128,-1,9
 554 1483 554 1483 559 1483 c 0,10,11
 645 1479 645 1479 659 1475 c 0,12,13
 748 1459 748 1459 799 1434.5 c 128,-1,14
 850 1410 850 1410 909 1348 c 0,15,16
 989 1262 989 1262 1004 1147 c 0,17,18
 1006 1133 1006 1133 1006 1104 c 0,19,20
 1006 1009 1006 1009 954 922 c 0,21,22
 900 828 900 828 815 752 c 0,23,24
 761 704 761 704 727 660.5 c 128,-1,25
 693 617 693 617 666 559 c 0,26,27
 656 529 656 529 614 487 c 0,28,29
 567 440 567 440 514 440 c 0,30,31
 468 440 468 440 438 475 c 0,32,33
 402 522 402 522 402 588 c 0,34,35
 402 601 402 601 406 625 c 1,36,-1
 406 627 l 1,37,38
 427 722 427 722 481 793 c 0,39,40
 525 848 525 848 633 950 c 1,41,-1
 645 963 l 2,42,43
 687 1005 687 1005 698 1020 c 0,44,45
 726 1055 726 1055 726 1096 c 0,46,47
 726 1116 726 1116 721 1130 c 0,48,49
 710 1158 710 1158 684 1178 c 128,-1,50
 658 1198 658 1198 623 1204 c 0,51,52
 588 1211 588 1211 564 1211 c 0,53,54
 458 1211 458 1211 414 1124 c 0,55,56
 409 1114 409 1114 401 1102 c 0,57,58
 388 1080 388 1080 387 1079 c 2,59,-1
 381 1071 l 2,60,61
 365 1047 365 1047 356 1038 c 0,62,63
 308 985 308 985 266 985 c 0,64,65
 250 985 250 985 233 991 c 0,66,67
 155 1019 155 1019 139 1104 c 0,68,69
 137 1120 137 1120 137 1128 c 0,0,1
389 131 m 0,70,71
 389 191 389 191 434 233 c 0,72,73
 472 271 472 271 524 274 c 0,74,75
 586 274 586 274 627 233 c 0,76,77
 668 195 668 195 668 137 c 0,78,79
 668 82 668 82 623 37 c 0,80,81
 584 -2 584 -2 532 -2 c 2,82,-1
 528 -2 l 2,83,84
 479 -2 479 -2 436 35 c 0,85,86
 389 73 389 73 389 131 c 0,70,71
EndSplineSet
EndChar

StartChar: at
Encoding: 64 64 35
Width: 1849
GlyphClass: 2
Flags: W
LayerCount: 2
Fore
SplineSet
135 742 m 0,0,1
 135 830 135 830 158 924 c 0,2,3
 196 1070 196 1070 281 1192 c 0,4,5
 372 1322 372 1322 501.5 1406.5 c 128,-1,6
 631 1491 631 1491 784 1520 c 0,7,8
 853 1534 853 1534 933 1534 c 1,9,-1
 1104 1516 l 1,10,11
 1262 1480 1262 1480 1391 1389 c 0,12,13
 1520 1299 1520 1299 1603 1163.5 c 128,-1,14
 1686 1028 1686 1028 1712 868 c 0,15,16
 1720 815 1720 815 1720 772 c 0,17,18
 1720 673 1720 673 1688 590 c 0,19,20
 1644 473 1644 473 1548 401 c 0,21,22
 1451 327 1451 327 1343 327 c 0,23,24
 1285 327 1285 327 1225 348 c 0,25,26
 1219 351 1219 351 1206 357 c 128,-1,27
 1193 363 1193 363 1190 365 c 0,28,29
 1176 370 1176 370 1171 373 c 0,30,31
 1113 396 1113 396 1066 396 c 0,32,33
 1045 396 1045 396 1020 391 c 0,34,35
 975 382 975 382 934 382 c 0,36,37
 882 382 882 382 836 395 c 0,38,39
 720 430 720 430 645.5 527.5 c 128,-1,40
 571 625 571 625 571 743 c 2,41,-1
 571 752 l 2,42,43
 572 873 572 873 649.5 971 c 128,-1,44
 727 1069 727 1069 846 1100 c 0,45,46
 889 1112 889 1112 934 1112 c 0,47,48
 1038 1112 1038 1112 1131 1053 c 0,49,50
 1197 1012 1197 1012 1239.5 948.5 c 128,-1,51
 1282 885 1282 885 1294 811 c 0,52,53
 1299 778 1299 778 1299 750 c 0,54,55
 1299 706 1299 706 1288 649 c 1,56,-1
 1288 645 l 1,57,58
 1280 612 1280 612 1286 596 c 0,59,60
 1301 554 1301 554 1337 541 c 0,61,62
 1348 537 1348 537 1361 537 c 0,63,64
 1385 537 1385 537 1411 553 c 0,65,66
 1479 598 1479 598 1507 680 c 0,67,68
 1521 728 1521 728 1521 776 c 0,69,70
 1521 833 1521 833 1501 907 c 0,71,72
 1457 1053 1457 1053 1354 1159 c 0,73,74
 1258 1260 1258 1260 1118 1305 c 0,75,76
 1029 1336 1029 1336 931 1336 c 0,77,78
 883 1336 883 1336 842 1329 c 0,79,80
 692 1305 692 1305 569 1210 c 0,81,82
 452 1121 452 1121 393 1001 c 0,83,84
 334 886 334 886 334 737 c 0,85,86
 337 572 337 572 412 440 c 0,87,88
 491 308 491 308 633 223 c 0,89,90
 769 141 769 141 921 141 c 0,91,92
 985 141 985 141 1049 156 c 0,93,94
 1133 174 1133 174 1180 174 c 0,95,96
 1212 174 1212 174 1229 165 c 128,-1,97
 1246 156 1246 156 1262 135 c 1,98,99
 1272 115 1272 115 1272 94 c 0,100,101
 1272 78 1272 78 1266 63 c 0,102,103
 1245 7 1245 7 1151 -25 c 0,104,105
 1052 -55 1052 -55 958 -55 c 2,106,-1
 934 -55 l 1,107,-1
 926 -55 l 2,108,109
 786 -55 786 -55 654.5 -5.5 c 128,-1,110
 523 44 523 44 416 137 c 0,111,112
 304 232 304 232 233.5 360 c 128,-1,113
 163 488 163 488 143 631 c 0,114,115
 135 690 135 690 135 742 c 0,0,1
786 744 m 2,116,117
 786 690 786 690 831 645 c 0,118,119
 880 596 880 596 938 596 c 0,120,121
 995 596 995 596 1039.5 637 c 128,-1,122
 1084 678 1084 678 1085 745 c 0,123,124
 1085 801 1085 801 1038 848 c 0,125,126
 995 894 995 894 938 897 c 2,127,-1
 936 897 l 2,128,129
 872 897 872 897 827 852 c 0,130,131
 786 811 786 811 786 750 c 2,132,-1
 786 744 l 2,116,117
EndSplineSet
EndChar

StartChar: A
Encoding: 65 65 36
Width: 1646
GlyphClass: 2
Flags: W
LayerCount: 2
Fore
SplineSet
125 109 m 0,0,1
 123 117 123 117 123.5 126 c 128,-1,2
 124 135 124 135 125 145 c 0,3,4
 136 196 136 196 154 236 c 2,5,-1
 172 274 l 2,6,7
 188 308 188 308 219 376.5 c 128,-1,8
 250 445 250 445 266 479 c 0,9,10
 560 1100 560 1100 645 1288 c 0,11,12
 649 1298 649 1298 653 1305.5 c 128,-1,13
 657 1313 657 1313 659 1317 c 128,-1,14
 661 1321 661 1321 662 1323 c 0,15,16
 673 1347 673 1347 680 1360.5 c 128,-1,17
 687 1374 687 1374 703.5 1398.5 c 128,-1,18
 720 1423 720 1423 736 1437.5 c 128,-1,19
 752 1452 752 1452 777 1463.5 c 128,-1,20
 802 1475 802 1475 829 1475 c 0,21,22
 922 1475 922 1475 993 1323 c 2,23,-1
 1016 1274 l 1,24,25
 1344 565 1344 565 1479 279 c 0,26,27
 1507 217 1507 217 1520 170 c 0,28,29
 1526 150 1526 150 1526 126 c 0,30,31
 1526 67 1526 67 1479 25 c 0,32,33
 1442 -4 1442 -4 1399 -4 c 2,34,-1
 1384 -4 l 1,35,36
 1329 2 1329 2 1300 43 c 2,37,-1
 1296 49 l 1,38,39
 1256 123 1256 123 1225 184 c 0,40,41
 1170 297 1170 297 1047 297 c 0,42,43
 918 294 918 294 788 294 c 0,44,45
 666 294 666 294 606 295 c 2,46,-1
 595 295 l 2,47,48
 540 295 540 295 496 268 c 0,49,50
 449 236 449 236 424 178 c 0,51,52
 417 165 417 165 405 141.5 c 128,-1,53
 393 118 393 118 387 106 c 0,54,55
 359 52 359 52 330 27 c 0,56,57
 292 -4 292 -4 250 -4 c 0,58,59
 200 -4 200 -4 158 43 c 0,60,61
 138 65 138 65 131 86 c 0,62,63
 125 101 125 101 125 109 c 0,0,1
650 640 m 0,64,65
 650 620 650 620 659 604 c 0,66,67
 679 571 679 571 729 565 c 2,68,-1
 823 561 l 2,69,70
 895 561 895 561 932 567 c 0,71,72
 973 573 973 573 993 606 c 0,73,74
 1002 622 1002 622 1002 643 c 0,75,76
 1002 662 1002 662 993 682 c 0,77,78
 982 704 982 704 958 759 c 128,-1,79
 934 814 934 814 920 842 c 0,80,81
 916 851 916 851 895 893 c 0,82,83
 887 914 887 914 879 924 c 0,84,85
 857 952 857 952 827 952 c 2,86,-1
 825 952 l 2,87,88
 797 952 797 952 774 922 c 0,89,90
 769 916 769 916 763 904.5 c 128,-1,91
 757 893 757 893 756 891 c 0,92,93
 755 887 755 887 733 844 c 0,94,95
 669 701 669 701 662 686 c 0,96,97
 650 659 650 659 650 640 c 0,64,65
EndSplineSet
EndChar

StartChar: B
Encoding: 66 66 37
Width: 1462
GlyphClass: 2
Flags: W
LayerCount: 2
Fore
SplineSet
156 223 m 2,0,-1
 156 233 l 1,1,-1
 156 420 l 1,2,-1
 156 487 l 1,3,-1
 156 737 l 1,4,-1
 156 870 l 1,5,-1
 156 1241 l 1,6,-1
 156 1249 l 2,7,8
 156 1298 156 1298 158 1321 c 0,9,10
 166 1384 166 1384 207 1427 c 128,-1,11
 248 1470 248 1470 311 1477 c 1,12,-1
 326 1477 l 2,13,14
 355 1477 355 1477 395 1478 c 128,-1,15
 435 1479 435 1479 449 1479 c 2,16,-1
 538 1479 l 2,17,18
 606 1479 606 1479 659 1477 c 0,19,20
 773 1471 773 1471 856 1438 c 0,21,22
 959 1400 959 1400 1024 1329 c 0,23,24
 1133 1214 1133 1214 1133 1066 c 0,25,26
 1133 987 1133 987 1104 909 c 0,27,28
 1099 892 1099 892 1099 880 c 0,29,30
 1099 858 1099 858 1112.5 835 c 128,-1,31
 1126 812 1126 812 1137 800.5 c 128,-1,32
 1148 789 1148 789 1180 758 c 1,33,34
 1215 730 1215 730 1253 682 c 0,35,36
 1322 592 1322 592 1339 508 c 0,37,38
 1348 461 1348 461 1348 430 c 0,39,40
 1348 347 1348 347 1313 268 c 0,41,42
 1259 148 1259 148 1153 80 c 0,43,44
 1109 50 1109 50 1016.5 23 c 128,-1,45
 924 -4 924 -4 827 -4 c 2,46,-1
 711 -4 l 1,47,-1
 375 -4 l 1,48,-1
 373 -4 l 2,49,50
 328 -4 328 -4 287 8 c 0,51,52
 232 23 232 23 198 63 c 128,-1,53
 164 103 164 103 158 160 c 0,54,55
 156 180 156 180 156 223 c 2,0,-1
421 431 m 0,56,57
 421 406 421 406 422 393 c 0,58,59
 428 267 428 267 553 264 c 2,60,-1
 679 264 l 2,61,62
 774 264 774 264 823 266 c 0,63,64
 854 266 854 266 936 281 c 0,65,66
 991 293 991 293 1036 344 c 0,67,68
 1071 385 1071 385 1071 434 c 0,69,70
 1071 476 1071 476 1042 516 c 0,71,72
 983 602 983 602 877 608 c 1,73,-1
 557 612 l 1,74,-1
 555 612 l 1,75,-1
 553 612 l 1,76,-1
 532 612 l 2,77,78
 486 609 486 609 457.5 581.5 c 128,-1,79
 429 554 429 554 424 510 c 0,80,81
 421 435 421 435 421 431 c 0,56,57
421 1038 m 0,82,83
 421 1017 421 1017 422 1006 c 0,84,85
 425 950 425 950 457 913 c 1,86,87
 494 881 494 881 549 881 c 0,88,89
 627 877 627 877 659 877 c 0,90,91
 713 877 713 877 772 893 c 0,92,93
 861 918 861 918 883 995 c 0,94,95
 887 1008 887 1008 887 1026 c 0,96,97
 887 1086 887 1086 836 1137 c 0,98,99
 774 1202 774 1202 672 1208 c 1,100,-1
 635 1208 l 2,101,102
 615 1210 615 1210 592 1210 c 2,103,-1
 541 1210 l 1,104,-1
 532 1210 l 2,105,106
 488 1208 488 1208 458 1180 c 128,-1,107
 428 1152 428 1152 424 1106 c 0,108,109
 421 1046 421 1046 421 1038 c 0,82,83
EndSplineSet
EndChar

StartChar: C
Encoding: 67 67 38
Width: 1548
GlyphClass: 2
Flags: W
LayerCount: 2
Fore
SplineSet
113 737 m 0,0,1
 113 890 113 890 174 1032 c 0,2,3
 245 1201 245 1201 385 1319 c 0,4,5
 531 1438 531 1438 721 1479 c 0,6,7
 790 1493 790 1493 844 1493 c 0,8,9
 1112 1493 1112 1493 1309 1350 c 0,10,11
 1370 1307 1370 1307 1397 1262 c 0,12,13
 1423 1219 1423 1219 1423 1183 c 0,14,15
 1423 1144 1423 1144 1395 1112 c 0,16,17
 1352 1062 1352 1062 1303 1062 c 0,18,19
 1280 1062 1280 1062 1249 1073 c 0,20,21
 1234 1079 1234 1079 1159 1126 c 0,22,23
 1155 1128 1155 1128 1135 1143 c 0,24,25
 1011 1223 1011 1223 863 1223 c 2,26,-1
 842 1223 l 1,27,28
 666 1217 666 1217 528 1079 c 0,29,30
 394 945 394 945 385 766 c 0,31,32
 384 756 384 756 384 736 c 0,33,34
 384 559 384 559 504 422 c 0,35,36
 570 346 570 346 659.5 302 c 128,-1,37
 749 258 749 258 850 252 c 0,38,39
 859 251 859 251 876 251 c 0,40,41
 996 251 996 251 1124 326 c 0,42,43
 1131 331 1131 331 1146.5 341 c 128,-1,44
 1162 351 1162 351 1169 356 c 0,45,46
 1177 361 1177 361 1191 371 c 128,-1,47
 1205 381 1205 381 1208 383 c 0,48,49
 1257 408 1257 408 1278 412 c 0,50,51
 1287 414 1287 414 1304 414 c 0,52,53
 1362 414 1362 414 1405 356 c 0,54,55
 1427 328 1427 328 1427 295 c 0,56,57
 1427 264 1427 264 1409 231 c 0,58,59
 1385 188 1385 188 1325 137 c 0,60,61
 1198 34 1198 34 1020 -2 c 0,62,63
 938 -18 938 -18 866 -18 c 0,64,65
 709 -18 709 -18 569 43 c 0,66,67
 358 136 358 136 233 332 c 0,68,69
 127 497 127 497 115 686 c 0,70,71
 113 720 113 720 113 737 c 0,0,1
EndSplineSet
EndChar

StartChar: D
Encoding: 68 68 39
Width: 1570
GlyphClass: 2
Flags: W
LayerCount: 2
Fore
SplineSet
162 238 m 2,0,-1
 162 258 l 1,1,-1
 162 608 l 1,2,-1
 162 741 l 1,3,-1
 162 846 l 1,4,-1
 162 1245 l 1,5,-1
 162 1257 l 2,6,7
 162 1293 162 1293 164 1311 c 0,8,9
 168 1382 168 1382 214 1427 c 128,-1,10
 260 1472 260 1472 330 1477 c 0,11,12
 346 1479 346 1479 375 1479 c 2,13,-1
 389 1479 l 1,14,-1
 510 1479 l 2,15,16
 592 1477 592 1477 635 1477 c 128,-1,17
 678 1477 678 1477 762 1479 c 2,18,-1
 776 1479 l 2,19,20
 1113 1479 1113 1479 1315 1194 c 0,21,22
 1399 1077 1399 1077 1434 936 c 0,23,24
 1459 842 1459 842 1459 741 c 0,25,26
 1459 703 1459 703 1454 653 c 0,27,28
 1439 506 1439 506 1373.5 378 c 128,-1,29
 1308 250 1308 250 1200 156 c 0,30,31
 1022 4 1022 4 788 -2 c 0,32,33
 731 -4 731 -4 614 -4 c 0,34,35
 510 -4 510 -4 459 -2 c 2,36,-1
 365 -2 l 2,37,38
 327 -2 327 -2 297 8 c 0,39,40
 240 22 240 22 204 63 c 128,-1,41
 168 104 168 104 164 162 c 0,42,43
 162 189 162 189 162 238 c 2,0,-1
430 410 m 2,44,45
 430 347 430 347 471 305.5 c 128,-1,46
 512 264 512 264 555 264 c 2,47,-1
 602 264 l 2,48,49
 707 264 707 264 760 266 c 0,50,51
 936 272 936 272 1044 383 c 0,52,53
 1112 451 1112 451 1150 544 c 128,-1,54
 1188 637 1188 637 1188 737 c 2,55,-1
 1188 752 l 2,56,57
 1185 858 1185 858 1143 952 c 128,-1,58
 1101 1046 1101 1046 1028 1112 c 0,59,60
 924 1202 924 1202 801 1208 c 0,61,62
 725 1210 725 1210 680 1210 c 0,63,64
 641 1210 641 1210 539 1208 c 0,65,66
 493 1206 493 1206 463 1176.5 c 128,-1,67
 433 1147 433 1147 432 1098 c 0,68,69
 430 1088 430 1088 430 1067 c 2,70,-1
 430 1055 l 2,71,72
 430 1029 430 1029 430.5 974.5 c 128,-1,73
 431 920 431 920 431 893 c 0,74,75
 431 840 431 840 430 813 c 2,76,-1
 430 768 l 1,77,-1
 430 748 l 1,78,-1
 430 721 l 1,79,-1
 430 553 l 1,80,-1
 430 410 l 2,44,45
EndSplineSet
EndChar

StartChar: E
Encoding: 69 69 40
Width: 1306
GlyphClass: 2
Flags: W
LayerCount: 2
Fore
SplineSet
156 209 m 2,0,-1
 156 1071 l 1,1,-1
 156 1270 l 2,2,3
 156 1310 156 1310 164 1337 c 0,4,5
 179 1401 179 1401 222 1437.5 c 128,-1,6
 265 1474 265 1474 330 1477 c 0,7,8
 371 1479 371 1479 453 1479 c 2,9,-1
 506 1479 l 1,10,-1
 637 1479 l 1,11,-1
 670 1479 l 1,12,-1
 702 1479 l 1,13,-1
 793 1479 l 1,14,-1
 1032 1479 l 2,15,16
 1114 1479 1114 1479 1167 1432 c 1,17,-1
 1167 1430 l 1,18,19
 1200 1394 1200 1394 1200 1341 c 0,20,21
 1200 1305 1200 1305 1184 1274 c 0,22,23
 1145 1210 1145 1210 1034 1210 c 2,24,-1
 942 1210 l 1,25,-1
 858 1210 l 1,26,-1
 764 1210 l 2,27,28
 623 1210 623 1210 551 1208 c 0,29,30
 492 1208 492 1208 459.5 1176.5 c 128,-1,31
 427 1145 427 1145 426 1085 c 2,32,-1
 426 1049 l 2,33,34
 426 1018 426 1018 424 1004 c 0,35,36
 424 958 424 958 459 920 c 0,37,38
 500 879 500 879 553 879 c 0,39,40
 619 881 619 881 750 881 c 0,41,42
 762 881 762 881 786 880 c 128,-1,43
 810 879 810 879 823 879 c 0,44,45
 879 879 879 879 913 866 c 0,46,47
 951 849 951 849 970 817 c 128,-1,48
 989 785 989 785 989 751 c 2,49,-1
 989 745 l 2,50,51
 989 707 989 707 966 672.5 c 128,-1,52
 943 638 943 638 901 625 c 0,53,54
 849 612 849 612 812 612 c 2,55,-1
 797 612 l 1,56,-1
 557 612 l 2,57,58
 490 611 490 611 459 579 c 128,-1,59
 428 547 428 547 426 479 c 0,60,61
 425 475 425 475 425 469 c 128,-1,62
 425 463 425 463 425.5 456 c 128,-1,63
 426 449 426 449 426 446 c 0,64,65
 426 413 426 413 424 397 c 2,66,-1
 424 389 l 2,67,68
 424 341 424 341 455 307 c 0,69,70
 498 264 498 264 559 264 c 2,71,-1
 764 264 l 1,72,-1
 989 264 l 1,73,-1
 1001 264 l 2,74,75
 1039 264 1039 264 1057 262 c 0,76,77
 1138 256 1138 256 1174 197 c 0,78,79
 1189 168 1189 168 1189 132 c 0,80,81
 1189 100 1189 100 1176 70 c 0,82,83
 1149 23 1149 23 1081 6 c 0,84,85
 1033 -4 1033 -4 987 -4 c 2,86,-1
 985 -4 l 1,87,-1
 387 -4 l 2,88,89
 332 -4 332 -4 291 6 c 0,90,91
 190 36 190 36 164 135 c 0,92,93
 156 168 156 168 156 209 c 2,0,-1
EndSplineSet
EndChar

StartChar: F
Encoding: 70 70 41
Width: 1253
GlyphClass: 2
Flags: W
LayerCount: 2
Fore
SplineSet
154 569 m 2,0,-1
 154 743 l 1,1,-1
 154 1233 l 2,2,3
 154 1236 154 1236 155 1243 c 128,-1,4
 156 1250 156 1250 156 1253 c 2,5,-1
 156 1290 l 2,6,7
 156 1292 156 1292 155.5 1294 c 128,-1,8
 155 1296 155 1296 155 1298 c 0,9,10
 155 1369 155 1369 205 1419 c 0,11,12
 260 1477 260 1477 342 1477 c 0,13,14
 401 1476 401 1476 510 1476 c 0,15,16
 562 1476 562 1476 669 1476.5 c 128,-1,17
 776 1477 776 1477 836 1477 c 2,18,-1
 950 1477 l 1,19,-1
 989 1477 l 2,20,21
 1082 1477 1082 1477 1126 1421 c 1,22,23
 1152 1378 1152 1378 1152 1340 c 128,-1,24
 1152 1302 1152 1302 1130 1270 c 0,25,26
 1093 1217 1093 1217 1001 1208 c 0,27,28
 980 1205 980 1205 956 1208 c 2,29,-1
 944 1208 l 1,30,-1
 748 1208 l 1,31,-1
 582 1208 l 1,32,-1
 569 1208 l 2,33,34
 542 1208 542 1208 530 1206 c 0,35,36
 486 1203 486 1203 456.5 1174.5 c 128,-1,37
 427 1146 427 1146 424 1102 c 2,38,-1
 424 1018 l 1,39,-1
 424 999 l 2,40,41
 426 928 426 928 457.5 895.5 c 128,-1,42
 489 863 489 863 559 862 c 2,43,-1
 715 862 l 1,44,-1
 758 862 l 1,45,-1
 770 862 l 2,46,47
 803 862 803 862 817 860 c 0,48,49
 902 853 902 853 936 797 c 0,50,51
 954 764 954 764 954 725 c 0,52,53
 954 688 954 688 936 659 c 0,54,55
 893 594 893 594 788 594 c 0,56,57
 734 592 734 592 729 592 c 128,-1,58
 724 592 724 592 672 594 c 2,59,-1
 602 594 l 1,60,-1
 584 594 l 2,61,62
 553 594 553 594 537 592 c 0,63,64
 486 590 486 590 456 560 c 128,-1,65
 426 530 426 530 424 479 c 0,66,67
 423 451 423 451 423 389 c 0,68,69
 423 357 423 357 423.5 294 c 128,-1,70
 424 231 424 231 424 203 c 2,71,-1
 424 197 l 2,72,73
 424 83 424 83 385 35 c 0,74,75
 352 -4 352 -4 291 -4 c 0,76,77
 225 -4 225 -4 193 33 c 0,78,79
 156 79 156 79 156 190 c 0,80,81
 154 309 154 309 154 569 c 2,0,-1
EndSplineSet
EndChar

StartChar: G
Encoding: 71 71 42
Width: 1703
GlyphClass: 2
Flags: W
LayerCount: 2
Fore
SplineSet
116 738 m 0,0,1
 116 808 116 808 127 868 c 0,2,3
 154 1016 154 1016 238 1147 c 0,4,5
 323 1278 323 1278 450.5 1364.5 c 128,-1,6
 578 1451 578 1451 727 1479 c 0,7,8
 802 1492 802 1492 879 1492 c 0,9,10
 938 1492 938 1492 997 1483 c 0,11,12
 1127 1462 1127 1462 1253 1393 c 1,13,14
 1327 1347 1327 1347 1364 1294 c 0,15,16
 1392 1256 1392 1256 1392 1216 c 0,17,18
 1392 1161 1392 1161 1337 1118 c 0,19,20
 1306 1094 1306 1094 1270 1094 c 0,21,22
 1251 1094 1251 1094 1227 1102 c 0,23,24
 1191 1114 1191 1114 1128 1151 c 0,25,26
 1012 1223 1012 1223 870 1223 c 2,27,-1
 846 1223 l 1,28,29
 689 1217 689 1217 557 1104 c 0,30,31
 425 988 425 988 395 834 c 0,32,33
 386 788 386 788 386 739 c 0,34,35
 386 588 386 588 475 461 c 0,36,37
 536 378 536 378 618 326 c 0,38,39
 700 271 700 271 799 258 c 0,40,41
 841 253 841 253 872 253 c 0,42,43
 964 253 964 253 1044 287 c 0,44,45
 1155 333 1155 333 1237 444 c 0,46,47
 1273 492 1273 492 1273 529 c 0,48,49
 1273 546 1273 546 1266 559 c 0,50,51
 1249 595 1249 595 1199 595 c 0,52,53
 1195 595 1195 595 1185.5 594.5 c 128,-1,54
 1176 594 1176 594 1171 594 c 2,55,-1
 1161 594 l 2,56,57
 1099 592 1099 592 1068 592 c 128,-1,58
 1037 592 1037 592 977 594 c 2,59,-1
 971 594 l 2,60,61
 879 594 879 594 829 653 c 0,62,63
 797 690 797 690 797 730 c 0,64,65
 797 772 797 772 831 807 c 0,66,67
 880 862 880 862 961 862 c 2,68,-1
 1120 862 l 1,69,-1
 1180 862 l 1,70,-1
 1188 862 l 1,71,-1
 1251 862 l 1,72,-1
 1407 862 l 2,73,74
 1465 862 1465 862 1507 836 c 0,75,76
 1548 812 1548 812 1571 767.5 c 128,-1,77
 1594 723 1594 723 1594 671 c 0,78,79
 1594 668 1594 668 1593.5 662 c 128,-1,80
 1593 656 1593 656 1593 653 c 0,81,82
 1580 500 1580 500 1519 380 c 128,-1,83
 1458 260 1458 260 1343 158 c 0,84,85
 1194 27 1194 27 981 -8 c 0,86,87
 916 -18 916 -18 868 -18 c 0,88,89
 635 -18 635 -18 442 119 c 0,90,91
 323 202 323 202 250 311 c 0,92,93
 172 423 172 423 137 557 c 0,94,95
 116 647 116 647 116 738 c 0,0,1
EndSplineSet
EndChar

StartChar: H
Encoding: 72 72 43
Width: 1533
GlyphClass: 2
Flags: W
LayerCount: 2
Fore
SplineSet
156 203 m 2,0,-1
 156 614 l 1,1,-1
 156 741 l 1,2,-1
 156 854 l 1,3,-1
 156 1257 l 1,4,-1
 156 1266 l 2,5,6
 156 1305 156 1305 158 1323 c 0,7,8
 158 1354 158 1354 162 1368 c 0,9,10
 171 1413 171 1413 208.5 1446 c 128,-1,11
 246 1479 246 1479 289 1481 c 0,12,13
 329 1481 329 1481 364.5 1451 c 128,-1,14
 400 1421 400 1421 412 1378 c 0,15,16
 426 1332 426 1332 426 1274 c 0,17,18
 426 1264 426 1264 425.5 1209 c 128,-1,19
 425 1154 425 1154 425 1116 c 0,20,21
 425 1047 425 1047 426 1014 c 0,22,23
 426 947 426 947 459 918 c 1,24,25
 488 885 488 885 555 885 c 0,26,27
 619 883 619 883 634 883 c 128,-1,28
 649 883 649 883 713 885 c 0,29,30
 854 885 854 885 944 883 c 0,31,32
 974 883 974 883 1015.5 894.5 c 128,-1,33
 1057 906 1057 906 1075 924 c 0,34,35
 1112 961 1112 961 1112 1014 c 0,36,37
 1110 1047 1110 1047 1110 1117 c 2,38,-1
 1110 1223 l 1,39,-1
 1110 1313 l 2,40,41
 1110 1407 1110 1407 1161 1448 c 0,42,43
 1197 1480 1197 1480 1244 1480 c 0,44,45
 1290 1480 1290 1480 1327 1450 c 0,46,47
 1380 1403 1380 1403 1380 1266 c 2,48,-1
 1380 891 l 1,49,-1
 1380 195 l 2,50,51
 1380 128 1380 128 1368 84 c 0,52,53
 1337 -6 1337 -6 1249 -6 c 0,54,55
 1201 -6 1201 -6 1167 18 c 128,-1,56
 1133 42 1133 42 1120 86 c 0,57,58
 1110 113 1110 113 1110 166 c 2,59,-1
 1110 168 l 1,60,-1
 1110 334 l 1,61,-1
 1110 457 l 1,62,-1
 1110 479 l 1,63,-1
 1110 508 l 2,64,65
 1110 540 1110 540 1083 567 c 0,66,67
 1043 602 1043 602 999 602 c 2,68,-1
 997 602 l 2,69,70
 952 601 952 601 882 601 c 128,-1,71
 812 601 812 601 768 602 c 0,72,73
 613 602 613 602 535 600 c 0,74,75
 428 600 428 600 426 508 c 0,76,77
 424 428 424 428 424 373 c 0,78,79
 424 319 424 319 426 231 c 2,80,-1
 426 203 l 2,81,82
 426 150 426 150 414 100 c 0,83,84
 411 86 411 86 404 70.5 c 128,-1,85
 397 55 397 55 383.5 37 c 128,-1,86
 370 19 370 19 346 7.5 c 128,-1,87
 322 -4 322 -4 291 -4 c 0,88,89
 256 -4 256 -4 229 11 c 128,-1,90
 202 26 202 26 188 48 c 128,-1,91
 174 70 174 70 167.5 89 c 128,-1,92
 161 108 161 108 160 123 c 0,93,94
 156 173 156 173 156 203 c 2,0,-1
EndSplineSet
EndChar

StartChar: I
Encoding: 73 73 44
Width: 579
GlyphClass: 2
Flags: W
LayerCount: 2
Fore
SplineSet
156 200 m 2,0,-1
 156 478 l 1,1,-1
 156 596 l 1,2,-1
 156 746 l 1,3,-1
 156 852 l 1,4,-1
 156 998 l 1,5,-1
 156 1270 l 1,6,-1
 156 1274 l 2,7,8
 156 1315 156 1315 158 1336 c 0,9,10
 162 1381 162 1381 185 1418 c 0,11,12
 222 1478 222 1478 291 1478 c 0,13,14
 365 1478 365 1478 399 1414 c 0,15,16
 418 1378 418 1378 424 1324 c 1,17,-1
 424 1321 l 2,18,19
 425 1315 425 1315 425 1282 c 2,20,-1
 425 1269 l 1,21,-1
 425 924 l 1,22,-1
 425 206 l 2,23,24
 425 140 425 140 406 90 c 0,25,26
 371 -3 371 -3 285 -3 c 0,27,28
 203 -3 203 -3 172 87 c 0,29,30
 156 133 156 133 156 200 c 2,0,-1
EndSplineSet
EndChar

StartChar: J
Encoding: 74 74 45
Width: 1347
GlyphClass: 2
Flags: W
LayerCount: 2
Fore
SplineSet
127 479 m 0,0,1
 127 511 127 511 135 532 c 0,2,3
 161 614 161 614 233 629 c 0,4,5
 241 631 241 631 256 631 c 0,6,7
 290 631 290 631 317 611.5 c 128,-1,8
 344 592 344 592 359 562 c 128,-1,9
 374 532 374 532 381 514.5 c 128,-1,10
 388 497 388 497 391 483 c 0,11,12
 411 399 411 399 457 350 c 0,13,14
 507 291 507 291 563 270 c 0,15,16
 606 252 606 252 652 252 c 0,17,18
 676 252 676 252 696 256 c 0,19,20
 849 287 849 287 905 440 c 0,21,22
 924 489 924 489 924 575 c 2,23,-1
 924 1022 l 1,24,-1
 924 1276 l 2,25,26
 924 1339 924 1339 934 1372 c 0,27,28
 949 1419 949 1419 984 1449 c 128,-1,29
 1019 1479 1019 1479 1059 1479 c 0,30,31
 1097 1479 1097 1479 1131 1450.5 c 128,-1,32
 1165 1422 1165 1422 1182 1376 c 0,33,34
 1192 1347 1192 1347 1192 1286 c 2,35,-1
 1192 985 l 1,36,-1
 1192 909 l 1,37,-1
 1192 885 l 1,38,-1
 1192 788 l 1,39,-1
 1192 535 l 2,40,41
 1192 448 1192 448 1165 360 c 0,42,43
 1117 199 1117 199 979 92 c 0,44,45
 835 -18 835 -18 657 -18 c 2,46,-1
 647 -18 l 2,47,48
 473 -15 473 -15 332 93 c 128,-1,49
 191 201 191 201 141 369 c 0,50,51
 130 414 130 414 127 479 c 0,0,1
EndSplineSet
EndChar

StartChar: K
Encoding: 75 75 46
Width: 1505
GlyphClass: 2
Flags: W
LayerCount: 2
Fore
SplineSet
156 203 m 2,0,-1
 156 602 l 1,1,-1
 156 735 l 1,2,-1
 156 809 l 1,3,-1
 156 1255 l 1,4,-1
 156 1262 l 1,5,-1
 156 1313 l 2,6,7
 156 1315 156 1315 158 1332.5 c 128,-1,8
 160 1350 160 1350 162 1358 c 0,9,10
 172 1405 172 1405 207 1441 c 128,-1,11
 242 1477 242 1477 289 1477 c 0,12,13
 387 1477 387 1477 418 1378 c 0,14,15
 426 1347 426 1347 426 1270 c 2,16,-1
 426 977 l 1,17,-1
 426 969 l 2,18,19
 426 936 426 936 430 920 c 0,20,21
 440 887 440 887 469 877 c 128,-1,22
 498 867 498 867 526 889 c 0,23,24
 543 903 543 903 553 915 c 0,25,26
 555 916 555 916 558 919.5 c 128,-1,27
 561 923 561 923 563 924 c 0,28,29
 600 960 600 960 675.5 1032.5 c 128,-1,30
 751 1105 751 1105 788 1141 c 0,31,32
 829 1180 829 1180 907 1253 c 128,-1,33
 985 1326 985 1326 1018 1358 c 0,34,35
 1081 1421 1081 1421 1128 1446 c 0,36,37
 1172 1468 1172 1468 1210 1468 c 0,38,39
 1260 1468 1260 1468 1296 1427 c 0,40,41
 1321 1399 1321 1399 1321 1358 c 0,42,43
 1321 1318 1321 1318 1303 1284 c 0,44,45
 1281 1236 1281 1236 1223 1178 c 0,46,47
 1205 1160 1205 1160 1164.5 1120.5 c 128,-1,48
 1124 1081 1124 1081 1104 1061 c 0,49,50
 1059 1018 1059 1018 973 932 c 2,51,-1
 967 926 l 2,52,53
 952 914 952 914 928 885 c 1,54,55
 906 850 906 850 906 820 c 128,-1,56
 906 790 906 790 924 762 c 0,57,58
 936 739 936 739 956 715 c 0,59,60
 957 714 957 714 958.5 712 c 128,-1,61
 960 710 960 710 961 709 c 0,62,63
 984 679 984 679 1049.5 597 c 128,-1,64
 1115 515 1115 515 1149 471 c 0,65,66
 1171 441 1171 441 1217.5 382.5 c 128,-1,67
 1264 324 1264 324 1286 295 c 0,68,69
 1335 238 1335 238 1356 190 c 0,70,71
 1367 162 1367 162 1367 133 c 0,72,73
 1367 73 1367 73 1315 33 c 0,74,75
 1282 6 1282 6 1247 6 c 0,76,77
 1224 6 1224 6 1198 18 c 0,78,79
 1149 42 1149 42 1106 94 c 0,80,81
 1060 150 1060 150 1016 205 c 1,82,-1
 1014 207 l 2,83,84
 1005 220 1005 220 986 243 c 128,-1,85
 967 266 967 266 958 279 c 0,86,87
 859 402 859 402 760 528 c 0,88,89
 704 599 704 599 657 602 c 2,90,-1
 653 602 l 2,91,92
 611 602 611 602 555 543 c 0,93,94
 550 538 550 538 539.5 526.5 c 128,-1,95
 529 515 529 515 524 510 c 0,96,97
 510 498 510 498 483 471 c 0,98,99
 457 441 457 441 441.5 396.5 c 128,-1,100
 426 352 426 352 426 309 c 2,101,-1
 426 295 l 2,102,103
 427 284 427 284 427 260 c 0,104,105
 427 247 427 247 426.5 232 c 128,-1,106
 426 217 426 217 425 198.5 c 128,-1,107
 424 180 424 180 424 170 c 0,108,109
 420 59 420 59 360 23 c 1,110,-1
 360 20 l 1,111,112
 318 0 318 0 289 0 c 0,113,114
 256 0 256 0 215 23 c 1,115,116
 164 59 164 59 158 129 c 0,117,118
 158 140 158 140 157 164.5 c 128,-1,119
 156 189 156 189 156 203 c 2,0,-1
EndSplineSet
EndChar

StartChar: L
Encoding: 76 76 47
Width: 1247
GlyphClass: 2
Flags: W
LayerCount: 2
Fore
SplineSet
156 225 m 2,0,-1
 156 612 l 1,1,-1
 156 737 l 1,2,-1
 156 1251 l 1,3,-1
 156 1266 l 2,4,5
 154 1275 154 1275 154 1284.5 c 128,-1,6
 154 1294 154 1294 156 1303 c 0,7,8
 159 1343 159 1343 170 1376 c 0,9,10
 184 1419 184 1419 218.5 1448 c 128,-1,11
 253 1477 253 1477 291 1477 c 2,12,-1
 293 1477 l 2,13,14
 331 1477 331 1477 366 1447.5 c 128,-1,15
 401 1418 401 1418 416 1374 c 0,16,17
 424 1345 424 1345 424 1286 c 2,18,-1
 424 1278 l 1,19,-1
 424 774 l 1,20,-1
 424 610 l 1,21,-1
 424 563 l 1,22,-1
 424 420 l 1,23,-1
 424 410 l 2,24,25
 424 383 424 383 426 371 c 0,26,27
 432 327 432 327 463 298 c 128,-1,28
 494 269 494 269 537 266 c 0,29,30
 549 265 549 265 571 265 c 2,31,-1
 641 266 l 1,32,-1
 682 266 l 1,33,-1
 760 266 l 1,34,-1
 965 266 l 1,35,-1
 967 266 l 2,36,37
 1071 266 1071 266 1114 205 c 1,38,-1
 1114 203 l 1,39,40
 1137 163 1137 163 1137 129 c 0,41,42
 1137 94 1137 94 1114 59 c 1,43,-1
 1114 57 l 1,44,45
 1076 4 1076 4 995 -2 c 0,46,47
 981 -4 981 -4 952 -4 c 2,48,-1
 944 -4 l 1,49,-1
 651 -4 l 1,50,-1
 377 -4 l 1,51,-1
 369 -4 l 2,52,53
 310 -4 310 -4 281 8 c 0,54,55
 192 39 192 39 168 123 c 0,56,57
 156 158 156 158 156 225 c 2,0,-1
EndSplineSet
EndChar

StartChar: M
Encoding: 77 77 48
Width: 1808
GlyphClass: 2
Flags: W
LayerCount: 2
Fore
SplineSet
154 186 m 2,0,-1
 154 1114 l 1,1,-1
 154 1292 l 2,2,3
 154 1384 154 1384 201 1434 c 0,4,5
 244 1479 244 1479 297 1479 c 0,6,7
 339 1479 339 1479 377 1450 c 0,8,9
 386 1443 386 1443 394 1435 c 128,-1,10
 402 1427 402 1427 412 1413 c 128,-1,11
 422 1399 422 1399 426 1393 c 128,-1,12
 430 1387 430 1387 442 1367.5 c 128,-1,13
 454 1348 454 1348 455 1346 c 0,14,15
 465 1326 465 1326 467 1323 c 0,16,17
 496 1276 496 1276 530 1214 c 0,18,19
 532 1210 532 1210 540 1198 c 128,-1,20
 548 1186 548 1186 553 1178 c 0,21,22
 566 1155 566 1155 594 1107 c 128,-1,23
 622 1059 622 1059 635 1036 c 0,24,25
 655 1002 655 1002 691.5 940.5 c 128,-1,26
 728 879 728 879 758.5 827.5 c 128,-1,27
 789 776 789 776 815 731 c 2,28,-1
 817 727 l 2,29,30
 834 697 834 697 850 678 c 0,31,32
 878 650 878 650 905 653 c 0,33,34
 935 653 935 653 961 682 c 0,35,36
 976 703 976 703 989 729 c 0,37,38
 993 733 993 733 995 737 c 0,39,40
 1121 952 1121 952 1204 1094 c 0,41,42
 1226 1132 1226 1132 1271.5 1208.5 c 128,-1,43
 1317 1285 1317 1285 1339 1323 c 0,44,45
 1381 1396 1381 1396 1417 1430 c 0,46,47
 1468 1478 1468 1478 1521 1478 c 0,48,49
 1534 1478 1534 1478 1546 1475 c 0,50,51
 1577 1467 1577 1467 1602 1441.5 c 128,-1,52
 1627 1416 1627 1416 1640 1376 c 0,53,54
 1653 1342 1653 1342 1653 1284 c 2,55,-1
 1653 1280 l 1,56,-1
 1653 893 l 1,57,-1
 1653 625 l 1,58,-1
 1653 227 l 1,59,-1
 1653 215 l 2,60,61
 1653 109 1653 109 1636 76 c 0,62,63
 1592 -2 1592 -2 1520 -2 c 0,64,65
 1485 -2 1485 -2 1448.5 27 c 128,-1,66
 1412 56 1412 56 1397 96 c 0,67,68
 1382 140 1382 140 1382 199 c 0,69,70
 1383 247 1383 247 1383 352 c 0,71,72
 1383 410 1383 410 1382.5 504 c 128,-1,73
 1382 598 1382 598 1382 625 c 2,74,-1
 1382 633 l 1,75,-1
 1382 643 l 2,76,77
 1382 730 1382 730 1350 739 c 0,78,79
 1347 740 1347 740 1340 740 c 0,80,81
 1313 740 1313 740 1292 709 c 0,82,83
 1276 685 1276 685 1262 657 c 0,84,85
 1238 616 1238 616 1189.5 534.5 c 128,-1,86
 1141 453 1141 453 1116 412 c 2,87,-1
 1067 328 l 2,88,89
 989 195 989 195 903 195 c 128,-1,90
 817 195 817 195 733 338 c 0,91,92
 652 479 652 479 545 659 c 0,93,94
 540 669 540 669 539 670 c 0,95,96
 528 690 528 690 514 707 c 0,97,98
 494 733 494 733 469 727 c 0,99,100
 442 724 442 724 428 692 c 0,101,102
 422 672 422 672 422 631 c 2,103,-1
 422 623 l 1,104,-1
 422 195 l 2,105,106
 422 137 422 137 412 106 c 0,107,108
 397 59 397 59 362.5 29.5 c 128,-1,109
 328 0 328 0 289 0 c 2,110,-1
 285 0 l 2,111,112
 248 0 248 0 214.5 29 c 128,-1,113
 181 58 181 58 166 104 c 0,114,115
 154 142 154 142 154 186 c 2,0,-1
EndSplineSet
EndChar

StartChar: N
Encoding: 78 78 49
Width: 1574
GlyphClass: 2
Flags: W
LayerCount: 2
Fore
SplineSet
156 199 m 2,0,-1
 156 213 l 1,1,-1
 156 606 l 1,2,-1
 156 737 l 1,3,-1
 156 866 l 1,4,-1
 156 1262 l 2,5,6
 156 1285 156 1285 160 1343 c 0,7,8
 163 1393 163 1393 197 1430 c 0,9,10
 244 1480 244 1480 289 1480 c 0,11,12
 321 1480 321 1480 362 1454 c 0,13,14
 404 1428 404 1428 469 1350 c 2,15,-1
 633 1145 l 2,16,17
 696 1066 696 1066 822.5 908.5 c 128,-1,18
 949 751 949 751 1012 672 c 0,19,20
 1014 670 1014 670 1017 665.5 c 128,-1,21
 1020 661 1020 661 1022 659 c 0,22,23
 1045 631 1045 631 1055 623 c 0,24,25
 1074 601 1074 601 1100 604 c 0,26,27
 1122 607 1122 607 1139 637 c 0,28,29
 1151 662 1151 662 1151 715 c 2,30,-1
 1151 838 l 1,31,-1
 1151 991 l 1,32,-1
 1151 1145 l 1,33,-1
 1151 1307 l 2,34,35
 1151 1388 1151 1388 1206 1440 c 0,36,37
 1243 1475 1243 1475 1289 1475 c 0,38,39
 1332 1475 1332 1475 1366 1444 c 0,40,41
 1389 1425 1389 1425 1405 1378.5 c 128,-1,42
 1421 1332 1421 1332 1421 1266 c 2,43,-1
 1421 209 l 2,44,45
 1421 156 1421 156 1409 113 c 0,46,47
 1401 78 1401 78 1378 49 c 0,48,49
 1331 -4 1331 -4 1282 -4 c 0,50,51
 1246 -4 1246 -4 1202 25 c 0,52,53
 1157 57 1157 57 1102 127 c 0,54,55
 943 324 943 324 807 494 c 0,56,57
 669 665 669 665 608 739 c 0,58,59
 588 767 588 767 575 780 c 0,60,61
 567 790 567 790 550.5 812 c 128,-1,62
 534 834 534 834 526 844 c 0,63,64
 507 869 507 869 480 869 c 0,65,66
 475 869 475 869 469 868 c 0,67,68
 433 859 433 859 424 815 c 0,69,70
 420 788 420 788 420 735 c 2,71,-1
 420 473 l 1,72,-1
 420 219 l 1,73,74
 414 128 414 128 414 127 c 0,75,76
 407 75 407 75 370 36.5 c 128,-1,77
 333 -2 333 -2 291 -4 c 2,78,-1
 288 -4 l 2,79,80
 244 -4 244 -4 206 36 c 128,-1,81
 168 76 168 76 160 129 c 0,82,83
 156 158 156 158 156 199 c 2,0,-1
EndSplineSet
EndChar

StartChar: O
Encoding: 79 79 50
Width: 1734
GlyphClass: 2
Flags: W
LayerCount: 2
Fore
SplineSet
111 735 m 0,0,1
 111 884 111 884 170 1025.5 c 128,-1,2
 229 1167 229 1167 336 1274 c 0,3,4
 440 1378 440 1378 571 1436 c 0,5,6
 713 1495 713 1495 870 1495 c 0,7,8
 1019 1495 1019 1495 1161 1438 c 1,9,10
 1302 1377 1302 1377 1401 1278 c 0,11,12
 1510 1171 1510 1171 1568 1031 c 128,-1,13
 1626 891 1626 891 1626 737 c 0,14,15
 1623 569 1623 569 1563 432 c 0,16,17
 1504 299 1504 299 1399 197 c 0,18,19
 1290 91 1290 91 1151 35 c 0,20,21
 1026 -16 1026 -16 887 -16 c 2,22,-1
 870 -16 l 2,23,24
 866 -16 866 -16 857 -16.5 c 128,-1,25
 848 -17 848 -17 844 -17 c 0,26,27
 713 -17 713 -17 586 37 c 0,28,29
 454 89 454 89 344 195 c 0,30,31
 234 302 234 302 176 436 c 0,32,33
 114 574 114 574 111 735 c 0,0,1
385 731 m 2,34,35
 385 649 385 649 422 553 c 0,36,37
 459 466 459 466 528 397 c 0,38,39
 593 332 593 332 682 293 c 0,40,41
 767 254 767 254 862 254 c 2,42,-1
 868 254 l 2,43,44
 960 254 960 254 1048.5 289.5 c 128,-1,45
 1137 325 1137 325 1204 389 c 0,46,47
 1352 534 1352 534 1352 735 c 2,48,-1
 1352 743 l 2,49,50
 1352 838 1352 838 1315.5 925 c 128,-1,51
 1279 1012 1279 1012 1212 1079 c 0,52,53
 1068 1223 1068 1223 868 1223 c 0,54,55
 759 1220 759 1220 676 1182 c 0,56,57
 592 1147 592 1147 526 1081 c 0,58,59
 460 1012 460 1012 422 922 c 0,60,61
 385 838 385 838 385 758 c 2,62,-1
 385 748 l 1,63,-1
 385 733 l 1,64,-1
 385 731 l 2,34,35
EndSplineSet
EndChar

StartChar: P
Encoding: 80 80 51
Width: 1447
GlyphClass: 2
Flags: W
LayerCount: 2
Fore
SplineSet
156 209 m 2,0,-1
 156 602 l 1,1,-1
 156 729 l 1,2,-1
 156 848 l 1,3,-1
 156 1233 l 2,4,5
 156 1236 156 1236 157 1241 c 128,-1,6
 158 1246 158 1246 158 1249 c 2,7,-1
 158 1278 l 2,8,9
 158 1280 158 1280 157.5 1285 c 128,-1,10
 157 1290 157 1290 157 1293 c 0,11,12
 157 1366 157 1366 203 1415 c 0,13,14
 255 1470 255 1470 336 1470 c 0,15,16
 352 1471 352 1471 382 1472.5 c 128,-1,17
 412 1474 412 1474 428 1475 c 0,18,19
 518 1478 518 1478 609 1478 c 0,20,21
 754 1478 754 1478 862 1460 c 0,22,23
 1055 1424 1055 1424 1186 1278 c 0,24,25
 1247 1212 1247 1212 1284 1116 c 0,26,27
 1319 1028 1319 1028 1319 920 c 0,28,29
 1313 737 1313 737 1198 598 c 0,30,31
 1088 469 1088 469 926 418 c 0,32,33
 824 389 824 389 729 389 c 2,34,-1
 657 389 l 2,35,36
 584 389 584 389 547 387 c 0,37,38
 489 387 489 387 459 350 c 0,39,40
 429 316 429 316 426 256 c 2,41,-1
 426 219 l 1,42,-1
 426 168 l 1,43,44
 418 99 418 99 395 61 c 0,45,46
 355 -2 355 -2 285 -2 c 0,47,48
 224 -2 224 -2 190 49 c 0,49,50
 160 91 160 91 160 135 c 0,51,52
 159 147 159 147 158 172 c 128,-1,53
 157 197 157 197 156 209 c 2,0,-1
426 774 m 2,54,55
 429 722 429 722 459 691 c 128,-1,56
 489 660 489 660 537 657 c 0,57,58
 597 655 597 655 636 655 c 0,59,60
 697 655 697 655 748 659 c 0,61,62
 907 668 907 668 995 784 c 0,63,64
 1047 852 1047 852 1047 928 c 2,65,-1
 1047 935 l 2,66,67
 1047 1004 1047 1004 997 1073 c 0,68,69
 963 1122 963 1122 918 1151 c 0,70,71
 865 1183 865 1183 811 1194 c 0,72,73
 746 1207 746 1207 662 1207 c 0,74,75
 614 1207 614 1207 567 1204 c 2,76,-1
 528 1204 l 2,77,78
 487 1203 487 1203 458 1172 c 128,-1,79
 429 1141 429 1141 426 1096 c 2,80,-1
 426 983 l 1,81,-1
 426 934 l 1,82,-1
 426 928 l 1,83,-1
 426 897 l 1,84,-1
 426 788 l 1,85,-1
 426 786 l 1,86,-1
 426 774 l 2,54,55
EndSplineSet
EndChar

StartChar: Q
Encoding: 81 81 52
Width: 1738
GlyphClass: 2
Flags: W
LayerCount: 2
Fore
SplineSet
112 730 m 0,0,1
 112 735 112 735 112.5 745 c 128,-1,2
 113 755 113 755 113 760 c 0,3,4
 128 1064 128 1064 328 1270 c 0,5,6
 415 1359 415 1359 527.5 1414.5 c 128,-1,7
 640 1470 640 1470 762 1485 c 0,8,9
 801 1489 801 1489 848 1489 c 0,10,11
 976 1489 976 1489 1096 1450 c 0,12,13
 1248 1401 1248 1401 1372 1292 c 0,14,15
 1489 1184 1489 1184 1552 1047 c 0,16,17
 1620 899 1620 899 1620 745 c 2,18,-1
 1620 735 l 2,19,20
 1620 406 1620 406 1380 182 c 0,21,22
 1360 162 1360 162 1348 154 c 0,23,24
 1333 139 1333 139 1325 133 c 0,25,26
 1301 111 1301 111 1301 86 c 0,27,28
 1301 80 1301 80 1305 68 c 0,29,30
 1318 26 1318 26 1362 20 c 0,31,32
 1373 18 1373 18 1392 18 c 0,33,34
 1422 18 1422 18 1452 29 c 0,35,36
 1469 38 1469 38 1475 39 c 0,37,38
 1488 44 1488 44 1511 54.5 c 128,-1,39
 1534 65 1534 65 1546 70 c 0,40,41
 1573 80 1573 80 1601 80 c 0,42,43
 1655 80 1655 80 1694 35 c 0,44,45
 1726 0 1726 0 1726 -42 c 0,46,47
 1726 -75 1726 -75 1706 -106 c 0,48,49
 1667 -166 1667 -166 1595 -207 c 0,50,51
 1514 -254 1514 -254 1401 -254 c 0,52,53
 1341 -254 1341 -254 1292 -244 c 0,54,55
 1202 -227 1202 -227 1085 -170 c 0,56,57
 1066 -161 1066 -161 1031.5 -143 c 128,-1,58
 997 -125 997 -125 981 -117 c 0,59,60
 832 -36 832 -36 692 0 c 0,61,62
 405 74 405 74 240 322 c 0,63,64
 112 510 112 510 112 730 c 0,0,1
383 735 m 0,65,66
 383 638 383 638 420 549 c 128,-1,67
 457 460 457 460 526 393 c 0,68,69
 595 325 595 325 682.5 288.5 c 128,-1,70
 770 252 770 252 864 252 c 2,71,-1
 868 252 l 1,72,-1
 883 252 l 2,73,74
 969 252 969 252 1055.5 288.5 c 128,-1,75
 1142 325 1142 325 1210 393 c 0,76,77
 1354 537 1354 537 1354 733 c 2,78,-1
 1354 746 l 2,79,80
 1354 834 1354 834 1319 918 c 0,81,82
 1281 1008 1281 1008 1212 1077 c 0,83,84
 1149 1143 1149 1143 1063 1182 c 0,85,86
 978 1221 978 1221 870 1221 c 2,87,-1
 868 1221 l 2,88,89
 666 1221 666 1221 526 1081 c 0,90,91
 383 938 383 938 383 735 c 0,65,66
EndSplineSet
EndChar

StartChar: R
Encoding: 82 82 53
Width: 1478
GlyphClass: 2
Flags: W
LayerCount: 2
Fore
SplineSet
157 165 m 0,0,1
 157 171 157 171 157.5 183.5 c 128,-1,2
 158 196 158 196 158 201 c 2,3,-1
 158 604 l 1,4,-1
 158 733 l 1,5,-1
 158 852 l 1,6,-1
 158 1245 l 1,7,-1
 158 1253 l 2,8,9
 158 1299 158 1299 160 1319 c 0,10,11
 166 1380 166 1380 205.5 1420.5 c 128,-1,12
 245 1461 245 1461 307 1470 c 1,13,-1
 311 1473 l 2,14,15
 315 1473 315 1473 323.5 1474 c 128,-1,16
 332 1475 332 1475 336 1475 c 0,17,18
 426 1475 426 1475 471 1477 c 2,19,-1
 585 1477 l 2,20,21
 710 1477 710 1477 819 1470 c 0,22,23
 1072 1449 1072 1449 1227 1241 c 0,24,25
 1319 1118 1319 1118 1319 961 c 2,26,-1
 1319 942 l 1,27,28
 1310 783 1310 783 1198 653 c 1,29,-1
 1174 629 l 2,30,31
 1149 604 1149 604 1139 590 c 0,32,33
 1111 551 1111 551 1111 520 c 0,34,35
 1111 490 1111 490 1139 451 c 0,36,37
 1246 311 1246 311 1272 279 c 2,38,-1
 1282 264 l 1,39,40
 1326 209 1326 209 1339 170 c 0,41,42
 1351 142 1351 142 1351 116 c 0,43,44
 1351 75 1351 75 1321 39 c 0,45,46
 1282 -6 1282 -6 1229 -6 c 0,47,48
 1194 -6 1194 -6 1161 14 c 0,49,50
 1120 38 1120 38 1073 94 c 0,51,52
 1011 175 1011 175 987 205 c 0,53,54
 904 313 904 313 889 332 c 0,55,56
 861 367 861 367 831 397 c 0,57,58
 770 455 770 455 692 455 c 2,59,-1
 618 455 l 1,60,-1
 547 455 l 1,61,62
 429 449 429 449 426 332 c 2,63,-1
 426 256 l 1,64,-1
 426 170 l 2,65,66
 425 138 425 138 422 118.5 c 128,-1,67
 419 99 419 99 406.5 73.5 c 128,-1,68
 394 48 394 48 371 29 c 0,69,70
 333 -4 333 -4 285 -4 c 0,71,72
 242 -4 242 -4 213 18 c 0,73,74
 199 27 199 27 182 51 c 0,75,76
 166 76 166 76 160 127 c 0,77,78
 157 147 157 147 157 165 c 0,0,1
426 924 m 2,79,80
 426 865 426 865 428 834 c 0,81,82
 428 790 428 790 459 756 c 1,83,84
 493 725 493 725 537 725 c 0,85,86
 607 723 607 723 657 723 c 0,87,88
 723 723 723 723 756 725 c 0,89,90
 918 734 918 734 1004 848 c 0,91,92
 1044 904 1044 904 1044 966 c 0,93,94
 1044 1033 1044 1033 997 1090 c 0,95,96
 925 1180 925 1180 819 1198 c 0,97,98
 742 1210 742 1210 650 1210 c 0,99,100
 602 1210 602 1210 528 1206 c 0,101,102
 484 1203 484 1203 457 1173 c 128,-1,103
 430 1143 430 1143 428 1096 c 0,104,105
 426 1067 426 1067 426 1006 c 2,106,-1
 426 965 l 1,107,-1
 426 924 l 2,79,80
EndSplineSet
EndChar

StartChar: S
Encoding: 83 83 54
Width: 1372
GlyphClass: 2
Flags: W
LayerCount: 2
Fore
SplineSet
137 1053 m 2,0,-1
 137 1061 l 2,1,2
 137 1209 137 1209 238 1319 c 0,3,4
 357 1455 357 1455 559 1485 c 0,5,6
 568 1486 568 1486 631 1491 c 2,7,-1
 670 1493 l 1,8,-1
 674 1493 l 1,9,-1
 676 1493 l 2,10,11
 869 1490 869 1490 1010 1409 c 0,12,13
 1100 1359 1100 1359 1145 1286 c 0,14,15
 1167 1252 1167 1252 1167 1215 c 0,16,17
 1167 1160 1167 1160 1116 1120 c 0,18,19
 1084 1094 1084 1094 1046 1094 c 0,20,21
 1020 1094 1020 1094 993 1106 c 0,22,23
 967 1116 967 1116 909 1153 c 0,24,25
 807 1222 807 1222 677 1222 c 0,26,27
 637 1222 637 1222 586 1214 c 0,28,29
 486 1199 486 1199 434 1120 c 0,30,31
 417 1094 417 1094 417 1067 c 0,32,33
 417 1039 417 1039 434 1012 c 0,34,35
 471 957 471 957 539 930 c 0,36,37
 607 901 607 901 733 872 c 0,38,39
 872 840 872 840 963 797 c 0,40,41
 1057 756 1057 756 1128 688 c 0,42,43
 1236 586 1236 586 1245 442 c 0,44,45
 1246 434 1246 434 1246 418 c 0,46,47
 1246 291 1246 291 1165 180 c 0,48,49
 1051 27 1051 27 850 -8 c 0,50,51
 772 -18 772 -18 713 -18 c 0,52,53
 485 -18 485 -18 293 109 c 0,54,55
 210 165 210 165 176 221 c 0,56,57
 150 260 150 260 150 298 c 0,58,59
 150 348 150 348 201 391 c 0,60,61
 235 419 235 419 272 419 c 0,62,63
 293 419 293 419 317 410 c 0,64,65
 351 396 351 396 377 379 c 0,66,67
 380 377 380 377 418 352 c 2,68,-1
 451 330 l 2,69,70
 573 252 573 252 715 252 c 0,71,72
 754 252 754 252 795 258 c 0,73,74
 886 273 886 273 938 340 c 0,75,76
 967 378 967 378 967 412 c 0,77,78
 967 445 967 445 938 483 c 0,79,80
 898 532 898 532 836 557 c 0,81,82
 772 586 772 586 643 616 c 0,83,84
 498 650 498 650 412 690 c 0,85,86
 325 730 325 730 258 791 c 0,87,88
 140 900 140 900 137 1053 c 2,0,-1
EndSplineSet
EndChar

StartChar: T
Encoding: 84 84 55
Width: 1402
GlyphClass: 2
Flags: W
LayerCount: 2
Fore
SplineSet
123 1343 m 1,0,1
 123 1397 123 1397 156 1430 c 0,2,3
 197 1471 197 1471 256 1477 c 0,4,5
 276 1479 276 1479 313 1479 c 2,6,-1
 324 1479 l 1,7,-1
 1081 1479 l 2,8,9
 1108 1479 1108 1479 1122 1477 c 2,10,-1
 1139 1477 l 2,11,12
 1172 1477 1172 1477 1206 1460 c 0,13,14
 1280 1418 1280 1418 1280 1350 c 2,15,-1
 1280 1341 l 2,16,17
 1277 1262 1277 1262 1196 1229 c 0,18,19
 1147 1210 1147 1210 1094 1210 c 2,20,-1
 963 1210 l 2,21,22
 910 1210 910 1210 874 1174.5 c 128,-1,23
 838 1139 838 1139 838 1085 c 2,24,-1
 838 1051 l 2,25,26
 838 1046 838 1046 837 1035.5 c 128,-1,27
 836 1025 836 1025 836 1020 c 2,28,-1
 836 795 l 1,29,-1
 836 215 l 2,30,31
 836 154 836 154 834 127 c 0,32,33
 828 61 828 61 782 23 c 0,34,35
 748 -4 748 -4 705 -4 c 0,36,37
 664 -4 664 -4 627 25 c 0,38,39
 584 58 584 58 578 123 c 0,40,41
 571 170 571 170 571 211 c 2,42,-1
 571 526 l 1,43,-1
 571 643 l 1,44,-1
 571 782 l 1,45,-1
 571 1024 l 1,46,-1
 571 1034 l 2,47,48
 571 1071 571 1071 569 1087 c 0,49,50
 566 1151 566 1151 537 1180 c 0,51,52
 503 1210 503 1210 442 1210 c 2,53,-1
 383 1210 l 1,54,-1
 297 1210 l 1,55,56
 206 1214 206 1214 158 1260 c 0,57,58
 127 1291 127 1291 123 1343 c 1,0,1
EndSplineSet
EndChar

StartChar: U
Encoding: 85 85 56
Width: 1550
GlyphClass: 2
Flags: W
LayerCount: 2
Fore
SplineSet
143 795 m 2,0,-1
 143 893 l 1,1,-1
 143 901 l 1,2,-1
 143 907 l 1,3,-1
 143 1006 l 1,4,-1
 143 1284 l 2,5,6
 143 1356 143 1356 158 1391 c 0,7,8
 194 1477 194 1477 276 1477 c 0,9,10
 363 1477 363 1477 399 1389 c 0,11,12
 414 1345 414 1345 414 1253 c 0,13,14
 413 1204 413 1204 413 1103 c 0,15,16
 413 1052 413 1052 413.5 949.5 c 128,-1,17
 414 847 414 847 414 797 c 2,18,-1
 414 643 l 1,19,-1
 414 627 l 1,20,-1
 414 592 l 2,21,22
 413 584 413 584 413 568 c 0,23,24
 413 455 413 455 489 373 c 0,25,26
 569 287 569 287 678 266 c 0,27,28
 730 254 730 254 781 254 c 0,29,30
 900 254 900 254 999 324 c 0,31,32
 1136 417 1136 417 1139 590 c 2,33,-1
 1139 737 l 1,34,-1
 1139 795 l 1,35,-1
 1139 950 l 1,36,-1
 1139 1282 l 1,37,-1
 1139 1296 l 2,38,39
 1139 1364 1139 1364 1149 1391 c 0,40,41
 1165 1435 1165 1435 1193 1456 c 128,-1,42
 1221 1477 1221 1477 1276 1477 c 0,43,44
 1369 1477 1369 1477 1399 1382 c 0,45,46
 1409 1353 1409 1353 1409 1282 c 2,47,-1
 1409 1268 l 1,48,-1
 1409 1106 l 2,49,50
 1407 936 1407 936 1407 851 c 0,51,52
 1407 764 1407 764 1409 600 c 0,53,54
 1409 472 1409 472 1374 377 c 0,55,56
 1332 271 1332 271 1274 205 c 0,57,58
 1157 64 1157 64 971 12 c 0,59,60
 856 -16 856 -16 758 -16 c 0,61,62
 489 -16 489 -16 291 188 c 0,63,64
 145 340 145 340 145 543 c 0,65,66
 143 627 143 627 143 795 c 2,0,-1
EndSplineSet
EndChar

StartChar: V
Encoding: 86 86 57
Width: 1630
GlyphClass: 2
Flags: W
LayerCount: 2
Fore
SplineSet
115 1347 m 0,0,1
 115 1388 115 1388 141 1425.5 c 128,-1,2
 167 1463 167 1463 205 1475 c 0,3,4
 219 1480 219 1480 241 1480 c 0,5,6
 285 1480 285 1480 317 1454 c 0,7,8
 358 1422 358 1422 391 1346 c 0,9,10
 396 1336 396 1336 397 1335 c 0,11,12
 420 1282 420 1282 466.5 1181 c 128,-1,13
 513 1080 513 1080 518 1069 c 0,14,15
 570 957 570 957 571 954 c 0,16,17
 579 937 579 937 594.5 903.5 c 128,-1,18
 610 870 610 870 618 854 c 0,19,20
 722 629 722 629 733 606 c 0,21,22
 733 604 733 604 737 596 c 0,23,24
 746 571 746 571 762 549 c 0,25,26
 785 516 785 516 815 516 c 0,27,28
 847 516 847 516 870 549 c 0,29,30
 886 576 886 576 893 596 c 2,31,-1
 899 608 l 2,32,33
 922 657 922 657 967.5 755.5 c 128,-1,34
 1013 854 1013 854 1036 903 c 0,35,36
 1139 1123 1139 1123 1221 1303 c 0,37,38
 1222 1305 1222 1305 1237 1335 c 128,-1,39
 1252 1365 1252 1365 1262 1382 c 0,40,41
 1286 1425 1286 1425 1321 1450 c 0,42,43
 1352 1477 1352 1477 1405 1477 c 0,44,45
 1440 1477 1440 1477 1468 1462 c 0,46,47
 1520 1428 1520 1428 1520 1361 c 0,48,49
 1520 1322 1520 1322 1501 1270 c 0,50,51
 1496 1254 1496 1254 1488.5 1237 c 128,-1,52
 1481 1220 1481 1220 1472 1200 c 128,-1,53
 1463 1180 1463 1180 1458 1169 c 1,54,-1
 1456 1167 l 1,55,56
 1273 773 1273 773 991 166 c 0,57,58
 991 164 991 164 987 156 c 0,59,60
 955 86 955 86 930 55 c 0,61,62
 873 -14 873 -14 815 -14 c 2,63,-1
 813 -14 l 2,64,65
 751 -14 751 -14 696 59 c 0,66,67
 666 102 666 102 651 137 c 0,68,69
 568 317 568 317 401.5 680 c 128,-1,70
 235 1043 235 1043 154 1219 c 0,71,72
 125 1282 125 1282 117 1325 c 0,73,74
 115 1339 115 1339 115 1347 c 0,0,1
EndSplineSet
EndChar

StartChar: W
Encoding: 87 87 58
Width: 2156
GlyphClass: 2
Flags: W
LayerCount: 2
Fore
SplineSet
127 1331 m 2,0,-1
 127 1337 l 2,1,2
 127 1417 127 1417 207 1462 c 0,3,4
 231 1475 231 1475 256 1475 c 0,5,6
 287 1475 287 1475 313 1458 c 0,7,8
 357 1429 357 1429 387 1356 c 0,9,10
 390 1349 390 1349 424 1249 c 0,11,12
 437 1208 437 1208 512 975 c 0,13,14
 546 864 546 864 584 750 c 0,15,16
 585 748 585 748 586 744.5 c 128,-1,17
 587 741 587 741 588 739 c 0,18,19
 603 694 603 694 606 688 c 0,20,21
 622 657 622 657 653 657 c 0,22,23
 684 654 684 654 700 686 c 0,24,25
 711 704 711 704 723 739 c 2,26,-1
 725 745 l 2,27,28
 741 789 741 789 774.5 886.5 c 128,-1,29
 808 984 808 984 827 1034 c 0,30,31
 831 1045 831 1045 864 1142.5 c 128,-1,32
 897 1240 897 1240 915 1290 c 0,33,34
 925 1320 925 1320 942 1360 c 0,35,36
 961 1406 961 1406 1008 1446 c 0,37,38
 1045 1474 1045 1474 1078 1474 c 1,39,-1
 1149 1446 l 1,40,41
 1204 1403 1204 1403 1231 1327 c 0,42,43
 1240 1302 1240 1302 1262.5 1233.5 c 128,-1,44
 1285 1165 1285 1165 1298 1130 c 2,45,-1
 1348 995 l 2,46,47
 1356 966 1356 966 1382 891 c 0,48,49
 1391 862 1391 862 1412 805 c 128,-1,50
 1433 748 1433 748 1436 739 c 0,51,52
 1436 738 1436 738 1437 736 c 128,-1,53
 1438 734 1438 734 1438 733 c 0,54,55
 1453 693 1453 693 1456 686 c 0,56,57
 1475 657 1475 657 1503 657 c 2,58,-1
 1505 657 l 2,59,60
 1536 657 1536 657 1552 686 c 0,61,62
 1564 711 1564 711 1571 737 c 0,63,64
 1572 739 1572 739 1573 743 c 128,-1,65
 1574 747 1574 747 1575 748 c 0,66,67
 1633 934 1633 934 1677 1065 c 0,68,69
 1746 1282 1746 1282 1747 1284 c 2,70,-1
 1749 1286 l 1,71,72
 1763 1334 1763 1334 1769 1348 c 0,73,74
 1783 1390 1783 1390 1815 1425 c 0,75,76
 1861 1471 1861 1471 1913 1471 c 0,77,78
 1936 1471 1936 1471 1960 1460 c 0,79,80
 1994 1444 1994 1444 2013 1409.5 c 128,-1,81
 2032 1375 2032 1375 2032 1331 c 2,82,-1
 2032 1322 l 2,83,84
 2032 1318 2032 1318 2032 1316 c 2,85,-1
 2032 1313 l 1,86,87
 2026 1271 2026 1271 2009 1225 c 0,88,89
 1834 671 1834 671 1665 147 c 0,90,91
 1640 64 1640 64 1585 18 c 0,92,93
 1550 -10 1550 -10 1511 -10 c 128,-1,94
 1472 -10 1472 -10 1436 20 c 0,95,96
 1382 65 1382 65 1356 147 c 0,97,98
 1348 169 1348 169 1319 251.5 c 128,-1,99
 1290 334 1290 334 1276 377 c 0,100,101
 1253 439 1253 439 1237 487 c 0,102,103
 1233 500 1233 500 1223.5 525 c 128,-1,104
 1214 550 1214 550 1210 563 c 2,105,-1
 1149 741 l 1,106,-1
 1147 748 l 2,107,108
 1136 778 1136 778 1126 795 c 0,109,110
 1110 823 1110 823 1079 823 c 0,111,112
 1047 823 1047 823 1030 793 c 1,113,-1
 1012 745 l 2,114,115
 1008 737 1008 737 1008 731 c 0,116,117
 994 693 994 693 970 623.5 c 128,-1,118
 946 554 946 554 936 526 c 0,119,120
 925 493 925 493 883 372.5 c 128,-1,121
 841 252 841 252 817 186 c 0,122,123
 813 178 813 178 813 170 c 0,124,125
 785 98 785 98 770 76 c 0,126,127
 715 -10 715 -10 647 -10 c 2,128,-1
 645 -10 l 2,129,130
 574 -10 574 -10 522 80 c 0,131,132
 503 114 503 114 492 156 c 0,133,134
 438 323 438 323 321.5 686.5 c 128,-1,135
 205 1050 205 1050 150 1219 c 0,136,137
 127 1295 127 1295 127 1331 c 2,0,-1
EndSplineSet
EndChar

StartChar: X
Encoding: 88 88 59
Width: 1570
GlyphClass: 2
Flags: W
LayerCount: 2
Fore
SplineSet
143 127 m 0,0,1
 143 152 143 152 156 184 c 0,2,3
 174 229 174 229 217 279 c 0,4,5
 313 396 313 396 360 451 c 0,6,7
 368 460 368 460 425 528 c 128,-1,8
 482 596 482 596 510 631 c 0,9,10
 536 661 536 661 555 688 c 0,11,12
 573 715 573 715 573 754 c 2,13,-1
 573 756 l 1,14,-1
 573 758 l 2,15,16
 573 800 573 800 532 848 c 0,17,18
 520 862 520 862 499 888 c 128,-1,19
 478 914 478 914 467 928 c 0,20,21
 448 951 448 951 411.5 995 c 128,-1,22
 375 1039 375 1039 358 1059 c 2,23,-1
 352 1067 l 1,24,25
 292 1138 292 1138 219 1231 c 0,26,27
 177 1286 177 1286 172 1341 c 1,28,-1
 172 1348 l 2,29,30
 172 1419 172 1419 229 1454 c 0,31,32
 259 1472 259 1472 292 1472 c 0,33,34
 323 1472 323 1472 348 1458 c 0,35,36
 378 1442 378 1442 403 1419 c 0,37,38
 434 1388 434 1388 469 1350 c 0,39,40
 587 1207 587 1207 610 1180 c 2,41,-1
 672 1106 l 2,42,43
 674 1102 674 1102 682 1094 c 0,44,45
 694 1076 694 1076 709 1061 c 0,46,47
 752 1018 752 1018 784 1018 c 2,48,-1
 786 1018 l 2,49,50
 821 1018 821 1018 862 1059 c 0,51,52
 877 1074 877 1074 897 1102 c 1,53,-1
 909 1114 l 1,54,-1
 989 1212 l 2,55,56
 1044 1275 1044 1275 1110 1358 c 1,57,58
 1169 1425 1169 1425 1206 1452 c 0,59,60
 1246 1478 1246 1478 1291 1478 c 0,61,62
 1343 1478 1343 1478 1378 1440 c 0,63,64
 1404 1409 1404 1409 1404 1358 c 0,65,66
 1404 1331 1404 1331 1397 1313 c 0,67,68
 1381 1262 1381 1262 1315 1180 c 0,69,70
 1289 1149 1289 1149 1236.5 1086.5 c 128,-1,71
 1184 1024 1184 1024 1159 993 c 0,72,73
 1145 977 1145 977 1114 938.5 c 128,-1,74
 1083 900 1083 900 1065 879 c 0,75,76
 1029 833 1029 833 1022 821 c 0,77,78
 999 786 999 786 999 753 c 0,79,80
 999 719 999 719 1022 684 c 0,81,82
 1042 655 1042 655 1069 625 c 1,83,-1
 1075 616 l 1,84,-1
 1192 475 l 2,85,86
 1215 446 1215 446 1263.5 388.5 c 128,-1,87
 1312 331 1312 331 1335 303 c 0,88,89
 1396 229 1396 229 1415 176 c 0,90,91
 1427 138 1427 138 1427 112 c 0,92,93
 1427 73 1427 73 1405 47 c 0,94,95
 1371 7 1371 7 1323 4 c 0,96,97
 1274 4 1274 4 1229 33 c 0,98,99
 1189 59 1189 59 1126 131 c 2,100,-1
 1104 158 l 2,101,102
 987 301 987 301 885 420 c 0,103,104
 860 453 860 453 836 471 c 0,105,106
 810 489 810 489 786 489 c 0,107,108
 759 489 759 489 735 469 c 0,109,110
 700 438 700 438 682 412 c 0,111,112
 647 371 647 371 573 285 c 0,113,114
 548 256 548 256 501.5 199.5 c 128,-1,115
 455 143 455 143 434 119 c 0,116,117
 386 59 386 59 344 31 c 0,118,119
 297 2 297 2 264 2 c 0,120,121
 230 2 230 2 193 31 c 0,122,123
 143 72 143 72 143 127 c 0,0,1
EndSplineSet
EndChar

StartChar: Y
Encoding: 89 89 60
Width: 1558
GlyphClass: 2
Flags: W
LayerCount: 2
Fore
SplineSet
119 1347 m 0,0,1
 119 1375 119 1375 131 1399 c 0,2,3
 158 1455 158 1455 211 1468 c 0,4,5
 223 1471 223 1471 236 1471 c 0,6,7
 276 1471 276 1471 313 1444 c 0,8,9
 357 1413 357 1413 410 1343 c 0,10,11
 524 1192 524 1192 602 1081 c 1,12,-1
 657 1008 l 2,13,14
 659 1005 659 1005 663.5 999.5 c 128,-1,15
 668 994 668 994 670 991 c 0,16,17
 695 956 695 956 700 950 c 0,18,19
 743 895 743 895 778 895 c 2,20,-1
 782 895 l 2,21,22
 824 895 824 895 866 952 c 0,23,24
 871 958 871 958 880.5 970.5 c 128,-1,25
 890 983 890 983 895 989 c 0,26,27
 897 991 897 991 900.5 997.5 c 128,-1,28
 904 1004 904 1004 905 1006 c 0,29,30
 928 1035 928 1035 1032 1180 c 0,31,32
 1144 1337 1144 1337 1153 1350 c 0,33,34
 1190 1404 1190 1404 1243 1446 c 0,35,36
 1281 1475 1281 1475 1324 1475 c 0,37,38
 1361 1475 1361 1475 1395 1452 c 0,39,40
 1443 1419 1443 1419 1443 1351 c 0,41,42
 1443 1327 1443 1327 1438 1305 c 0,43,44
 1424 1266 1424 1266 1378 1200 c 0,45,46
 1278 1065 1278 1065 1194 946 c 0,47,48
 1183 931 1183 931 1117 838 c 128,-1,49
 1051 745 1051 745 1016 698 c 0,50,51
 1014 696 1014 696 1011.5 692.5 c 128,-1,52
 1009 689 1009 689 1008 688 c 2,53,-1
 965 627 l 2,54,55
 918 554 918 554 918 465 c 2,56,-1
 918 240 l 1,57,-1
 918 170 l 2,58,59
 918 89 918 89 868 39 c 0,60,61
 827 -2 827 -2 784 -2 c 2,62,-1
 782 -2 l 2,63,64
 739 -2 739 -2 698 39 c 0,65,66
 652 88 652 88 649 170 c 2,67,-1
 649 184 l 1,68,-1
 649 186 l 1,69,-1
 649 322 l 1,70,-1
 649 348 l 1,71,-1
 649 377 l 2,72,73
 649 384 649 384 648.5 399 c 128,-1,74
 648 414 648 414 648 422 c 0,75,76
 648 436 648 436 649 444 c 128,-1,77
 650 452 650 452 650 467 c 0,78,79
 650 568 650 568 578 662 c 0,80,81
 527 729 527 729 446 840 c 0,82,83
 437 853 437 853 418.5 878 c 128,-1,84
 400 903 400 903 391 915 c 2,85,-1
 356 965 l 1,86,87
 250 1107 250 1107 188 1192 c 0,88,89
 148 1242 148 1242 131 1288 c 0,90,91
 119 1318 119 1318 119 1347 c 0,0,1
EndSplineSet
EndChar

StartChar: Z
Encoding: 90 90 61
Width: 1458
GlyphClass: 2
Flags: W
LayerCount: 2
Fore
SplineSet
158 140 m 0,0,1
 158 156 158 156 164 174 c 0,2,3
 182 233 182 233 231 297 c 0,4,5
 335 440 335 440 444 586 c 0,6,7
 472 625 472 625 522 690 c 2,8,-1
 563 745 l 2,9,10
 598 793 598 793 678 901 c 128,-1,11
 758 1009 758 1009 801 1067 c 0,12,13
 802 1069 802 1069 805 1072 c 128,-1,14
 808 1075 808 1075 809 1077 c 0,15,16
 811 1080 811 1080 816 1086.5 c 128,-1,17
 821 1093 821 1093 823 1096 c 0,18,19
 853 1130 853 1130 853 1158 c 0,20,21
 853 1167 853 1167 850 1176 c 0,22,23
 839 1208 839 1208 776 1208 c 2,24,-1
 772 1208 l 1,25,-1
 768 1208 l 1,26,-1
 731 1208 l 1,27,-1
 719 1208 l 1,28,-1
 637 1208 l 1,29,-1
 381 1208 l 2,30,31
 369 1208 369 1208 350 1209.5 c 128,-1,32
 331 1211 331 1211 288 1224.5 c 128,-1,33
 245 1238 245 1238 221 1262 c 0,34,35
 190 1293 190 1293 190 1335 c 0,36,37
 190 1403 190 1403 244 1442 c 0,38,39
 274 1463 274 1463 334 1475 c 0,40,41
 352 1477 352 1477 393 1477 c 2,42,-1
 399 1477 l 1,43,-1
 1090 1477 l 1,44,-1
 1100 1477 l 2,45,46
 1143 1477 1143 1477 1163 1473 c 0,47,48
 1246 1457 1246 1457 1276 1395 c 0,49,50
 1290 1365 1290 1365 1290 1335 c 0,51,52
 1290 1298 1290 1298 1270 1260 c 0,53,54
 1254 1227 1254 1227 1194 1145 c 1,55,-1
 1192 1143 l 1,56,57
 1120 1043 1120 1043 981 856.5 c 128,-1,58
 842 670 842 670 782 588 c 0,59,60
 761 559 761 559 718 501 c 128,-1,61
 675 443 675 443 653 414 c 0,62,63
 634 386 634 386 629 373 c 0,64,65
 620 349 620 349 620 332 c 0,66,67
 620 319 620 319 625 309 c 0,68,69
 646 268 646 268 741 268 c 2,70,-1
 911 268 l 1,71,-1
 1085 268 l 2,72,73
 1116 268 1116 268 1174 264 c 0,74,75
 1248 255 1248 255 1284 211 c 0,76,77
 1306 183 1306 183 1306 136 c 0,78,79
 1306 84 1306 84 1280 53 c 0,80,81
 1246 9 1246 9 1169 6 c 1,82,-1
 1159 4 l 1,83,84
 1113 0 1113 0 1090 0 c 2,85,-1
 825 0 l 1,86,-1
 729 0 l 1,87,-1
 635 0 l 1,88,-1
 539 0 l 1,89,-1
 373 0 l 2,90,91
 343 0 343 0 285 8 c 0,92,93
 216 17 216 17 176 84 c 0,94,95
 158 110 158 110 158 140 c 0,0,1
EndSplineSet
EndChar

StartChar: bracketleft
Encoding: 91 91 62
Width: 845
GlyphClass: 2
Flags: W
LayerCount: 2
Fore
SplineSet
156 221 m 2,0,-1
 156 612 l 1,1,-1
 156 739 l 1,2,-1
 156 874 l 1,3,-1
 156 1257 l 2,4,5
 156 1314 156 1314 168 1354 c 0,6,7
 198 1443 198 1443 285 1464 c 0,8,9
 329 1477 329 1477 356 1477 c 0,10,11
 388 1478 388 1478 450 1478 c 0,12,13
 511 1478 511 1478 541 1477 c 0,14,15
 632 1477 632 1477 684 1423 c 0,16,17
 721 1383 721 1383 721 1339 c 0,18,19
 721 1299 721 1299 682 1257 c 1,20,21
 638 1216 638 1216 580 1210 c 1,22,-1
 557 1210 l 2,23,24
 538 1210 538 1210 528 1208 c 0,25,26
 488 1203 488 1203 459 1174 c 128,-1,27
 430 1145 430 1145 426 1104 c 0,28,29
 424 1094 424 1094 424 1069 c 2,30,-1
 424 1061 l 1,31,-1
 424 412 l 1,32,-1
 424 403 l 2,33,34
 424 385 424 385 426 375 c 0,35,36
 430 331 430 331 459.5 301 c 128,-1,37
 489 271 489 271 532 266 c 1,38,-1
 553 266 l 1,39,40
 594 262 594 262 612 256 c 0,41,42
 658 239 658 239 687.5 205 c 128,-1,43
 717 171 717 171 717 135 c 2,44,-1
 717 132 l 2,45,46
 717 93 717 93 686.5 58 c 128,-1,47
 656 23 656 23 610 8 c 0,48,49
 572 -4 572 -4 449 -4 c 0,50,51
 314 -4 314 -4 279 10 c 0,52,53
 193 38 193 38 166 125 c 0,54,55
 156 158 156 158 156 221 c 2,0,-1
EndSplineSet
EndChar

StartChar: backslash
Encoding: 92 92 63
Width: 1241
GlyphClass: 2
Flags: W
LayerCount: 2
Fore
SplineSet
159 1409 m 0,0,1
 159 1432 159 1432 166 1450 c 0,2,3
 185 1505 185 1505 233 1528 c 0,4,5
 260 1540 260 1540 291 1540 c 0,6,7
 313 1540 313 1540 334 1534 c 0,8,9
 388 1515 388 1515 412 1466 c 2,10,-1
 1073 131 l 2,11,12
 1087 101 1087 101 1087 73 c 0,13,14
 1087 36 1087 36 1067 3.5 c 128,-1,15
 1047 -29 1047 -29 1012 -47 c 0,16,17
 980 -61 980 -61 954 -61 c 0,18,19
 939 -61 939 -61 911 -53 c 0,20,21
 859 -38 859 -38 834 14 c 2,22,-1
 172 1348 l 2,23,24
 159 1375 159 1375 159 1409 c 0,0,1
EndSplineSet
EndChar

StartChar: bracketright
Encoding: 93 93 64
Width: 854
GlyphClass: 2
Flags: W
LayerCount: 2
Fore
SplineSet
135 1339 m 0,0,1
 135 1383 135 1383 172 1423 c 0,2,3
 224 1477 224 1477 315 1477 c 0,4,5
 345 1478 345 1478 406 1478 c 0,6,7
 468 1478 468 1478 500 1477 c 0,8,9
 527 1477 527 1477 571 1464 c 0,10,11
 658 1443 658 1443 688 1354 c 0,12,13
 700 1314 700 1314 700 1257 c 2,14,-1
 700 874 l 1,15,-1
 700 739 l 1,16,-1
 700 612 l 1,17,-1
 700 221 l 2,18,19
 700 158 700 158 690 125 c 0,20,21
 662 38 662 38 578 10 c 0,22,23
 543 -4 543 -4 408 -4 c 0,24,25
 284 -4 284 -4 246 8 c 0,26,27
 200 23 200 23 169.5 58 c 128,-1,28
 139 93 139 93 139 132 c 2,29,-1
 139 135 l 2,30,31
 139 171 139 171 168.5 205 c 128,-1,32
 198 239 198 239 244 256 c 0,33,34
 262 262 262 262 303 266 c 1,35,-1
 324 266 l 1,36,37
 367 271 367 271 396.5 301 c 128,-1,38
 426 331 426 331 430 375 c 0,39,40
 432 385 432 385 432 403 c 2,41,-1
 432 412 l 1,42,-1
 432 1061 l 1,43,-1
 432 1069 l 2,44,45
 432 1094 432 1094 430 1104 c 0,46,47
 426 1145 426 1145 397 1174 c 128,-1,48
 368 1203 368 1203 328 1208 c 0,49,50
 318 1210 318 1210 299 1210 c 2,51,-1
 276 1210 l 1,52,53
 218 1216 218 1216 174 1257 c 1,54,55
 135 1299 135 1299 135 1339 c 0,0,1
EndSplineSet
EndChar

StartChar: asciicircum
Encoding: 94 94 65
Width: 1202
GlyphClass: 2
Flags: W
LayerCount: 2
Fore
SplineSet
145 865 m 2,0,-1
 145 877 l 2,1,2
 145 907 145 907 158 936 c 0,3,4
 172 974 172 974 197 1016 c 0,5,6
 226 1067 226 1067 287 1170.5 c 128,-1,7
 348 1274 348 1274 377 1325 c 0,8,9
 381 1331 381 1331 401 1365.5 c 128,-1,10
 421 1400 421 1400 432 1419 c 0,11,12
 478 1497 478 1497 520 1528 c 0,13,14
 564 1563 564 1563 603 1563 c 128,-1,15
 642 1563 642 1563 686 1528 c 0,16,17
 736 1485 736 1485 758 1442 c 2,18,-1
 803 1366 l 2,19,20
 832 1317 832 1317 906.5 1190 c 128,-1,21
 981 1063 981 1063 1022 995 c 0,22,23
 1061 923 1061 923 1061 879 c 0,24,25
 1061 805 1061 805 991 762 c 0,26,27
 965 748 965 748 939 748 c 0,28,29
 901 748 901 748 866 776 c 0,30,31
 818 812 818 812 784 870 c 0,32,33
 781 875 781 875 774 886.5 c 128,-1,34
 767 898 767 898 764 903 c 0,35,36
 755 918 755 918 739 946 c 128,-1,37
 723 974 723 974 709 997 c 128,-1,38
 695 1020 695 1020 682 1040 c 0,39,40
 663 1073 663 1073 649 1085 c 0,41,42
 627 1105 627 1105 603 1105 c 0,43,44
 577 1105 577 1105 555 1083 c 0,45,46
 541 1071 541 1071 518 1034 c 1,47,-1
 518 1032 l 1,48,49
 508 1015 508 1015 487.5 981.5 c 128,-1,50
 467 948 467 948 457 932 c 0,51,52
 435 891 435 891 418 862 c 0,53,54
 386 810 386 810 340 774 c 0,55,56
 296 743 296 743 264 743 c 0,57,58
 241 743 241 743 217 758 c 0,59,60
 145 799 145 799 145 865 c 2,0,-1
EndSplineSet
EndChar

StartChar: underscore
Encoding: 95 95 66
Width: 1267
GlyphClass: 2
Flags: W
LayerCount: 2
Fore
SplineSet
133 2 m 128,-1,1
 133 58 133 58 171.5 96.5 c 128,-1,2
 210 135 210 135 266 135 c 2,3,-1
 1004 135 l 2,4,5
 1060 135 1060 135 1098.5 96.5 c 128,-1,6
 1137 58 1137 58 1137 2 c 128,-1,7
 1137 -54 1137 -54 1098.5 -92.5 c 128,-1,8
 1060 -131 1060 -131 1004 -131 c 2,9,-1
 266 -131 l 2,10,11
 210 -131 210 -131 171.5 -92.5 c 128,-1,0
 133 -54 133 -54 133 2 c 128,-1,1
EndSplineSet
EndChar

StartChar: a
Encoding: 97 97 67
Width: 1646
GlyphClass: 2
Flags: W
LayerCount: 2
Fore
SplineSet
125 109 m 0,0,1
 123 117 123 117 123.5 126 c 128,-1,2
 124 135 124 135 125 145 c 0,3,4
 136 196 136 196 154 236 c 2,5,-1
 172 274 l 2,6,7
 188 308 188 308 219 376.5 c 128,-1,8
 250 445 250 445 266 479 c 0,9,10
 560 1100 560 1100 645 1288 c 0,11,12
 649 1298 649 1298 653 1305.5 c 128,-1,13
 657 1313 657 1313 659 1317 c 128,-1,14
 661 1321 661 1321 662 1323 c 0,15,16
 673 1347 673 1347 680 1360.5 c 128,-1,17
 687 1374 687 1374 703.5 1398.5 c 128,-1,18
 720 1423 720 1423 736 1437.5 c 128,-1,19
 752 1452 752 1452 777 1463.5 c 128,-1,20
 802 1475 802 1475 829 1475 c 0,21,22
 922 1475 922 1475 993 1323 c 2,23,-1
 1016 1274 l 1,24,25
 1344 565 1344 565 1479 279 c 0,26,27
 1507 217 1507 217 1520 170 c 0,28,29
 1526 150 1526 150 1526 126 c 0,30,31
 1526 67 1526 67 1479 25 c 0,32,33
 1442 -4 1442 -4 1399 -4 c 2,34,-1
 1384 -4 l 1,35,36
 1329 2 1329 2 1300 43 c 2,37,-1
 1296 49 l 1,38,39
 1256 123 1256 123 1225 184 c 0,40,41
 1170 297 1170 297 1047 297 c 0,42,43
 918 294 918 294 788 294 c 0,44,45
 666 294 666 294 606 295 c 2,46,-1
 595 295 l 2,47,48
 540 295 540 295 496 268 c 0,49,50
 449 236 449 236 424 178 c 0,51,52
 417 165 417 165 405 141.5 c 128,-1,53
 393 118 393 118 387 106 c 0,54,55
 359 52 359 52 330 27 c 0,56,57
 292 -4 292 -4 250 -4 c 0,58,59
 200 -4 200 -4 158 43 c 0,60,61
 138 65 138 65 131 86 c 0,62,63
 125 101 125 101 125 109 c 0,0,1
650 640 m 0,64,65
 650 620 650 620 659 604 c 0,66,67
 679 571 679 571 729 565 c 2,68,-1
 823 561 l 2,69,70
 895 561 895 561 932 567 c 0,71,72
 973 573 973 573 993 606 c 0,73,74
 1002 622 1002 622 1002 643 c 0,75,76
 1002 662 1002 662 993 682 c 0,77,78
 982 704 982 704 958 759 c 128,-1,79
 934 814 934 814 920 842 c 0,80,81
 916 851 916 851 895 893 c 0,82,83
 887 914 887 914 879 924 c 0,84,85
 857 952 857 952 827 952 c 2,86,-1
 825 952 l 2,87,88
 797 952 797 952 774 922 c 0,89,90
 769 916 769 916 763 904.5 c 128,-1,91
 757 893 757 893 756 891 c 0,92,93
 755 887 755 887 733 844 c 0,94,95
 669 701 669 701 662 686 c 0,96,97
 650 659 650 659 650 640 c 0,64,65
EndSplineSet
EndChar

StartChar: b
Encoding: 98 98 68
Width: 1462
GlyphClass: 2
Flags: W
LayerCount: 2
Fore
SplineSet
156 223 m 2,0,-1
 156 233 l 1,1,-1
 156 420 l 1,2,-1
 156 487 l 1,3,-1
 156 737 l 1,4,-1
 156 870 l 1,5,-1
 156 1241 l 1,6,-1
 156 1249 l 2,7,8
 156 1298 156 1298 158 1321 c 0,9,10
 166 1384 166 1384 207 1427 c 128,-1,11
 248 1470 248 1470 311 1477 c 1,12,-1
 326 1477 l 2,13,14
 355 1477 355 1477 395 1478 c 128,-1,15
 435 1479 435 1479 449 1479 c 2,16,-1
 538 1479 l 2,17,18
 606 1479 606 1479 659 1477 c 0,19,20
 773 1471 773 1471 856 1438 c 0,21,22
 959 1400 959 1400 1024 1329 c 0,23,24
 1133 1214 1133 1214 1133 1066 c 0,25,26
 1133 987 1133 987 1104 909 c 0,27,28
 1099 892 1099 892 1099 880 c 0,29,30
 1099 858 1099 858 1112.5 835 c 128,-1,31
 1126 812 1126 812 1137 800.5 c 128,-1,32
 1148 789 1148 789 1180 758 c 1,33,34
 1215 730 1215 730 1253 682 c 0,35,36
 1322 592 1322 592 1339 508 c 0,37,38
 1348 461 1348 461 1348 430 c 0,39,40
 1348 347 1348 347 1313 268 c 0,41,42
 1259 148 1259 148 1153 80 c 0,43,44
 1109 50 1109 50 1016.5 23 c 128,-1,45
 924 -4 924 -4 827 -4 c 2,46,-1
 711 -4 l 1,47,-1
 375 -4 l 1,48,-1
 373 -4 l 2,49,50
 328 -4 328 -4 287 8 c 0,51,52
 232 23 232 23 198 63 c 128,-1,53
 164 103 164 103 158 160 c 0,54,55
 156 180 156 180 156 223 c 2,0,-1
421 431 m 0,56,57
 421 406 421 406 422 393 c 0,58,59
 428 267 428 267 553 264 c 2,60,-1
 679 264 l 2,61,62
 774 264 774 264 823 266 c 0,63,64
 854 266 854 266 936 281 c 0,65,66
 991 293 991 293 1036 344 c 0,67,68
 1071 385 1071 385 1071 434 c 0,69,70
 1071 476 1071 476 1042 516 c 0,71,72
 983 602 983 602 877 608 c 1,73,-1
 557 612 l 1,74,-1
 555 612 l 1,75,-1
 553 612 l 1,76,-1
 532 612 l 2,77,78
 486 609 486 609 457.5 581.5 c 128,-1,79
 429 554 429 554 424 510 c 0,80,81
 421 435 421 435 421 431 c 0,56,57
421 1038 m 0,82,83
 421 1017 421 1017 422 1006 c 0,84,85
 425 950 425 950 457 913 c 1,86,87
 494 881 494 881 549 881 c 0,88,89
 627 877 627 877 659 877 c 0,90,91
 713 877 713 877 772 893 c 0,92,93
 861 918 861 918 883 995 c 0,94,95
 887 1008 887 1008 887 1026 c 0,96,97
 887 1086 887 1086 836 1137 c 0,98,99
 774 1202 774 1202 672 1208 c 1,100,-1
 635 1208 l 2,101,102
 615 1210 615 1210 592 1210 c 2,103,-1
 541 1210 l 1,104,-1
 532 1210 l 2,105,106
 488 1208 488 1208 458 1180 c 128,-1,107
 428 1152 428 1152 424 1106 c 0,108,109
 421 1046 421 1046 421 1038 c 0,82,83
EndSplineSet
EndChar

StartChar: c
Encoding: 99 99 69
Width: 1548
GlyphClass: 2
Flags: W
LayerCount: 2
Fore
SplineSet
113 737 m 0,0,1
 113 890 113 890 174 1032 c 0,2,3
 245 1201 245 1201 385 1319 c 0,4,5
 531 1438 531 1438 721 1479 c 0,6,7
 790 1493 790 1493 844 1493 c 0,8,9
 1112 1493 1112 1493 1309 1350 c 0,10,11
 1370 1307 1370 1307 1397 1262 c 0,12,13
 1423 1219 1423 1219 1423 1183 c 0,14,15
 1423 1144 1423 1144 1395 1112 c 0,16,17
 1352 1062 1352 1062 1303 1062 c 0,18,19
 1280 1062 1280 1062 1249 1073 c 0,20,21
 1234 1079 1234 1079 1159 1126 c 0,22,23
 1155 1128 1155 1128 1135 1143 c 0,24,25
 1011 1223 1011 1223 863 1223 c 2,26,-1
 842 1223 l 1,27,28
 666 1217 666 1217 528 1079 c 0,29,30
 394 945 394 945 385 766 c 0,31,32
 384 756 384 756 384 736 c 0,33,34
 384 559 384 559 504 422 c 0,35,36
 570 346 570 346 659.5 302 c 128,-1,37
 749 258 749 258 850 252 c 0,38,39
 859 251 859 251 876 251 c 0,40,41
 996 251 996 251 1124 326 c 0,42,43
 1131 331 1131 331 1146.5 341 c 128,-1,44
 1162 351 1162 351 1169 356 c 0,45,46
 1177 361 1177 361 1191 371 c 128,-1,47
 1205 381 1205 381 1208 383 c 0,48,49
 1257 408 1257 408 1278 412 c 0,50,51
 1287 414 1287 414 1304 414 c 0,52,53
 1362 414 1362 414 1405 356 c 0,54,55
 1427 328 1427 328 1427 295 c 0,56,57
 1427 264 1427 264 1409 231 c 0,58,59
 1385 188 1385 188 1325 137 c 0,60,61
 1198 34 1198 34 1020 -2 c 0,62,63
 938 -18 938 -18 866 -18 c 0,64,65
 709 -18 709 -18 569 43 c 0,66,67
 358 136 358 136 233 332 c 0,68,69
 127 497 127 497 115 686 c 0,70,71
 113 720 113 720 113 737 c 0,0,1
EndSplineSet
EndChar

StartChar: d
Encoding: 100 100 70
Width: 1570
GlyphClass: 2
Flags: W
LayerCount: 2
Fore
SplineSet
162 238 m 2,0,-1
 162 258 l 1,1,-1
 162 608 l 1,2,-1
 162 741 l 1,3,-1
 162 846 l 1,4,-1
 162 1245 l 1,5,-1
 162 1257 l 2,6,7
 162 1293 162 1293 164 1311 c 0,8,9
 168 1382 168 1382 214 1427 c 128,-1,10
 260 1472 260 1472 330 1477 c 0,11,12
 346 1479 346 1479 375 1479 c 2,13,-1
 389 1479 l 1,14,-1
 510 1479 l 2,15,16
 592 1477 592 1477 635 1477 c 128,-1,17
 678 1477 678 1477 762 1479 c 2,18,-1
 776 1479 l 2,19,20
 1113 1479 1113 1479 1315 1194 c 0,21,22
 1399 1077 1399 1077 1434 936 c 0,23,24
 1459 842 1459 842 1459 741 c 0,25,26
 1459 703 1459 703 1454 653 c 0,27,28
 1439 506 1439 506 1373.5 378 c 128,-1,29
 1308 250 1308 250 1200 156 c 0,30,31
 1022 4 1022 4 788 -2 c 0,32,33
 731 -4 731 -4 614 -4 c 0,34,35
 510 -4 510 -4 459 -2 c 2,36,-1
 365 -2 l 2,37,38
 327 -2 327 -2 297 8 c 0,39,40
 240 22 240 22 204 63 c 128,-1,41
 168 104 168 104 164 162 c 0,42,43
 162 189 162 189 162 238 c 2,0,-1
430 410 m 2,44,45
 430 347 430 347 471 305.5 c 128,-1,46
 512 264 512 264 555 264 c 2,47,-1
 602 264 l 2,48,49
 707 264 707 264 760 266 c 0,50,51
 936 272 936 272 1044 383 c 0,52,53
 1112 451 1112 451 1150 544 c 128,-1,54
 1188 637 1188 637 1188 737 c 2,55,-1
 1188 752 l 2,56,57
 1185 858 1185 858 1143 952 c 128,-1,58
 1101 1046 1101 1046 1028 1112 c 0,59,60
 924 1202 924 1202 801 1208 c 0,61,62
 725 1210 725 1210 680 1210 c 0,63,64
 641 1210 641 1210 539 1208 c 0,65,66
 493 1206 493 1206 463 1176.5 c 128,-1,67
 433 1147 433 1147 432 1098 c 0,68,69
 430 1088 430 1088 430 1067 c 2,70,-1
 430 1055 l 2,71,72
 430 1029 430 1029 430.5 974.5 c 128,-1,73
 431 920 431 920 431 893 c 0,74,75
 431 840 431 840 430 813 c 2,76,-1
 430 768 l 1,77,-1
 430 748 l 1,78,-1
 430 721 l 1,79,-1
 430 553 l 1,80,-1
 430 410 l 2,44,45
EndSplineSet
EndChar

StartChar: e
Encoding: 101 101 71
Width: 1306
GlyphClass: 2
Flags: W
LayerCount: 2
Fore
SplineSet
156 209 m 2,0,-1
 156 1071 l 1,1,-1
 156 1270 l 2,2,3
 156 1310 156 1310 164 1337 c 0,4,5
 179 1401 179 1401 222 1437.5 c 128,-1,6
 265 1474 265 1474 330 1477 c 0,7,8
 371 1479 371 1479 453 1479 c 2,9,-1
 506 1479 l 1,10,-1
 637 1479 l 1,11,-1
 670 1479 l 1,12,-1
 702 1479 l 1,13,-1
 793 1479 l 1,14,-1
 1032 1479 l 2,15,16
 1114 1479 1114 1479 1167 1432 c 1,17,-1
 1167 1430 l 1,18,19
 1200 1394 1200 1394 1200 1341 c 0,20,21
 1200 1305 1200 1305 1184 1274 c 0,22,23
 1145 1210 1145 1210 1034 1210 c 2,24,-1
 942 1210 l 1,25,-1
 858 1210 l 1,26,-1
 764 1210 l 2,27,28
 623 1210 623 1210 551 1208 c 0,29,30
 492 1208 492 1208 459.5 1176.5 c 128,-1,31
 427 1145 427 1145 426 1085 c 2,32,-1
 426 1049 l 2,33,34
 426 1018 426 1018 424 1004 c 0,35,36
 424 958 424 958 459 920 c 0,37,38
 500 879 500 879 553 879 c 0,39,40
 619 881 619 881 750 881 c 0,41,42
 762 881 762 881 786 880 c 128,-1,43
 810 879 810 879 823 879 c 0,44,45
 879 879 879 879 913 866 c 0,46,47
 951 849 951 849 970 817 c 128,-1,48
 989 785 989 785 989 751 c 2,49,-1
 989 745 l 2,50,51
 989 707 989 707 966 672.5 c 128,-1,52
 943 638 943 638 901 625 c 0,53,54
 849 612 849 612 812 612 c 2,55,-1
 797 612 l 1,56,-1
 557 612 l 2,57,58
 490 611 490 611 459 579 c 128,-1,59
 428 547 428 547 426 479 c 0,60,61
 425 475 425 475 425 469 c 128,-1,62
 425 463 425 463 425.5 456 c 128,-1,63
 426 449 426 449 426 446 c 0,64,65
 426 413 426 413 424 397 c 2,66,-1
 424 389 l 2,67,68
 424 341 424 341 455 307 c 0,69,70
 498 264 498 264 559 264 c 2,71,-1
 764 264 l 1,72,-1
 989 264 l 1,73,-1
 1001 264 l 2,74,75
 1039 264 1039 264 1057 262 c 0,76,77
 1138 256 1138 256 1174 197 c 0,78,79
 1189 168 1189 168 1189 132 c 0,80,81
 1189 100 1189 100 1176 70 c 0,82,83
 1149 23 1149 23 1081 6 c 0,84,85
 1033 -4 1033 -4 987 -4 c 2,86,-1
 985 -4 l 1,87,-1
 387 -4 l 2,88,89
 332 -4 332 -4 291 6 c 0,90,91
 190 36 190 36 164 135 c 0,92,93
 156 168 156 168 156 209 c 2,0,-1
EndSplineSet
EndChar

StartChar: f
Encoding: 102 102 72
Width: 1253
GlyphClass: 2
Flags: W
LayerCount: 2
Fore
SplineSet
154 569 m 2,0,-1
 154 743 l 1,1,-1
 154 1233 l 2,2,3
 154 1236 154 1236 155 1243 c 128,-1,4
 156 1250 156 1250 156 1253 c 2,5,-1
 156 1290 l 2,6,7
 156 1292 156 1292 155.5 1294 c 128,-1,8
 155 1296 155 1296 155 1298 c 0,9,10
 155 1369 155 1369 205 1419 c 0,11,12
 260 1477 260 1477 342 1477 c 0,13,14
 401 1476 401 1476 510 1476 c 0,15,16
 562 1476 562 1476 669 1476.5 c 128,-1,17
 776 1477 776 1477 836 1477 c 2,18,-1
 950 1477 l 1,19,-1
 989 1477 l 2,20,21
 1082 1477 1082 1477 1126 1421 c 1,22,23
 1152 1378 1152 1378 1152 1340 c 128,-1,24
 1152 1302 1152 1302 1130 1270 c 0,25,26
 1093 1217 1093 1217 1001 1208 c 0,27,28
 980 1205 980 1205 956 1208 c 2,29,-1
 944 1208 l 1,30,-1
 748 1208 l 1,31,-1
 582 1208 l 1,32,-1
 569 1208 l 2,33,34
 542 1208 542 1208 530 1206 c 0,35,36
 486 1203 486 1203 456.5 1174.5 c 128,-1,37
 427 1146 427 1146 424 1102 c 2,38,-1
 424 1018 l 1,39,-1
 424 999 l 2,40,41
 426 928 426 928 457.5 895.5 c 128,-1,42
 489 863 489 863 559 862 c 2,43,-1
 715 862 l 1,44,-1
 758 862 l 1,45,-1
 770 862 l 2,46,47
 803 862 803 862 817 860 c 0,48,49
 902 853 902 853 936 797 c 0,50,51
 954 764 954 764 954 725 c 0,52,53
 954 688 954 688 936 659 c 0,54,55
 893 594 893 594 788 594 c 0,56,57
 734 592 734 592 729 592 c 128,-1,58
 724 592 724 592 672 594 c 2,59,-1
 602 594 l 1,60,-1
 584 594 l 2,61,62
 553 594 553 594 537 592 c 0,63,64
 486 590 486 590 456 560 c 128,-1,65
 426 530 426 530 424 479 c 0,66,67
 423 451 423 451 423 389 c 0,68,69
 423 357 423 357 423.5 294 c 128,-1,70
 424 231 424 231 424 203 c 2,71,-1
 424 197 l 2,72,73
 424 83 424 83 385 35 c 0,74,75
 352 -4 352 -4 291 -4 c 0,76,77
 225 -4 225 -4 193 33 c 0,78,79
 156 79 156 79 156 190 c 0,80,81
 154 309 154 309 154 569 c 2,0,-1
EndSplineSet
EndChar

StartChar: g
Encoding: 103 103 73
Width: 1703
GlyphClass: 2
Flags: W
LayerCount: 2
Fore
SplineSet
116 738 m 0,0,1
 116 808 116 808 127 868 c 0,2,3
 154 1016 154 1016 238 1147 c 0,4,5
 323 1278 323 1278 450.5 1364.5 c 128,-1,6
 578 1451 578 1451 727 1479 c 0,7,8
 802 1492 802 1492 879 1492 c 0,9,10
 938 1492 938 1492 997 1483 c 0,11,12
 1127 1462 1127 1462 1253 1393 c 1,13,14
 1327 1347 1327 1347 1364 1294 c 0,15,16
 1392 1256 1392 1256 1392 1216 c 0,17,18
 1392 1161 1392 1161 1337 1118 c 0,19,20
 1306 1094 1306 1094 1270 1094 c 0,21,22
 1251 1094 1251 1094 1227 1102 c 0,23,24
 1191 1114 1191 1114 1128 1151 c 0,25,26
 1012 1223 1012 1223 870 1223 c 2,27,-1
 846 1223 l 1,28,29
 689 1217 689 1217 557 1104 c 0,30,31
 425 988 425 988 395 834 c 0,32,33
 386 788 386 788 386 739 c 0,34,35
 386 588 386 588 475 461 c 0,36,37
 536 378 536 378 618 326 c 0,38,39
 700 271 700 271 799 258 c 0,40,41
 841 253 841 253 872 253 c 0,42,43
 964 253 964 253 1044 287 c 0,44,45
 1155 333 1155 333 1237 444 c 0,46,47
 1273 492 1273 492 1273 529 c 0,48,49
 1273 546 1273 546 1266 559 c 0,50,51
 1249 595 1249 595 1199 595 c 0,52,53
 1195 595 1195 595 1185.5 594.5 c 128,-1,54
 1176 594 1176 594 1171 594 c 2,55,-1
 1161 594 l 2,56,57
 1099 592 1099 592 1068 592 c 128,-1,58
 1037 592 1037 592 977 594 c 2,59,-1
 971 594 l 2,60,61
 879 594 879 594 829 653 c 0,62,63
 797 690 797 690 797 730 c 0,64,65
 797 772 797 772 831 807 c 0,66,67
 880 862 880 862 961 862 c 2,68,-1
 1120 862 l 1,69,-1
 1180 862 l 1,70,-1
 1188 862 l 1,71,-1
 1251 862 l 1,72,-1
 1407 862 l 2,73,74
 1465 862 1465 862 1507 836 c 0,75,76
 1548 812 1548 812 1571 767.5 c 128,-1,77
 1594 723 1594 723 1594 671 c 0,78,79
 1594 668 1594 668 1593.5 662 c 128,-1,80
 1593 656 1593 656 1593 653 c 0,81,82
 1580 500 1580 500 1519 380 c 128,-1,83
 1458 260 1458 260 1343 158 c 0,84,85
 1194 27 1194 27 981 -8 c 0,86,87
 916 -18 916 -18 868 -18 c 0,88,89
 635 -18 635 -18 442 119 c 0,90,91
 323 202 323 202 250 311 c 0,92,93
 172 423 172 423 137 557 c 0,94,95
 116 647 116 647 116 738 c 0,0,1
EndSplineSet
EndChar

StartChar: h
Encoding: 104 104 74
Width: 1533
GlyphClass: 2
Flags: W
LayerCount: 2
Fore
SplineSet
156 203 m 2,0,-1
 156 614 l 1,1,-1
 156 741 l 1,2,-1
 156 854 l 1,3,-1
 156 1257 l 1,4,-1
 156 1266 l 2,5,6
 156 1305 156 1305 158 1323 c 0,7,8
 158 1354 158 1354 162 1368 c 0,9,10
 171 1413 171 1413 208.5 1446 c 128,-1,11
 246 1479 246 1479 289 1481 c 0,12,13
 329 1481 329 1481 364.5 1451 c 128,-1,14
 400 1421 400 1421 412 1378 c 0,15,16
 426 1332 426 1332 426 1274 c 0,17,18
 426 1264 426 1264 425.5 1209 c 128,-1,19
 425 1154 425 1154 425 1116 c 0,20,21
 425 1047 425 1047 426 1014 c 0,22,23
 426 947 426 947 459 918 c 1,24,25
 488 885 488 885 555 885 c 0,26,27
 619 883 619 883 634 883 c 128,-1,28
 649 883 649 883 713 885 c 0,29,30
 854 885 854 885 944 883 c 0,31,32
 974 883 974 883 1015.5 894.5 c 128,-1,33
 1057 906 1057 906 1075 924 c 0,34,35
 1112 961 1112 961 1112 1014 c 0,36,37
 1110 1047 1110 1047 1110 1117 c 2,38,-1
 1110 1223 l 1,39,-1
 1110 1313 l 2,40,41
 1110 1407 1110 1407 1161 1448 c 0,42,43
 1197 1480 1197 1480 1244 1480 c 0,44,45
 1290 1480 1290 1480 1327 1450 c 0,46,47
 1380 1403 1380 1403 1380 1266 c 2,48,-1
 1380 891 l 1,49,-1
 1380 195 l 2,50,51
 1380 128 1380 128 1368 84 c 0,52,53
 1337 -6 1337 -6 1249 -6 c 0,54,55
 1201 -6 1201 -6 1167 18 c 128,-1,56
 1133 42 1133 42 1120 86 c 0,57,58
 1110 113 1110 113 1110 166 c 2,59,-1
 1110 168 l 1,60,-1
 1110 334 l 1,61,-1
 1110 457 l 1,62,-1
 1110 479 l 1,63,-1
 1110 508 l 2,64,65
 1110 540 1110 540 1083 567 c 0,66,67
 1043 602 1043 602 999 602 c 2,68,-1
 997 602 l 2,69,70
 952 601 952 601 882 601 c 128,-1,71
 812 601 812 601 768 602 c 0,72,73
 613 602 613 602 535 600 c 0,74,75
 428 600 428 600 426 508 c 0,76,77
 424 428 424 428 424 373 c 0,78,79
 424 319 424 319 426 231 c 2,80,-1
 426 203 l 2,81,82
 426 150 426 150 414 100 c 0,83,84
 411 86 411 86 404 70.5 c 128,-1,85
 397 55 397 55 383.5 37 c 128,-1,86
 370 19 370 19 346 7.5 c 128,-1,87
 322 -4 322 -4 291 -4 c 0,88,89
 256 -4 256 -4 229 11 c 128,-1,90
 202 26 202 26 188 48 c 128,-1,91
 174 70 174 70 167.5 89 c 128,-1,92
 161 108 161 108 160 123 c 0,93,94
 156 173 156 173 156 203 c 2,0,-1
EndSplineSet
EndChar

StartChar: i
Encoding: 105 105 75
Width: 579
GlyphClass: 2
Flags: W
LayerCount: 2
Fore
SplineSet
156 200 m 2,0,-1
 156 478 l 1,1,-1
 156 596 l 1,2,-1
 156 746 l 1,3,-1
 156 852 l 1,4,-1
 156 998 l 1,5,-1
 156 1270 l 1,6,-1
 156 1274 l 2,7,8
 156 1315 156 1315 158 1336 c 0,9,10
 162 1381 162 1381 185 1418 c 0,11,12
 222 1478 222 1478 291 1478 c 0,13,14
 365 1478 365 1478 399 1414 c 0,15,16
 418 1378 418 1378 424 1324 c 1,17,-1
 424 1321 l 2,18,19
 425 1315 425 1315 425 1282 c 2,20,-1
 425 1269 l 1,21,-1
 425 924 l 1,22,-1
 425 206 l 2,23,24
 425 140 425 140 406 90 c 0,25,26
 371 -3 371 -3 285 -3 c 0,27,28
 203 -3 203 -3 172 87 c 0,29,30
 156 133 156 133 156 200 c 2,0,-1
EndSplineSet
EndChar

StartChar: j
Encoding: 106 106 76
Width: 1347
GlyphClass: 2
Flags: W
LayerCount: 2
Fore
SplineSet
127 479 m 0,0,1
 127 511 127 511 135 532 c 0,2,3
 161 614 161 614 233 629 c 0,4,5
 241 631 241 631 256 631 c 0,6,7
 290 631 290 631 317 611.5 c 128,-1,8
 344 592 344 592 359 562 c 128,-1,9
 374 532 374 532 381 514.5 c 128,-1,10
 388 497 388 497 391 483 c 0,11,12
 411 399 411 399 457 350 c 0,13,14
 507 291 507 291 563 270 c 0,15,16
 606 252 606 252 652 252 c 0,17,18
 676 252 676 252 696 256 c 0,19,20
 849 287 849 287 905 440 c 0,21,22
 924 489 924 489 924 575 c 2,23,-1
 924 1022 l 1,24,-1
 924 1276 l 2,25,26
 924 1339 924 1339 934 1372 c 0,27,28
 949 1419 949 1419 984 1449 c 128,-1,29
 1019 1479 1019 1479 1059 1479 c 0,30,31
 1097 1479 1097 1479 1131 1450.5 c 128,-1,32
 1165 1422 1165 1422 1182 1376 c 0,33,34
 1192 1347 1192 1347 1192 1286 c 2,35,-1
 1192 985 l 1,36,-1
 1192 909 l 1,37,-1
 1192 885 l 1,38,-1
 1192 788 l 1,39,-1
 1192 535 l 2,40,41
 1192 448 1192 448 1165 360 c 0,42,43
 1117 199 1117 199 979 92 c 0,44,45
 835 -18 835 -18 657 -18 c 2,46,-1
 647 -18 l 2,47,48
 473 -15 473 -15 332 93 c 128,-1,49
 191 201 191 201 141 369 c 0,50,51
 130 414 130 414 127 479 c 0,0,1
EndSplineSet
EndChar

StartChar: k
Encoding: 107 107 77
Width: 1505
GlyphClass: 2
Flags: W
LayerCount: 2
Fore
SplineSet
156 203 m 2,0,-1
 156 602 l 1,1,-1
 156 735 l 1,2,-1
 156 809 l 1,3,-1
 156 1255 l 1,4,-1
 156 1262 l 1,5,-1
 156 1313 l 2,6,7
 156 1315 156 1315 158 1332.5 c 128,-1,8
 160 1350 160 1350 162 1358 c 0,9,10
 172 1405 172 1405 207 1441 c 128,-1,11
 242 1477 242 1477 289 1477 c 0,12,13
 387 1477 387 1477 418 1378 c 0,14,15
 426 1347 426 1347 426 1270 c 2,16,-1
 426 977 l 1,17,-1
 426 969 l 2,18,19
 426 936 426 936 430 920 c 0,20,21
 440 887 440 887 469 877 c 128,-1,22
 498 867 498 867 526 889 c 0,23,24
 543 903 543 903 553 915 c 0,25,26
 555 916 555 916 558 919.5 c 128,-1,27
 561 923 561 923 563 924 c 0,28,29
 600 960 600 960 675.5 1032.5 c 128,-1,30
 751 1105 751 1105 788 1141 c 0,31,32
 829 1180 829 1180 907 1253 c 128,-1,33
 985 1326 985 1326 1018 1358 c 0,34,35
 1081 1421 1081 1421 1128 1446 c 0,36,37
 1172 1468 1172 1468 1210 1468 c 0,38,39
 1260 1468 1260 1468 1296 1427 c 0,40,41
 1321 1399 1321 1399 1321 1358 c 0,42,43
 1321 1318 1321 1318 1303 1284 c 0,44,45
 1281 1236 1281 1236 1223 1178 c 0,46,47
 1205 1160 1205 1160 1164.5 1120.5 c 128,-1,48
 1124 1081 1124 1081 1104 1061 c 0,49,50
 1059 1018 1059 1018 973 932 c 2,51,-1
 967 926 l 2,52,53
 952 914 952 914 928 885 c 1,54,55
 906 850 906 850 906 820 c 128,-1,56
 906 790 906 790 924 762 c 0,57,58
 936 739 936 739 956 715 c 0,59,60
 957 714 957 714 958.5 712 c 128,-1,61
 960 710 960 710 961 709 c 0,62,63
 984 679 984 679 1049.5 597 c 128,-1,64
 1115 515 1115 515 1149 471 c 0,65,66
 1171 441 1171 441 1217.5 382.5 c 128,-1,67
 1264 324 1264 324 1286 295 c 0,68,69
 1335 238 1335 238 1356 190 c 0,70,71
 1367 162 1367 162 1367 133 c 0,72,73
 1367 73 1367 73 1315 33 c 0,74,75
 1282 6 1282 6 1247 6 c 0,76,77
 1224 6 1224 6 1198 18 c 0,78,79
 1149 42 1149 42 1106 94 c 0,80,81
 1060 150 1060 150 1016 205 c 1,82,-1
 1014 207 l 2,83,84
 1005 220 1005 220 986 243 c 128,-1,85
 967 266 967 266 958 279 c 0,86,87
 859 402 859 402 760 528 c 0,88,89
 704 599 704 599 657 602 c 2,90,-1
 653 602 l 2,91,92
 611 602 611 602 555 543 c 0,93,94
 550 538 550 538 539.5 526.5 c 128,-1,95
 529 515 529 515 524 510 c 0,96,97
 510 498 510 498 483 471 c 0,98,99
 457 441 457 441 441.5 396.5 c 128,-1,100
 426 352 426 352 426 309 c 2,101,-1
 426 295 l 2,102,103
 427 284 427 284 427 260 c 0,104,105
 427 247 427 247 426.5 232 c 128,-1,106
 426 217 426 217 425 198.5 c 128,-1,107
 424 180 424 180 424 170 c 0,108,109
 420 59 420 59 360 23 c 1,110,-1
 360 20 l 1,111,112
 318 0 318 0 289 0 c 0,113,114
 256 0 256 0 215 23 c 1,115,116
 164 59 164 59 158 129 c 0,117,118
 158 140 158 140 157 164.5 c 128,-1,119
 156 189 156 189 156 203 c 2,0,-1
EndSplineSet
EndChar

StartChar: l
Encoding: 108 108 78
Width: 1247
GlyphClass: 2
Flags: W
LayerCount: 2
Fore
SplineSet
156 225 m 2,0,-1
 156 612 l 1,1,-1
 156 737 l 1,2,-1
 156 1251 l 1,3,-1
 156 1266 l 2,4,5
 154 1275 154 1275 154 1284.5 c 128,-1,6
 154 1294 154 1294 156 1303 c 0,7,8
 159 1343 159 1343 170 1376 c 0,9,10
 184 1419 184 1419 218.5 1448 c 128,-1,11
 253 1477 253 1477 291 1477 c 2,12,-1
 293 1477 l 2,13,14
 331 1477 331 1477 366 1447.5 c 128,-1,15
 401 1418 401 1418 416 1374 c 0,16,17
 424 1345 424 1345 424 1286 c 2,18,-1
 424 1278 l 1,19,-1
 424 774 l 1,20,-1
 424 610 l 1,21,-1
 424 563 l 1,22,-1
 424 420 l 1,23,-1
 424 410 l 2,24,25
 424 383 424 383 426 371 c 0,26,27
 432 327 432 327 463 298 c 128,-1,28
 494 269 494 269 537 266 c 0,29,30
 549 265 549 265 571 265 c 2,31,-1
 641 266 l 1,32,-1
 682 266 l 1,33,-1
 760 266 l 1,34,-1
 965 266 l 1,35,-1
 967 266 l 2,36,37
 1071 266 1071 266 1114 205 c 1,38,-1
 1114 203 l 1,39,40
 1137 163 1137 163 1137 129 c 0,41,42
 1137 94 1137 94 1114 59 c 1,43,-1
 1114 57 l 1,44,45
 1076 4 1076 4 995 -2 c 0,46,47
 981 -4 981 -4 952 -4 c 2,48,-1
 944 -4 l 1,49,-1
 651 -4 l 1,50,-1
 377 -4 l 1,51,-1
 369 -4 l 2,52,53
 310 -4 310 -4 281 8 c 0,54,55
 192 39 192 39 168 123 c 0,56,57
 156 158 156 158 156 225 c 2,0,-1
EndSplineSet
EndChar

StartChar: m
Encoding: 109 109 79
Width: 1808
GlyphClass: 2
Flags: W
LayerCount: 2
Fore
SplineSet
154 186 m 2,0,-1
 154 1114 l 1,1,-1
 154 1292 l 2,2,3
 154 1384 154 1384 201 1434 c 0,4,5
 244 1479 244 1479 297 1479 c 0,6,7
 339 1479 339 1479 377 1450 c 0,8,9
 386 1443 386 1443 394 1435 c 128,-1,10
 402 1427 402 1427 412 1413 c 128,-1,11
 422 1399 422 1399 426 1393 c 128,-1,12
 430 1387 430 1387 442 1367.5 c 128,-1,13
 454 1348 454 1348 455 1346 c 0,14,15
 465 1326 465 1326 467 1323 c 0,16,17
 496 1276 496 1276 530 1214 c 0,18,19
 532 1210 532 1210 540 1198 c 128,-1,20
 548 1186 548 1186 553 1178 c 0,21,22
 566 1155 566 1155 594 1107 c 128,-1,23
 622 1059 622 1059 635 1036 c 0,24,25
 655 1002 655 1002 691.5 940.5 c 128,-1,26
 728 879 728 879 758.5 827.5 c 128,-1,27
 789 776 789 776 815 731 c 2,28,-1
 817 727 l 2,29,30
 834 697 834 697 850 678 c 0,31,32
 878 650 878 650 905 653 c 0,33,34
 935 653 935 653 961 682 c 0,35,36
 976 703 976 703 989 729 c 0,37,38
 993 733 993 733 995 737 c 0,39,40
 1121 952 1121 952 1204 1094 c 0,41,42
 1226 1132 1226 1132 1271.5 1208.5 c 128,-1,43
 1317 1285 1317 1285 1339 1323 c 0,44,45
 1381 1396 1381 1396 1417 1430 c 0,46,47
 1468 1478 1468 1478 1521 1478 c 0,48,49
 1534 1478 1534 1478 1546 1475 c 0,50,51
 1577 1467 1577 1467 1602 1441.5 c 128,-1,52
 1627 1416 1627 1416 1640 1376 c 0,53,54
 1653 1342 1653 1342 1653 1284 c 2,55,-1
 1653 1280 l 1,56,-1
 1653 893 l 1,57,-1
 1653 625 l 1,58,-1
 1653 227 l 1,59,-1
 1653 215 l 2,60,61
 1653 109 1653 109 1636 76 c 0,62,63
 1592 -2 1592 -2 1520 -2 c 0,64,65
 1485 -2 1485 -2 1448.5 27 c 128,-1,66
 1412 56 1412 56 1397 96 c 0,67,68
 1382 140 1382 140 1382 199 c 0,69,70
 1383 247 1383 247 1383 352 c 0,71,72
 1383 410 1383 410 1382.5 504 c 128,-1,73
 1382 598 1382 598 1382 625 c 2,74,-1
 1382 633 l 1,75,-1
 1382 643 l 2,76,77
 1382 730 1382 730 1350 739 c 0,78,79
 1347 740 1347 740 1340 740 c 0,80,81
 1313 740 1313 740 1292 709 c 0,82,83
 1276 685 1276 685 1262 657 c 0,84,85
 1238 616 1238 616 1189.5 534.5 c 128,-1,86
 1141 453 1141 453 1116 412 c 2,87,-1
 1067 328 l 2,88,89
 989 195 989 195 903 195 c 128,-1,90
 817 195 817 195 733 338 c 0,91,92
 652 479 652 479 545 659 c 0,93,94
 540 669 540 669 539 670 c 0,95,96
 528 690 528 690 514 707 c 0,97,98
 494 733 494 733 469 727 c 0,99,100
 442 724 442 724 428 692 c 0,101,102
 422 672 422 672 422 631 c 2,103,-1
 422 623 l 1,104,-1
 422 195 l 2,105,106
 422 137 422 137 412 106 c 0,107,108
 397 59 397 59 362.5 29.5 c 128,-1,109
 328 0 328 0 289 0 c 2,110,-1
 285 0 l 2,111,112
 248 0 248 0 214.5 29 c 128,-1,113
 181 58 181 58 166 104 c 0,114,115
 154 142 154 142 154 186 c 2,0,-1
EndSplineSet
EndChar

StartChar: n
Encoding: 110 110 80
Width: 1574
GlyphClass: 2
Flags: W
LayerCount: 2
Fore
SplineSet
156 199 m 2,0,-1
 156 213 l 1,1,-1
 156 606 l 1,2,-1
 156 737 l 1,3,-1
 156 866 l 1,4,-1
 156 1262 l 2,5,6
 156 1285 156 1285 160 1343 c 0,7,8
 163 1393 163 1393 197 1430 c 0,9,10
 244 1480 244 1480 289 1480 c 0,11,12
 321 1480 321 1480 362 1454 c 0,13,14
 404 1428 404 1428 469 1350 c 2,15,-1
 633 1145 l 2,16,17
 696 1066 696 1066 822.5 908.5 c 128,-1,18
 949 751 949 751 1012 672 c 0,19,20
 1014 670 1014 670 1017 665.5 c 128,-1,21
 1020 661 1020 661 1022 659 c 0,22,23
 1045 631 1045 631 1055 623 c 0,24,25
 1074 601 1074 601 1100 604 c 0,26,27
 1122 607 1122 607 1139 637 c 0,28,29
 1151 662 1151 662 1151 715 c 2,30,-1
 1151 838 l 1,31,-1
 1151 991 l 1,32,-1
 1151 1145 l 1,33,-1
 1151 1307 l 2,34,35
 1151 1388 1151 1388 1206 1440 c 0,36,37
 1243 1475 1243 1475 1289 1475 c 0,38,39
 1332 1475 1332 1475 1366 1444 c 0,40,41
 1389 1425 1389 1425 1405 1378.5 c 128,-1,42
 1421 1332 1421 1332 1421 1266 c 2,43,-1
 1421 209 l 2,44,45
 1421 156 1421 156 1409 113 c 0,46,47
 1401 78 1401 78 1378 49 c 0,48,49
 1331 -4 1331 -4 1282 -4 c 0,50,51
 1246 -4 1246 -4 1202 25 c 0,52,53
 1157 57 1157 57 1102 127 c 0,54,55
 943 324 943 324 807 494 c 0,56,57
 669 665 669 665 608 739 c 0,58,59
 588 767 588 767 575 780 c 0,60,61
 567 790 567 790 550.5 812 c 128,-1,62
 534 834 534 834 526 844 c 0,63,64
 507 869 507 869 480 869 c 0,65,66
 475 869 475 869 469 868 c 0,67,68
 433 859 433 859 424 815 c 0,69,70
 420 788 420 788 420 735 c 2,71,-1
 420 473 l 1,72,-1
 420 219 l 1,73,74
 414 128 414 128 414 127 c 0,75,76
 407 75 407 75 370 36.5 c 128,-1,77
 333 -2 333 -2 291 -4 c 2,78,-1
 288 -4 l 2,79,80
 244 -4 244 -4 206 36 c 128,-1,81
 168 76 168 76 160 129 c 0,82,83
 156 158 156 158 156 199 c 2,0,-1
EndSplineSet
EndChar

StartChar: o
Encoding: 111 111 81
Width: 1734
GlyphClass: 2
Flags: W
LayerCount: 2
Fore
SplineSet
111 735 m 0,0,1
 111 884 111 884 170 1025.5 c 128,-1,2
 229 1167 229 1167 336 1274 c 0,3,4
 440 1378 440 1378 571 1436 c 0,5,6
 713 1495 713 1495 870 1495 c 0,7,8
 1019 1495 1019 1495 1161 1438 c 1,9,10
 1302 1377 1302 1377 1401 1278 c 0,11,12
 1510 1171 1510 1171 1568 1031 c 128,-1,13
 1626 891 1626 891 1626 737 c 0,14,15
 1623 569 1623 569 1563 432 c 0,16,17
 1504 299 1504 299 1399 197 c 0,18,19
 1290 91 1290 91 1151 35 c 0,20,21
 1026 -16 1026 -16 887 -16 c 2,22,-1
 870 -16 l 2,23,24
 866 -16 866 -16 857 -16.5 c 128,-1,25
 848 -17 848 -17 844 -17 c 0,26,27
 713 -17 713 -17 586 37 c 0,28,29
 454 89 454 89 344 195 c 0,30,31
 234 302 234 302 176 436 c 0,32,33
 114 574 114 574 111 735 c 0,0,1
385 731 m 2,34,35
 385 649 385 649 422 553 c 0,36,37
 459 466 459 466 528 397 c 0,38,39
 593 332 593 332 682 293 c 0,40,41
 767 254 767 254 862 254 c 2,42,-1
 868 254 l 2,43,44
 960 254 960 254 1048.5 289.5 c 128,-1,45
 1137 325 1137 325 1204 389 c 0,46,47
 1352 534 1352 534 1352 735 c 2,48,-1
 1352 743 l 2,49,50
 1352 838 1352 838 1315.5 925 c 128,-1,51
 1279 1012 1279 1012 1212 1079 c 0,52,53
 1068 1223 1068 1223 868 1223 c 0,54,55
 759 1220 759 1220 676 1182 c 0,56,57
 592 1147 592 1147 526 1081 c 0,58,59
 460 1012 460 1012 422 922 c 0,60,61
 385 838 385 838 385 758 c 2,62,-1
 385 748 l 1,63,-1
 385 733 l 1,64,-1
 385 731 l 2,34,35
EndSplineSet
EndChar

StartChar: p
Encoding: 112 112 82
Width: 1447
GlyphClass: 2
Flags: W
LayerCount: 2
Fore
SplineSet
156 209 m 2,0,-1
 156 602 l 1,1,-1
 156 729 l 1,2,-1
 156 848 l 1,3,-1
 156 1233 l 2,4,5
 156 1236 156 1236 157 1241 c 128,-1,6
 158 1246 158 1246 158 1249 c 2,7,-1
 158 1278 l 2,8,9
 158 1280 158 1280 157.5 1285 c 128,-1,10
 157 1290 157 1290 157 1293 c 0,11,12
 157 1366 157 1366 203 1415 c 0,13,14
 255 1470 255 1470 336 1470 c 0,15,16
 352 1471 352 1471 382 1472.5 c 128,-1,17
 412 1474 412 1474 428 1475 c 0,18,19
 518 1478 518 1478 609 1478 c 0,20,21
 754 1478 754 1478 862 1460 c 0,22,23
 1055 1424 1055 1424 1186 1278 c 0,24,25
 1247 1212 1247 1212 1284 1116 c 0,26,27
 1319 1028 1319 1028 1319 920 c 0,28,29
 1313 737 1313 737 1198 598 c 0,30,31
 1088 469 1088 469 926 418 c 0,32,33
 824 389 824 389 729 389 c 2,34,-1
 657 389 l 2,35,36
 584 389 584 389 547 387 c 0,37,38
 489 387 489 387 459 350 c 0,39,40
 429 316 429 316 426 256 c 2,41,-1
 426 219 l 1,42,-1
 426 168 l 1,43,44
 418 99 418 99 395 61 c 0,45,46
 355 -2 355 -2 285 -2 c 0,47,48
 224 -2 224 -2 190 49 c 0,49,50
 160 91 160 91 160 135 c 0,51,52
 159 147 159 147 158 172 c 128,-1,53
 157 197 157 197 156 209 c 2,0,-1
426 774 m 2,54,55
 429 722 429 722 459 691 c 128,-1,56
 489 660 489 660 537 657 c 0,57,58
 597 655 597 655 636 655 c 0,59,60
 697 655 697 655 748 659 c 0,61,62
 907 668 907 668 995 784 c 0,63,64
 1047 852 1047 852 1047 928 c 2,65,-1
 1047 935 l 2,66,67
 1047 1004 1047 1004 997 1073 c 0,68,69
 963 1122 963 1122 918 1151 c 0,70,71
 865 1183 865 1183 811 1194 c 0,72,73
 746 1207 746 1207 662 1207 c 0,74,75
 614 1207 614 1207 567 1204 c 2,76,-1
 528 1204 l 2,77,78
 487 1203 487 1203 458 1172 c 128,-1,79
 429 1141 429 1141 426 1096 c 2,80,-1
 426 983 l 1,81,-1
 426 934 l 1,82,-1
 426 928 l 1,83,-1
 426 897 l 1,84,-1
 426 788 l 1,85,-1
 426 786 l 1,86,-1
 426 774 l 2,54,55
EndSplineSet
EndChar

StartChar: q
Encoding: 113 113 83
Width: 1738
GlyphClass: 2
Flags: W
LayerCount: 2
Fore
SplineSet
112 730 m 0,0,1
 112 735 112 735 112.5 745 c 128,-1,2
 113 755 113 755 113 760 c 0,3,4
 128 1064 128 1064 328 1270 c 0,5,6
 415 1359 415 1359 527.5 1414.5 c 128,-1,7
 640 1470 640 1470 762 1485 c 0,8,9
 801 1489 801 1489 848 1489 c 0,10,11
 976 1489 976 1489 1096 1450 c 0,12,13
 1248 1401 1248 1401 1372 1292 c 0,14,15
 1489 1184 1489 1184 1552 1047 c 0,16,17
 1620 899 1620 899 1620 745 c 2,18,-1
 1620 735 l 2,19,20
 1620 406 1620 406 1380 182 c 0,21,22
 1360 162 1360 162 1348 154 c 0,23,24
 1333 139 1333 139 1325 133 c 0,25,26
 1301 111 1301 111 1301 86 c 0,27,28
 1301 80 1301 80 1305 68 c 0,29,30
 1318 26 1318 26 1362 20 c 0,31,32
 1373 18 1373 18 1392 18 c 0,33,34
 1422 18 1422 18 1452 29 c 0,35,36
 1469 38 1469 38 1475 39 c 0,37,38
 1488 44 1488 44 1511 54.5 c 128,-1,39
 1534 65 1534 65 1546 70 c 0,40,41
 1573 80 1573 80 1601 80 c 0,42,43
 1655 80 1655 80 1694 35 c 0,44,45
 1726 0 1726 0 1726 -42 c 0,46,47
 1726 -75 1726 -75 1706 -106 c 0,48,49
 1667 -166 1667 -166 1595 -207 c 0,50,51
 1514 -254 1514 -254 1401 -254 c 0,52,53
 1341 -254 1341 -254 1292 -244 c 0,54,55
 1202 -227 1202 -227 1085 -170 c 0,56,57
 1066 -161 1066 -161 1031.5 -143 c 128,-1,58
 997 -125 997 -125 981 -117 c 0,59,60
 832 -36 832 -36 692 0 c 0,61,62
 405 74 405 74 240 322 c 0,63,64
 112 510 112 510 112 730 c 0,0,1
383 735 m 0,65,66
 383 638 383 638 420 549 c 128,-1,67
 457 460 457 460 526 393 c 0,68,69
 595 325 595 325 682.5 288.5 c 128,-1,70
 770 252 770 252 864 252 c 2,71,-1
 868 252 l 1,72,-1
 883 252 l 2,73,74
 969 252 969 252 1055.5 288.5 c 128,-1,75
 1142 325 1142 325 1210 393 c 0,76,77
 1354 537 1354 537 1354 733 c 2,78,-1
 1354 746 l 2,79,80
 1354 834 1354 834 1319 918 c 0,81,82
 1281 1008 1281 1008 1212 1077 c 0,83,84
 1149 1143 1149 1143 1063 1182 c 0,85,86
 978 1221 978 1221 870 1221 c 2,87,-1
 868 1221 l 2,88,89
 666 1221 666 1221 526 1081 c 0,90,91
 383 938 383 938 383 735 c 0,65,66
EndSplineSet
EndChar

StartChar: r
Encoding: 114 114 84
Width: 1478
GlyphClass: 2
Flags: W
LayerCount: 2
Fore
SplineSet
157 165 m 0,0,1
 157 171 157 171 157.5 183.5 c 128,-1,2
 158 196 158 196 158 201 c 2,3,-1
 158 604 l 1,4,-1
 158 733 l 1,5,-1
 158 852 l 1,6,-1
 158 1245 l 1,7,-1
 158 1253 l 2,8,9
 158 1299 158 1299 160 1319 c 0,10,11
 166 1380 166 1380 205.5 1420.5 c 128,-1,12
 245 1461 245 1461 307 1470 c 1,13,-1
 311 1473 l 2,14,15
 315 1473 315 1473 323.5 1474 c 128,-1,16
 332 1475 332 1475 336 1475 c 0,17,18
 426 1475 426 1475 471 1477 c 2,19,-1
 585 1477 l 2,20,21
 710 1477 710 1477 819 1470 c 0,22,23
 1072 1449 1072 1449 1227 1241 c 0,24,25
 1319 1118 1319 1118 1319 961 c 2,26,-1
 1319 942 l 1,27,28
 1310 783 1310 783 1198 653 c 1,29,-1
 1174 629 l 2,30,31
 1149 604 1149 604 1139 590 c 0,32,33
 1111 551 1111 551 1111 520 c 0,34,35
 1111 490 1111 490 1139 451 c 0,36,37
 1246 311 1246 311 1272 279 c 2,38,-1
 1282 264 l 1,39,40
 1326 209 1326 209 1339 170 c 0,41,42
 1351 142 1351 142 1351 116 c 0,43,44
 1351 75 1351 75 1321 39 c 0,45,46
 1282 -6 1282 -6 1229 -6 c 0,47,48
 1194 -6 1194 -6 1161 14 c 0,49,50
 1120 38 1120 38 1073 94 c 0,51,52
 1011 175 1011 175 987 205 c 0,53,54
 904 313 904 313 889 332 c 0,55,56
 861 367 861 367 831 397 c 0,57,58
 770 455 770 455 692 455 c 2,59,-1
 618 455 l 1,60,-1
 547 455 l 1,61,62
 429 449 429 449 426 332 c 2,63,-1
 426 256 l 1,64,-1
 426 170 l 2,65,66
 425 138 425 138 422 118.5 c 128,-1,67
 419 99 419 99 406.5 73.5 c 128,-1,68
 394 48 394 48 371 29 c 0,69,70
 333 -4 333 -4 285 -4 c 0,71,72
 242 -4 242 -4 213 18 c 0,73,74
 199 27 199 27 182 51 c 0,75,76
 166 76 166 76 160 127 c 0,77,78
 157 147 157 147 157 165 c 0,0,1
426 924 m 2,79,80
 426 865 426 865 428 834 c 0,81,82
 428 790 428 790 459 756 c 1,83,84
 493 725 493 725 537 725 c 0,85,86
 607 723 607 723 657 723 c 0,87,88
 723 723 723 723 756 725 c 0,89,90
 918 734 918 734 1004 848 c 0,91,92
 1044 904 1044 904 1044 966 c 0,93,94
 1044 1033 1044 1033 997 1090 c 0,95,96
 925 1180 925 1180 819 1198 c 0,97,98
 742 1210 742 1210 650 1210 c 0,99,100
 602 1210 602 1210 528 1206 c 0,101,102
 484 1203 484 1203 457 1173 c 128,-1,103
 430 1143 430 1143 428 1096 c 0,104,105
 426 1067 426 1067 426 1006 c 2,106,-1
 426 965 l 1,107,-1
 426 924 l 2,79,80
EndSplineSet
EndChar

StartChar: s
Encoding: 115 115 85
Width: 1372
GlyphClass: 2
Flags: W
LayerCount: 2
Fore
SplineSet
137 1053 m 2,0,-1
 137 1061 l 2,1,2
 137 1209 137 1209 238 1319 c 0,3,4
 357 1455 357 1455 559 1485 c 0,5,6
 568 1486 568 1486 631 1491 c 2,7,-1
 670 1493 l 1,8,-1
 674 1493 l 1,9,-1
 676 1493 l 2,10,11
 869 1490 869 1490 1010 1409 c 0,12,13
 1100 1359 1100 1359 1145 1286 c 0,14,15
 1167 1252 1167 1252 1167 1215 c 0,16,17
 1167 1160 1167 1160 1116 1120 c 0,18,19
 1084 1094 1084 1094 1046 1094 c 0,20,21
 1020 1094 1020 1094 993 1106 c 0,22,23
 967 1116 967 1116 909 1153 c 0,24,25
 807 1222 807 1222 677 1222 c 0,26,27
 637 1222 637 1222 586 1214 c 0,28,29
 486 1199 486 1199 434 1120 c 0,30,31
 417 1094 417 1094 417 1067 c 0,32,33
 417 1039 417 1039 434 1012 c 0,34,35
 471 957 471 957 539 930 c 0,36,37
 607 901 607 901 733 872 c 0,38,39
 872 840 872 840 963 797 c 0,40,41
 1057 756 1057 756 1128 688 c 0,42,43
 1236 586 1236 586 1245 442 c 0,44,45
 1246 434 1246 434 1246 418 c 0,46,47
 1246 291 1246 291 1165 180 c 0,48,49
 1051 27 1051 27 850 -8 c 0,50,51
 772 -18 772 -18 713 -18 c 0,52,53
 485 -18 485 -18 293 109 c 0,54,55
 210 165 210 165 176 221 c 0,56,57
 150 260 150 260 150 298 c 0,58,59
 150 348 150 348 201 391 c 0,60,61
 235 419 235 419 272 419 c 0,62,63
 293 419 293 419 317 410 c 0,64,65
 351 396 351 396 377 379 c 0,66,67
 380 377 380 377 418 352 c 2,68,-1
 451 330 l 2,69,70
 573 252 573 252 715 252 c 0,71,72
 754 252 754 252 795 258 c 0,73,74
 886 273 886 273 938 340 c 0,75,76
 967 378 967 378 967 412 c 0,77,78
 967 445 967 445 938 483 c 0,79,80
 898 532 898 532 836 557 c 0,81,82
 772 586 772 586 643 616 c 0,83,84
 498 650 498 650 412 690 c 0,85,86
 325 730 325 730 258 791 c 0,87,88
 140 900 140 900 137 1053 c 2,0,-1
EndSplineSet
EndChar

StartChar: t
Encoding: 116 116 86
Width: 1402
GlyphClass: 2
Flags: W
LayerCount: 2
Fore
SplineSet
123 1343 m 1,0,1
 123 1397 123 1397 156 1430 c 0,2,3
 197 1471 197 1471 256 1477 c 0,4,5
 276 1479 276 1479 313 1479 c 2,6,-1
 324 1479 l 1,7,-1
 1081 1479 l 2,8,9
 1108 1479 1108 1479 1122 1477 c 2,10,-1
 1139 1477 l 2,11,12
 1172 1477 1172 1477 1206 1460 c 0,13,14
 1280 1418 1280 1418 1280 1350 c 2,15,-1
 1280 1341 l 2,16,17
 1277 1262 1277 1262 1196 1229 c 0,18,19
 1147 1210 1147 1210 1094 1210 c 2,20,-1
 963 1210 l 2,21,22
 910 1210 910 1210 874 1174.5 c 128,-1,23
 838 1139 838 1139 838 1085 c 2,24,-1
 838 1051 l 2,25,26
 838 1046 838 1046 837 1035.5 c 128,-1,27
 836 1025 836 1025 836 1020 c 2,28,-1
 836 795 l 1,29,-1
 836 215 l 2,30,31
 836 154 836 154 834 127 c 0,32,33
 828 61 828 61 782 23 c 0,34,35
 748 -4 748 -4 705 -4 c 0,36,37
 664 -4 664 -4 627 25 c 0,38,39
 584 58 584 58 578 123 c 0,40,41
 571 170 571 170 571 211 c 2,42,-1
 571 526 l 1,43,-1
 571 643 l 1,44,-1
 571 782 l 1,45,-1
 571 1024 l 1,46,-1
 571 1034 l 2,47,48
 571 1071 571 1071 569 1087 c 0,49,50
 566 1151 566 1151 537 1180 c 0,51,52
 503 1210 503 1210 442 1210 c 2,53,-1
 383 1210 l 1,54,-1
 297 1210 l 1,55,56
 206 1214 206 1214 158 1260 c 0,57,58
 127 1291 127 1291 123 1343 c 1,0,1
EndSplineSet
EndChar

StartChar: u
Encoding: 117 117 87
Width: 1550
GlyphClass: 2
Flags: W
LayerCount: 2
Fore
SplineSet
143 795 m 2,0,-1
 143 893 l 1,1,-1
 143 901 l 1,2,-1
 143 907 l 1,3,-1
 143 1006 l 1,4,-1
 143 1284 l 2,5,6
 143 1356 143 1356 158 1391 c 0,7,8
 194 1477 194 1477 276 1477 c 0,9,10
 363 1477 363 1477 399 1389 c 0,11,12
 414 1345 414 1345 414 1253 c 0,13,14
 413 1204 413 1204 413 1103 c 0,15,16
 413 1052 413 1052 413.5 949.5 c 128,-1,17
 414 847 414 847 414 797 c 2,18,-1
 414 643 l 1,19,-1
 414 627 l 1,20,-1
 414 592 l 2,21,22
 413 584 413 584 413 568 c 0,23,24
 413 455 413 455 489 373 c 0,25,26
 569 287 569 287 678 266 c 0,27,28
 730 254 730 254 781 254 c 0,29,30
 900 254 900 254 999 324 c 0,31,32
 1136 417 1136 417 1139 590 c 2,33,-1
 1139 737 l 1,34,-1
 1139 795 l 1,35,-1
 1139 950 l 1,36,-1
 1139 1282 l 1,37,-1
 1139 1296 l 2,38,39
 1139 1364 1139 1364 1149 1391 c 0,40,41
 1165 1435 1165 1435 1193 1456 c 128,-1,42
 1221 1477 1221 1477 1276 1477 c 0,43,44
 1369 1477 1369 1477 1399 1382 c 0,45,46
 1409 1353 1409 1353 1409 1282 c 2,47,-1
 1409 1268 l 1,48,-1
 1409 1106 l 2,49,50
 1407 936 1407 936 1407 851 c 0,51,52
 1407 764 1407 764 1409 600 c 0,53,54
 1409 472 1409 472 1374 377 c 0,55,56
 1332 271 1332 271 1274 205 c 0,57,58
 1157 64 1157 64 971 12 c 0,59,60
 856 -16 856 -16 758 -16 c 0,61,62
 489 -16 489 -16 291 188 c 0,63,64
 145 340 145 340 145 543 c 0,65,66
 143 627 143 627 143 795 c 2,0,-1
EndSplineSet
EndChar

StartChar: v
Encoding: 118 118 88
Width: 1630
GlyphClass: 2
Flags: W
LayerCount: 2
Fore
SplineSet
115 1347 m 0,0,1
 115 1388 115 1388 141 1425.5 c 128,-1,2
 167 1463 167 1463 205 1475 c 0,3,4
 219 1480 219 1480 241 1480 c 0,5,6
 285 1480 285 1480 317 1454 c 0,7,8
 358 1422 358 1422 391 1346 c 0,9,10
 396 1336 396 1336 397 1335 c 0,11,12
 420 1282 420 1282 466.5 1181 c 128,-1,13
 513 1080 513 1080 518 1069 c 0,14,15
 570 957 570 957 571 954 c 0,16,17
 579 937 579 937 594.5 903.5 c 128,-1,18
 610 870 610 870 618 854 c 0,19,20
 722 629 722 629 733 606 c 0,21,22
 733 604 733 604 737 596 c 0,23,24
 746 571 746 571 762 549 c 0,25,26
 785 516 785 516 815 516 c 0,27,28
 847 516 847 516 870 549 c 0,29,30
 886 576 886 576 893 596 c 2,31,-1
 899 608 l 2,32,33
 922 657 922 657 967.5 755.5 c 128,-1,34
 1013 854 1013 854 1036 903 c 0,35,36
 1139 1123 1139 1123 1221 1303 c 0,37,38
 1222 1305 1222 1305 1237 1335 c 128,-1,39
 1252 1365 1252 1365 1262 1382 c 0,40,41
 1286 1425 1286 1425 1321 1450 c 0,42,43
 1352 1477 1352 1477 1405 1477 c 0,44,45
 1440 1477 1440 1477 1468 1462 c 0,46,47
 1520 1428 1520 1428 1520 1361 c 0,48,49
 1520 1322 1520 1322 1501 1270 c 0,50,51
 1496 1254 1496 1254 1488.5 1237 c 128,-1,52
 1481 1220 1481 1220 1472 1200 c 128,-1,53
 1463 1180 1463 1180 1458 1169 c 1,54,-1
 1456 1167 l 1,55,56
 1273 773 1273 773 991 166 c 0,57,58
 991 164 991 164 987 156 c 0,59,60
 955 86 955 86 930 55 c 0,61,62
 873 -14 873 -14 815 -14 c 2,63,-1
 813 -14 l 2,64,65
 751 -14 751 -14 696 59 c 0,66,67
 666 102 666 102 651 137 c 0,68,69
 568 317 568 317 401.5 680 c 128,-1,70
 235 1043 235 1043 154 1219 c 0,71,72
 125 1282 125 1282 117 1325 c 0,73,74
 115 1339 115 1339 115 1347 c 0,0,1
EndSplineSet
EndChar

StartChar: w
Encoding: 119 119 89
Width: 2156
GlyphClass: 2
Flags: W
LayerCount: 2
Fore
SplineSet
127 1331 m 2,0,-1
 127 1337 l 2,1,2
 127 1417 127 1417 207 1462 c 0,3,4
 231 1475 231 1475 256 1475 c 0,5,6
 287 1475 287 1475 313 1458 c 0,7,8
 357 1429 357 1429 387 1356 c 0,9,10
 390 1349 390 1349 424 1249 c 0,11,12
 437 1208 437 1208 512 975 c 0,13,14
 546 864 546 864 584 750 c 0,15,16
 585 748 585 748 586 744.5 c 128,-1,17
 587 741 587 741 588 739 c 0,18,19
 603 694 603 694 606 688 c 0,20,21
 622 657 622 657 653 657 c 0,22,23
 684 654 684 654 700 686 c 0,24,25
 711 704 711 704 723 739 c 2,26,-1
 725 745 l 2,27,28
 741 789 741 789 774.5 886.5 c 128,-1,29
 808 984 808 984 827 1034 c 0,30,31
 831 1045 831 1045 864 1142.5 c 128,-1,32
 897 1240 897 1240 915 1290 c 0,33,34
 925 1320 925 1320 942 1360 c 0,35,36
 961 1406 961 1406 1008 1446 c 0,37,38
 1045 1474 1045 1474 1078 1474 c 1,39,-1
 1149 1446 l 1,40,41
 1204 1403 1204 1403 1231 1327 c 0,42,43
 1240 1302 1240 1302 1262.5 1233.5 c 128,-1,44
 1285 1165 1285 1165 1298 1130 c 2,45,-1
 1348 995 l 2,46,47
 1356 966 1356 966 1382 891 c 0,48,49
 1391 862 1391 862 1412 805 c 128,-1,50
 1433 748 1433 748 1436 739 c 0,51,52
 1436 738 1436 738 1437 736 c 128,-1,53
 1438 734 1438 734 1438 733 c 0,54,55
 1453 693 1453 693 1456 686 c 0,56,57
 1475 657 1475 657 1503 657 c 2,58,-1
 1505 657 l 2,59,60
 1536 657 1536 657 1552 686 c 0,61,62
 1564 711 1564 711 1571 737 c 0,63,64
 1572 739 1572 739 1573 743 c 128,-1,65
 1574 747 1574 747 1575 748 c 0,66,67
 1633 934 1633 934 1677 1065 c 0,68,69
 1746 1282 1746 1282 1747 1284 c 2,70,-1
 1749 1286 l 1,71,72
 1763 1334 1763 1334 1769 1348 c 0,73,74
 1783 1390 1783 1390 1815 1425 c 0,75,76
 1861 1471 1861 1471 1913 1471 c 0,77,78
 1936 1471 1936 1471 1960 1460 c 0,79,80
 1994 1444 1994 1444 2013 1409.5 c 128,-1,81
 2032 1375 2032 1375 2032 1331 c 2,82,-1
 2032 1322 l 2,83,84
 2032 1318 2032 1318 2032 1316 c 2,85,-1
 2032 1313 l 1,86,87
 2026 1271 2026 1271 2009 1225 c 0,88,89
 1834 671 1834 671 1665 147 c 0,90,91
 1640 64 1640 64 1585 18 c 0,92,93
 1550 -10 1550 -10 1511 -10 c 128,-1,94
 1472 -10 1472 -10 1436 20 c 0,95,96
 1382 65 1382 65 1356 147 c 0,97,98
 1348 169 1348 169 1319 251.5 c 128,-1,99
 1290 334 1290 334 1276 377 c 0,100,101
 1253 439 1253 439 1237 487 c 0,102,103
 1233 500 1233 500 1223.5 525 c 128,-1,104
 1214 550 1214 550 1210 563 c 2,105,-1
 1149 741 l 1,106,-1
 1147 748 l 2,107,108
 1136 778 1136 778 1126 795 c 0,109,110
 1110 823 1110 823 1079 823 c 0,111,112
 1047 823 1047 823 1030 793 c 1,113,-1
 1012 745 l 2,114,115
 1008 737 1008 737 1008 731 c 0,116,117
 994 693 994 693 970 623.5 c 128,-1,118
 946 554 946 554 936 526 c 0,119,120
 925 493 925 493 883 372.5 c 128,-1,121
 841 252 841 252 817 186 c 0,122,123
 813 178 813 178 813 170 c 0,124,125
 785 98 785 98 770 76 c 0,126,127
 715 -10 715 -10 647 -10 c 2,128,-1
 645 -10 l 2,129,130
 574 -10 574 -10 522 80 c 0,131,132
 503 114 503 114 492 156 c 0,133,134
 438 323 438 323 321.5 686.5 c 128,-1,135
 205 1050 205 1050 150 1219 c 0,136,137
 127 1295 127 1295 127 1331 c 2,0,-1
EndSplineSet
EndChar

StartChar: x
Encoding: 120 120 90
Width: 1570
GlyphClass: 2
Flags: W
LayerCount: 2
Fore
SplineSet
143 127 m 0,0,1
 143 152 143 152 156 184 c 0,2,3
 174 229 174 229 217 279 c 0,4,5
 313 396 313 396 360 451 c 0,6,7
 368 460 368 460 425 528 c 128,-1,8
 482 596 482 596 510 631 c 0,9,10
 536 661 536 661 555 688 c 0,11,12
 573 715 573 715 573 754 c 2,13,-1
 573 756 l 1,14,-1
 573 758 l 2,15,16
 573 800 573 800 532 848 c 0,17,18
 520 862 520 862 499 888 c 128,-1,19
 478 914 478 914 467 928 c 0,20,21
 448 951 448 951 411.5 995 c 128,-1,22
 375 1039 375 1039 358 1059 c 2,23,-1
 352 1067 l 1,24,25
 292 1138 292 1138 219 1231 c 0,26,27
 177 1286 177 1286 172 1341 c 1,28,-1
 172 1348 l 2,29,30
 172 1419 172 1419 229 1454 c 0,31,32
 259 1472 259 1472 292 1472 c 0,33,34
 323 1472 323 1472 348 1458 c 0,35,36
 378 1442 378 1442 403 1419 c 0,37,38
 434 1388 434 1388 469 1350 c 0,39,40
 587 1207 587 1207 610 1180 c 2,41,-1
 672 1106 l 2,42,43
 674 1102 674 1102 682 1094 c 0,44,45
 694 1076 694 1076 709 1061 c 0,46,47
 752 1018 752 1018 784 1018 c 2,48,-1
 786 1018 l 2,49,50
 821 1018 821 1018 862 1059 c 0,51,52
 877 1074 877 1074 897 1102 c 1,53,-1
 909 1114 l 1,54,-1
 989 1212 l 2,55,56
 1044 1275 1044 1275 1110 1358 c 1,57,58
 1169 1425 1169 1425 1206 1452 c 0,59,60
 1246 1478 1246 1478 1291 1478 c 0,61,62
 1343 1478 1343 1478 1378 1440 c 0,63,64
 1404 1409 1404 1409 1404 1358 c 0,65,66
 1404 1331 1404 1331 1397 1313 c 0,67,68
 1381 1262 1381 1262 1315 1180 c 0,69,70
 1289 1149 1289 1149 1236.5 1086.5 c 128,-1,71
 1184 1024 1184 1024 1159 993 c 0,72,73
 1145 977 1145 977 1114 938.5 c 128,-1,74
 1083 900 1083 900 1065 879 c 0,75,76
 1029 833 1029 833 1022 821 c 0,77,78
 999 786 999 786 999 753 c 0,79,80
 999 719 999 719 1022 684 c 0,81,82
 1042 655 1042 655 1069 625 c 1,83,-1
 1075 616 l 1,84,-1
 1192 475 l 2,85,86
 1215 446 1215 446 1263.5 388.5 c 128,-1,87
 1312 331 1312 331 1335 303 c 0,88,89
 1396 229 1396 229 1415 176 c 0,90,91
 1427 138 1427 138 1427 112 c 0,92,93
 1427 73 1427 73 1405 47 c 0,94,95
 1371 7 1371 7 1323 4 c 0,96,97
 1274 4 1274 4 1229 33 c 0,98,99
 1189 59 1189 59 1126 131 c 2,100,-1
 1104 158 l 2,101,102
 987 301 987 301 885 420 c 0,103,104
 860 453 860 453 836 471 c 0,105,106
 810 489 810 489 786 489 c 0,107,108
 759 489 759 489 735 469 c 0,109,110
 700 438 700 438 682 412 c 0,111,112
 647 371 647 371 573 285 c 0,113,114
 548 256 548 256 501.5 199.5 c 128,-1,115
 455 143 455 143 434 119 c 0,116,117
 386 59 386 59 344 31 c 0,118,119
 297 2 297 2 264 2 c 0,120,121
 230 2 230 2 193 31 c 0,122,123
 143 72 143 72 143 127 c 0,0,1
EndSplineSet
EndChar

StartChar: y
Encoding: 121 121 91
Width: 1558
GlyphClass: 2
Flags: W
LayerCount: 2
Fore
SplineSet
119 1347 m 0,0,1
 119 1375 119 1375 131 1399 c 0,2,3
 158 1455 158 1455 211 1468 c 0,4,5
 223 1471 223 1471 236 1471 c 0,6,7
 276 1471 276 1471 313 1444 c 0,8,9
 357 1413 357 1413 410 1343 c 0,10,11
 524 1192 524 1192 602 1081 c 1,12,-1
 657 1008 l 2,13,14
 659 1005 659 1005 663.5 999.5 c 128,-1,15
 668 994 668 994 670 991 c 0,16,17
 695 956 695 956 700 950 c 0,18,19
 743 895 743 895 778 895 c 2,20,-1
 782 895 l 2,21,22
 824 895 824 895 866 952 c 0,23,24
 871 958 871 958 880.5 970.5 c 128,-1,25
 890 983 890 983 895 989 c 0,26,27
 897 991 897 991 900.5 997.5 c 128,-1,28
 904 1004 904 1004 905 1006 c 0,29,30
 928 1035 928 1035 1032 1180 c 0,31,32
 1144 1337 1144 1337 1153 1350 c 0,33,34
 1190 1404 1190 1404 1243 1446 c 0,35,36
 1281 1475 1281 1475 1324 1475 c 0,37,38
 1361 1475 1361 1475 1395 1452 c 0,39,40
 1443 1419 1443 1419 1443 1351 c 0,41,42
 1443 1327 1443 1327 1438 1305 c 0,43,44
 1424 1266 1424 1266 1378 1200 c 0,45,46
 1278 1065 1278 1065 1194 946 c 0,47,48
 1183 931 1183 931 1117 838 c 128,-1,49
 1051 745 1051 745 1016 698 c 0,50,51
 1014 696 1014 696 1011.5 692.5 c 128,-1,52
 1009 689 1009 689 1008 688 c 2,53,-1
 965 627 l 2,54,55
 918 554 918 554 918 465 c 2,56,-1
 918 240 l 1,57,-1
 918 170 l 2,58,59
 918 89 918 89 868 39 c 0,60,61
 827 -2 827 -2 784 -2 c 2,62,-1
 782 -2 l 2,63,64
 739 -2 739 -2 698 39 c 0,65,66
 652 88 652 88 649 170 c 2,67,-1
 649 184 l 1,68,-1
 649 186 l 1,69,-1
 649 322 l 1,70,-1
 649 348 l 1,71,-1
 649 377 l 2,72,73
 649 384 649 384 648.5 399 c 128,-1,74
 648 414 648 414 648 422 c 0,75,76
 648 436 648 436 649 444 c 128,-1,77
 650 452 650 452 650 467 c 0,78,79
 650 568 650 568 578 662 c 0,80,81
 527 729 527 729 446 840 c 0,82,83
 437 853 437 853 418.5 878 c 128,-1,84
 400 903 400 903 391 915 c 2,85,-1
 356 965 l 1,86,87
 250 1107 250 1107 188 1192 c 0,88,89
 148 1242 148 1242 131 1288 c 0,90,91
 119 1318 119 1318 119 1347 c 0,0,1
EndSplineSet
EndChar

StartChar: z
Encoding: 122 122 92
Width: 1458
GlyphClass: 2
Flags: W
LayerCount: 2
Fore
SplineSet
158 140 m 0,0,1
 158 156 158 156 164 174 c 0,2,3
 182 233 182 233 231 297 c 0,4,5
 335 440 335 440 444 586 c 0,6,7
 472 625 472 625 522 690 c 2,8,-1
 563 745 l 2,9,10
 598 793 598 793 678 901 c 128,-1,11
 758 1009 758 1009 801 1067 c 0,12,13
 802 1069 802 1069 805 1072 c 128,-1,14
 808 1075 808 1075 809 1077 c 0,15,16
 811 1080 811 1080 816 1086.5 c 128,-1,17
 821 1093 821 1093 823 1096 c 0,18,19
 853 1130 853 1130 853 1158 c 0,20,21
 853 1167 853 1167 850 1176 c 0,22,23
 839 1208 839 1208 776 1208 c 2,24,-1
 772 1208 l 1,25,-1
 768 1208 l 1,26,-1
 731 1208 l 1,27,-1
 719 1208 l 1,28,-1
 637 1208 l 1,29,-1
 381 1208 l 2,30,31
 369 1208 369 1208 350 1209.5 c 128,-1,32
 331 1211 331 1211 288 1224.5 c 128,-1,33
 245 1238 245 1238 221 1262 c 0,34,35
 190 1293 190 1293 190 1335 c 0,36,37
 190 1403 190 1403 244 1442 c 0,38,39
 274 1463 274 1463 334 1475 c 0,40,41
 352 1477 352 1477 393 1477 c 2,42,-1
 399 1477 l 1,43,-1
 1090 1477 l 1,44,-1
 1100 1477 l 2,45,46
 1143 1477 1143 1477 1163 1473 c 0,47,48
 1246 1457 1246 1457 1276 1395 c 0,49,50
 1290 1365 1290 1365 1290 1335 c 0,51,52
 1290 1298 1290 1298 1270 1260 c 0,53,54
 1254 1227 1254 1227 1194 1145 c 1,55,-1
 1192 1143 l 1,56,57
 1120 1043 1120 1043 981 856.5 c 128,-1,58
 842 670 842 670 782 588 c 0,59,60
 761 559 761 559 718 501 c 128,-1,61
 675 443 675 443 653 414 c 0,62,63
 634 386 634 386 629 373 c 0,64,65
 620 349 620 349 620 332 c 0,66,67
 620 319 620 319 625 309 c 0,68,69
 646 268 646 268 741 268 c 2,70,-1
 911 268 l 1,71,-1
 1085 268 l 2,72,73
 1116 268 1116 268 1174 264 c 0,74,75
 1248 255 1248 255 1284 211 c 0,76,77
 1306 183 1306 183 1306 136 c 0,78,79
 1306 84 1306 84 1280 53 c 0,80,81
 1246 9 1246 9 1169 6 c 1,82,-1
 1159 4 l 1,83,84
 1113 0 1113 0 1090 0 c 2,85,-1
 825 0 l 1,86,-1
 729 0 l 1,87,-1
 635 0 l 1,88,-1
 539 0 l 1,89,-1
 373 0 l 2,90,91
 343 0 343 0 285 8 c 0,92,93
 216 17 216 17 176 84 c 0,94,95
 158 110 158 110 158 140 c 0,0,1
EndSplineSet
EndChar

StartChar: bar
Encoding: 124 124 93
Width: 643
GlyphClass: 2
Flags: W
LayerCount: 2
Fore
SplineSet
190 -27 m 2,0,-1
 190 1507 l 2,1,2
 190 1560 190 1560 229.5 1597.5 c 128,-1,3
 269 1635 269 1635 324 1635 c 128,-1,4
 379 1635 379 1635 418 1597.5 c 128,-1,5
 457 1560 457 1560 457 1507 c 2,6,-1
 457 -27 l 2,7,8
 457 -80 457 -80 418 -117.5 c 128,-1,9
 379 -155 379 -155 324 -155 c 128,-1,10
 269 -155 269 -155 229.5 -117.5 c 128,-1,11
 190 -80 190 -80 190 -27 c 2,0,-1
EndSplineSet
EndChar

StartChar: uni00AD
Encoding: 173 173 95
Width: 954
GlyphClass: 2
Flags: W
LayerCount: 2
Fore
SplineSet
138 734 m 128,-1,1
 138 789 138 789 177 828 c 128,-1,2
 216 867 216 867 271 867 c 2,3,-1
 687 867 l 2,4,5
 742 867 742 867 781 828 c 128,-1,6
 820 789 820 789 820 734 c 128,-1,7
 820 679 820 679 781 640 c 128,-1,8
 742 601 742 601 687 601 c 2,9,-1
 271 601 l 2,10,11
 216 601 216 601 177 640 c 128,-1,0
 138 679 138 679 138 734 c 128,-1,1
EndSplineSet
EndChar

StartChar: uni2010
Encoding: 8208 8208 109
Width: 954
GlyphClass: 2
Flags: W
LayerCount: 2
Fore
SplineSet
138 734 m 128,-1,1
 138 789 138 789 177 828 c 128,-1,2
 216 867 216 867 271 867 c 2,3,-1
 687 867 l 2,4,5
 742 867 742 867 781 828 c 128,-1,6
 820 789 820 789 820 734 c 128,-1,7
 820 679 820 679 781 640 c 128,-1,8
 742 601 742 601 687 601 c 2,9,-1
 271 601 l 2,10,11
 216 601 216 601 177 640 c 128,-1,0
 138 679 138 679 138 734 c 128,-1,1
EndSplineSet
EndChar

StartChar: uni2011
Encoding: 8209 8209 110
Width: 954
GlyphClass: 2
Flags: W
LayerCount: 2
Fore
SplineSet
138 734 m 128,-1,1
 138 789 138 789 177 828 c 128,-1,2
 216 867 216 867 271 867 c 2,3,-1
 687 867 l 2,4,5
 742 867 742 867 781 828 c 128,-1,6
 820 789 820 789 820 734 c 128,-1,7
 820 679 820 679 781 640 c 128,-1,8
 742 601 742 601 687 601 c 2,9,-1
 271 601 l 2,10,11
 216 601 216 601 177 640 c 128,-1,0
 138 679 138 679 138 734 c 128,-1,1
EndSplineSet
EndChar

StartChar: figuredash
Encoding: 8210 8210 111
Width: 954
GlyphClass: 2
Flags: W
LayerCount: 2
Fore
SplineSet
138 734 m 128,-1,1
 138 789 138 789 177 828 c 128,-1,2
 216 867 216 867 271 867 c 2,3,-1
 687 867 l 2,4,5
 742 867 742 867 781 828 c 128,-1,6
 820 789 820 789 820 734 c 128,-1,7
 820 679 820 679 781 640 c 128,-1,8
 742 601 742 601 687 601 c 2,9,-1
 271 601 l 2,10,11
 216 601 216 601 177 640 c 128,-1,0
 138 679 138 679 138 734 c 128,-1,1
EndSplineSet
EndChar

StartChar: endash
Encoding: 8211 8211 112
Width: 954
GlyphClass: 2
Flags: W
LayerCount: 2
Fore
SplineSet
138 734 m 128,-1,1
 138 789 138 789 177 828 c 128,-1,2
 216 867 216 867 271 867 c 2,3,-1
 687 867 l 2,4,5
 742 867 742 867 781 828 c 128,-1,6
 820 789 820 789 820 734 c 128,-1,7
 820 679 820 679 781 640 c 128,-1,8
 742 601 742 601 687 601 c 2,9,-1
 271 601 l 2,10,11
 216 601 216 601 177 640 c 128,-1,0
 138 679 138 679 138 734 c 128,-1,1
EndSplineSet
EndChar

StartChar: emdash
Encoding: 8212 8212 113
Width: 2320
GlyphClass: 2
Flags: W
LayerCount: 2
Fore
SplineSet
138 734 m 128,-1,1
 138 789 138 789 255 828 c 128,-1,2
 372 867 372 867 537 867 c 2,3,-1
 1787 867 l 2,4,5
 1952 867 1952 867 2069 828 c 128,-1,6
 2186 789 2186 789 2186 734 c 128,-1,7
 2186 679 2186 679 2069 640 c 128,-1,8
 1952 601 1952 601 1787 601 c 2,9,-1
 537 601 l 2,10,11
 372 601 372 601 255 640 c 128,-1,0
 138 679 138 679 138 734 c 128,-1,1
EndSplineSet
EndChar

StartChar: quotedblleft
Encoding: 8220 8220 114
Width: 1013
GlyphClass: 2
Flags: W
LayerCount: 2
Fore
SplineSet
151 1165 m 0,0,1
 151 1166 151 1166 151.5 1169 c 128,-1,2
 152 1172 152 1172 152 1174 c 0,3,4
 164 1347 164 1347 281 1444 c 0,5,6
 325 1479 325 1479 350 1487 c 0,7,8
 372 1496 372 1496 392 1496 c 0,9,10
 443 1496 443 1496 477 1444 c 0,11,12
 496 1408 496 1408 479 1380 c 0,13,14
 460 1347 460 1347 453 1337 c 0,15,16
 424 1292 424 1292 424 1248 c 0,17,18
 424 1218 424 1218 436 1186 c 0,19,20
 450 1149 450 1149 450 1119 c 0,21,22
 450 1059 450 1059 389 1010 c 0,23,24
 353 979 353 979 307 979 c 2,25,-1
 305 979 l 2,26,27
 267 979 267 979 225 1006 c 0,28,29
 151 1062 151 1062 151 1165 c 0,0,1
567 1163 m 2,30,-1
 567 1180 l 1,31,32
 573 1338 573 1338 690 1440 c 1,33,-1
 692 1442 l 2,34,35
 729 1476 729 1476 756 1483 c 0,36,37
 780 1491 780 1491 804 1491 c 0,38,39
 852 1491 852 1491 877 1462 c 0,40,41
 890 1446 890 1446 890 1419 c 0,42,43
 890 1380 890 1380 856 1329 c 0,44,45
 830 1291 830 1291 830 1260 c 0,46,47
 830 1244 830 1244 846 1198 c 0,48,49
 850 1194 850 1194 850 1190 c 0,50,51
 865 1151 865 1151 865 1119 c 0,52,53
 865 1053 865 1053 797 1004 c 0,54,55
 761 979 761 979 721 979 c 128,-1,56
 681 979 681 979 645 1001 c 0,57,58
 567 1057 567 1057 567 1163 c 2,30,-1
EndSplineSet
EndChar

StartChar: quotedblright
Encoding: 8221 8221 115
Width: 1017
GlyphClass: 2
Flags: W
LayerCount: 2
Fore
SplineSet
121 1054 m 0,0,1
 121 1092 121 1092 156 1143 c 0,2,3
 182 1183 182 1183 182 1213 c 0,4,5
 182 1228 182 1228 166 1274 c 0,6,7
 162 1282 162 1282 162 1284 c 0,8,9
 147 1323 147 1323 147 1355 c 0,10,11
 147 1421 147 1421 215 1470 c 0,12,13
 249 1494 249 1494 292 1494 c 0,14,15
 334 1494 334 1494 367 1470 c 0,16,17
 445 1414 445 1414 445 1309 c 0,18,19
 445 1306 445 1306 444.5 1300.5 c 128,-1,20
 444 1295 444 1295 444 1292 c 0,21,22
 438 1136 438 1136 322 1032 c 1,23,-1
 319 1032 l 1,24,25
 282 999 282 999 256 989 c 0,26,27
 228 981 228 981 209 981 c 0,28,29
 160 981 160 981 135 1012 c 0,30,31
 121 1028 121 1028 121 1054 c 0,0,1
532 1094 m 0,32,33
 547 1120 547 1120 559 1137 c 0,34,35
 588 1182 588 1182 588 1226 c 0,36,37
 588 1254 588 1254 575 1288 c 0,38,39
 561 1325 561 1325 561 1354 c 0,40,41
 561 1414 561 1414 623 1464 c 0,42,43
 659 1492 659 1492 705 1495 c 0,44,45
 746 1495 746 1495 786 1466 c 0,46,47
 860 1410 860 1410 860 1309 c 2,48,-1
 860 1300 l 1,49,-1
 860 1298 l 1,50,51
 848 1127 848 1127 731 1030 c 0,52,53
 687 995 687 995 662 987 c 0,54,55
 643 979 643 979 618 979 c 0,56,57
 569 979 569 979 535 1030 c 1,58,59
 516 1067 516 1067 532 1094 c 0,32,33
EndSplineSet
EndChar

StartChar: bullet
Encoding: 8226 8226 116
Width: 622
GlyphClass: 2
Flags: W
LayerCount: 2
Fore
SplineSet
129 731 m 1,0,-1
 129 737 l 2,1,2
 129 804 129 804 193 868 c 1,3,4
 249 917 249 917 299 917 c 0,5,6
 303 917 303 917 313 915 c 0,7,8
 385 915 385 915 438 862 c 0,9,10
 494 809 494 809 494 737 c 0,11,12
 494 662 494 662 440 608 c 0,13,14
 385 553 385 553 313 553 c 2,15,-1
 311 553 l 2,16,17
 241 553 241 553 187.5 606 c 128,-1,18
 134 659 134 659 129 731 c 1,0,-1
EndSplineSet
EndChar

StartChar: ellipsis
Encoding: 8230 8230 117
Width: 1546
GlyphClass: 2
Flags: W
LayerCount: 2
Fore
SplineSet
129 172 m 1,0,-1
 129 178 l 2,1,2
 129 245 129 245 193 309 c 1,3,4
 249 358 249 358 299 358 c 0,5,6
 303 358 303 358 313 356 c 0,7,8
 385 356 385 356 438 303 c 0,9,10
 494 250 494 250 494 178 c 0,11,12
 494 103 494 103 440 49 c 0,13,14
 385 -6 385 -6 313 -6 c 2,15,-1
 311 -6 l 2,16,17
 241 -6 241 -6 187.5 47 c 128,-1,18
 134 100 134 100 129 172 c 1,0,-1
594 172 m 1,19,-1
 594 178 l 2,20,21
 594 246 594 246 657 309 c 1,22,23
 713 358 713 358 764 358 c 0,24,25
 768 358 768 358 778 356 c 0,26,27
 850 356 850 356 903 303 c 0,28,29
 958 251 958 251 958 178 c 0,30,31
 958 102 958 102 905 49 c 0,32,33
 850 -6 850 -6 778 -6 c 2,34,-1
 776 -6 l 2,35,36
 706 -6 706 -6 652.5 47 c 128,-1,37
 599 100 599 100 594 172 c 1,19,-1
1059 172 m 1,38,-1
 1059 178 l 2,39,40
 1059 246 1059 246 1122 309 c 1,41,42
 1178 358 1178 358 1229 358 c 0,43,44
 1233 358 1233 358 1243 356 c 0,45,46
 1315 356 1315 356 1368 303 c 0,47,48
 1423 251 1423 251 1423 178 c 0,49,50
 1423 100 1423 100 1372 49 c 0,51,52
 1317 -6 1317 -6 1243 -6 c 2,53,-1
 1241 -6 l 2,54,55
 1171 -6 1171 -6 1117.5 47 c 128,-1,56
 1064 100 1064 100 1059 172 c 1,38,-1
EndSplineSet
EndChar

StartChar: guilsinglleft
Encoding: 8249 8249 119
Width: 1097
GlyphClass: 2
Flags: W
LayerCount: 2
Fore
SplineSet
154 733 m 0,0,1
 154 775 154 775 177.5 815.5 c 128,-1,2
 201 856 201 856 246 885 c 2,3,-1
 719 1161 l 2,4,5
 764 1183 764 1183 795 1190 c 0,6,7
 810 1195 810 1195 833 1195 c 0,8,9
 884 1195 884 1195 918 1165 c 0,10,11
 960 1129 960 1129 960 1084 c 0,12,13
 960 1042 960 1042 924 995 c 0,14,15
 887 947 887 947 827 913 c 0,16,17
 802 897 802 897 744.5 864.5 c 128,-1,18
 687 832 687 832 657 813 c 0,19,20
 618 790 618 790 602 764 c 0,21,22
 593 749 593 749 593 735 c 0,23,24
 593 696 593 696 657 655 c 0,25,26
 689 634 689 634 751 598 c 128,-1,27
 813 562 813 562 825 555 c 0,28,29
 889 517 889 517 920 475 c 0,30,31
 943 443 943 443 943 401 c 0,32,33
 943 362 943 362 922 332 c 0,34,35
 882 280 882 280 811 280 c 0,36,37
 772 280 772 280 733 301 c 0,38,39
 484 445 484 445 238 592 c 0,40,41
 203 615 203 615 180 647 c 0,42,43
 154 687 154 687 154 733 c 0,0,1
EndSplineSet
EndChar

StartChar: guilsinglright
Encoding: 8250 8250 120
Width: 1097
GlyphClass: 2
Flags: W
LayerCount: 2
Fore
SplineSet
154 1085 m 128,-1,1
 154 1129 154 1129 197 1165 c 0,2,3
 232 1195 232 1195 282 1195 c 0,4,5
 299 1195 299 1195 319 1190 c 0,6,7
 356 1180 356 1180 395 1161 c 0,8,9
 468 1119 468 1119 624 1027.5 c 128,-1,10
 780 936 780 936 868 885 c 1,11,12
 961 821 961 821 961 731 c 0,13,14
 961 647 961 647 877 592 c 1,15,16
 491 364 491 364 381 301 c 1,17,-1
 381 299 l 1,18,19
 340 281 340 281 303 281 c 0,20,21
 231 281 231 281 193 332 c 0,22,23
 171 363 171 363 171 401 c 0,24,25
 171 442 171 442 195 475 c 0,26,27
 231 524 231 524 289 555 c 0,28,29
 293 558 293 558 309 567.5 c 128,-1,30
 325 577 325 577 334 582 c 2,31,-1
 457 655 l 2,32,33
 520 695 520 695 520 732 c 2,34,-1
 520 735 l 2,35,36
 520 773 520 773 457 813 c 0,37,38
 393 852 393 852 356 872 c 0,39,40
 308 902 308 902 287 913 c 0,41,42
 229 947 229 947 190 995 c 0,43,0
 154 1041 154 1041 154 1085 c 128,-1,1
EndSplineSet
EndChar

StartChar: uni25FC
Encoding: 9724 9724 122
Width: 1474
GlyphClass: 2
Flags: W
LayerCount: 2
Fore
SplineSet
0 0 m 1,0,-1
 0 1475 l 1,1,-1
 1475 1475 l 1,2,-1
 1475 0 l 1,3,-1
 0 0 l 1,0,-1
EndSplineSet
EndChar

StartChar: Udieresis
Encoding: 220 220 123
Width: 1550
Flags: W
LayerCount: 2
Fore
SplineSet
324 1713 m 132,-1,1
 324 1756 324 1756 355 1787 c 132,-1,2
 386 1818 386 1818 429 1818 c 132,-1,3
 472 1818 472 1818 503 1787 c 132,-1,4
 534 1756 534 1756 534 1713 c 132,-1,5
 534 1670 534 1670 503 1639 c 132,-1,6
 472 1608 472 1608 429 1608 c 132,-1,7
 386 1608 386 1608 355 1639 c 132,-1,0
 324 1670 324 1670 324 1713 c 132,-1,1
1057 1713 m 128,-1,9
 1057 1756 1057 1756 1088 1787 c 128,-1,10
 1119 1818 1119 1818 1162 1818 c 128,-1,11
 1205 1818 1205 1818 1236 1787 c 128,-1,12
 1267 1756 1267 1756 1267 1713 c 128,-1,13
 1267 1670 1267 1670 1236 1639 c 128,-1,14
 1205 1608 1205 1608 1162 1608 c 128,-1,15
 1119 1608 1119 1608 1088 1639 c 128,-1,8
 1057 1670 1057 1670 1057 1713 c 128,-1,9
143 795 m 2,16,-1
 143 893 l 1,17,-1
 143 901 l 1,18,-1
 143 907 l 1,19,-1
 143 1006 l 1,20,-1
 143 1284 l 2,21,22
 143 1356 143 1356 158 1391 c 0,23,24
 194 1477 194 1477 276 1477 c 0,25,26
 363 1477 363 1477 399 1389 c 0,27,28
 414 1345 414 1345 414 1253 c 0,29,30
 413 1204 413 1204 413 1103 c 0,31,32
 413 1052 413 1052 413.5 949.5 c 128,-1,33
 414 847 414 847 414 797 c 2,34,-1
 414 643 l 1,35,-1
 414 627 l 1,36,-1
 414 592 l 2,37,38
 413 584 413 584 413 568 c 0,39,40
 413 455 413 455 489 373 c 0,41,42
 569 287 569 287 678 266 c 0,43,44
 730 254 730 254 781 254 c 0,45,46
 900 254 900 254 999 324 c 0,47,48
 1136 417 1136 417 1139 590 c 2,49,-1
 1139 737 l 1,50,-1
 1139 795 l 1,51,-1
 1139 950 l 1,52,-1
 1139 1282 l 1,53,-1
 1139 1296 l 2,54,55
 1139 1364 1139 1364 1149 1391 c 0,56,57
 1165 1435 1165 1435 1193 1456 c 128,-1,58
 1221 1477 1221 1477 1276 1477 c 0,59,60
 1369 1477 1369 1477 1399 1382 c 0,61,62
 1409 1353 1409 1353 1409 1282 c 2,63,-1
 1409 1268 l 1,64,-1
 1409 1106 l 2,65,66
 1407 936 1407 936 1407 851 c 0,67,68
 1407 764 1407 764 1409 600 c 0,69,70
 1409 472 1409 472 1374 377 c 0,71,72
 1332 271 1332 271 1274 205 c 0,73,74
 1157 64 1157 64 971 12 c 0,75,76
 856 -16 856 -16 758 -16 c 0,77,78
 489 -16 489 -16 291 188 c 0,79,80
 145 340 145 340 145 543 c 0,81,82
 143 627 143 627 143 795 c 2,16,-1
EndSplineSet
EndChar

StartChar: Odieresis
Encoding: 214 214 124
Width: 1734
Flags: W
LayerCount: 2
Fore
SplineSet
1067 1643 m 132,-1,1
 1067 1686 1067 1686 1098 1717 c 132,-1,2
 1129 1748 1129 1748 1172 1748 c 132,-1,3
 1215 1748 1215 1748 1246 1717 c 132,-1,4
 1277 1686 1277 1686 1277 1643 c 132,-1,5
 1277 1600 1277 1600 1246 1569 c 132,-1,6
 1215 1538 1215 1538 1172 1538 c 132,-1,7
 1129 1538 1129 1538 1098 1569 c 132,-1,0
 1067 1600 1067 1600 1067 1643 c 132,-1,1
457 1643 m 132,-1,9
 457 1686 457 1686 488 1717 c 132,-1,10
 519 1748 519 1748 562 1748 c 132,-1,11
 605 1748 605 1748 636 1717 c 132,-1,12
 667 1686 667 1686 667 1643 c 132,-1,13
 667 1600 667 1600 636 1569 c 132,-1,14
 605 1538 605 1538 562 1538 c 132,-1,15
 519 1538 519 1538 488 1569 c 132,-1,8
 457 1600 457 1600 457 1643 c 132,-1,9
111 735 m 0,16,17
 111 884 111 884 170 1025.5 c 128,-1,18
 229 1167 229 1167 336 1274 c 0,19,20
 440 1378 440 1378 571 1436 c 0,21,22
 713 1495 713 1495 870 1495 c 0,23,24
 1019 1495 1019 1495 1161 1438 c 1,25,26
 1302 1377 1302 1377 1401 1278 c 0,27,28
 1510 1171 1510 1171 1568 1031 c 128,-1,29
 1626 891 1626 891 1626 737 c 0,30,31
 1623 569 1623 569 1563 432 c 0,32,33
 1504 299 1504 299 1399 197 c 0,34,35
 1290 91 1290 91 1151 35 c 0,36,37
 1026 -16 1026 -16 887 -16 c 2,38,-1
 870 -16 l 2,39,40
 866 -16 866 -16 857 -16.5 c 128,-1,41
 848 -17 848 -17 844 -17 c 0,42,43
 713 -17 713 -17 586 37 c 0,44,45
 454 89 454 89 344 195 c 0,46,47
 234 302 234 302 176 436 c 0,48,49
 114 574 114 574 111 735 c 0,16,17
385 731 m 2,50,51
 385 649 385 649 422 553 c 0,52,53
 459 466 459 466 528 397 c 0,54,55
 593 332 593 332 682 293 c 0,56,57
 767 254 767 254 862 254 c 2,58,-1
 868 254 l 2,59,60
 960 254 960 254 1048.5 289.5 c 128,-1,61
 1137 325 1137 325 1204 389 c 0,62,63
 1352 534 1352 534 1352 735 c 2,64,-1
 1352 743 l 2,65,66
 1352 838 1352 838 1315.5 925 c 128,-1,67
 1279 1012 1279 1012 1212 1079 c 0,68,69
 1068 1223 1068 1223 868 1223 c 0,70,71
 759 1220 759 1220 676 1182 c 0,72,73
 592 1147 592 1147 526 1081 c 0,74,75
 460 1012 460 1012 422 922 c 0,76,77
 385 838 385 838 385 758 c 2,78,-1
 385 748 l 1,79,-1
 385 733 l 1,80,-1
 385 731 l 2,50,51
EndSplineSet
EndChar

StartChar: odieresis
Encoding: 246 246 125
Width: 1734
Flags: W
LayerCount: 2
Fore
SplineSet
1057 1643 m 132,-1,1
 1057 1686 1057 1686 1088 1717 c 132,-1,2
 1119 1748 1119 1748 1162 1748 c 132,-1,3
 1205 1748 1205 1748 1236 1717 c 132,-1,4
 1267 1686 1267 1686 1267 1643 c 132,-1,5
 1267 1600 1267 1600 1236 1569 c 132,-1,6
 1205 1538 1205 1538 1162 1538 c 132,-1,7
 1119 1538 1119 1538 1088 1569 c 132,-1,0
 1057 1600 1057 1600 1057 1643 c 132,-1,1
447 1643 m 132,-1,9
 447 1686 447 1686 478 1717 c 132,-1,10
 509 1748 509 1748 552 1748 c 132,-1,11
 595 1748 595 1748 626 1717 c 132,-1,12
 657 1686 657 1686 657 1643 c 132,-1,13
 657 1600 657 1600 626 1569 c 132,-1,14
 595 1538 595 1538 552 1538 c 132,-1,15
 509 1538 509 1538 478 1569 c 132,-1,8
 447 1600 447 1600 447 1643 c 132,-1,9
111 735 m 0,16,17
 111 884 111 884 170 1025.5 c 128,-1,18
 229 1167 229 1167 336 1274 c 0,19,20
 440 1378 440 1378 571 1436 c 0,21,22
 713 1495 713 1495 870 1495 c 0,23,24
 1019 1495 1019 1495 1161 1438 c 1,25,26
 1302 1377 1302 1377 1401 1278 c 0,27,28
 1510 1171 1510 1171 1568 1031 c 128,-1,29
 1626 891 1626 891 1626 737 c 0,30,31
 1623 569 1623 569 1563 432 c 0,32,33
 1504 299 1504 299 1399 197 c 0,34,35
 1290 91 1290 91 1151 35 c 0,36,37
 1026 -16 1026 -16 887 -16 c 2,38,-1
 870 -16 l 2,39,40
 866 -16 866 -16 857 -16.5 c 128,-1,41
 848 -17 848 -17 844 -17 c 0,42,43
 713 -17 713 -17 586 37 c 0,44,45
 454 89 454 89 344 195 c 0,46,47
 234 302 234 302 176 436 c 0,48,49
 114 574 114 574 111 735 c 0,16,17
385 731 m 2,50,51
 385 649 385 649 422 553 c 0,52,53
 459 466 459 466 528 397 c 0,54,55
 593 332 593 332 682 293 c 0,56,57
 767 254 767 254 862 254 c 2,58,-1
 868 254 l 2,59,60
 960 254 960 254 1048.5 289.5 c 128,-1,61
 1137 325 1137 325 1204 389 c 0,62,63
 1352 534 1352 534 1352 735 c 2,64,-1
 1352 743 l 2,65,66
 1352 838 1352 838 1315.5 925 c 128,-1,67
 1279 1012 1279 1012 1212 1079 c 0,68,69
 1068 1223 1068 1223 868 1223 c 0,70,71
 759 1220 759 1220 676 1182 c 0,72,73
 592 1147 592 1147 526 1081 c 0,74,75
 460 1012 460 1012 422 922 c 0,76,77
 385 838 385 838 385 758 c 2,78,-1
 385 748 l 1,79,-1
 385 733 l 1,80,-1
 385 731 l 2,50,51
EndSplineSet
EndChar

StartChar: udieresis
Encoding: 252 252 126
Width: 1550
Flags: W
LayerCount: 2
Fore
SplineSet
324 1713 m 132,-1,1
 324 1756 324 1756 355 1787 c 132,-1,2
 386 1818 386 1818 429 1818 c 132,-1,3
 472 1818 472 1818 503 1787 c 132,-1,4
 534 1756 534 1756 534 1713 c 132,-1,5
 534 1670 534 1670 503 1639 c 132,-1,6
 472 1608 472 1608 429 1608 c 132,-1,7
 386 1608 386 1608 355 1639 c 132,-1,0
 324 1670 324 1670 324 1713 c 132,-1,1
1057 1713 m 128,-1,9
 1057 1756 1057 1756 1088 1787 c 128,-1,10
 1119 1818 1119 1818 1162 1818 c 128,-1,11
 1205 1818 1205 1818 1236 1787 c 128,-1,12
 1267 1756 1267 1756 1267 1713 c 128,-1,13
 1267 1670 1267 1670 1236 1639 c 128,-1,14
 1205 1608 1205 1608 1162 1608 c 128,-1,15
 1119 1608 1119 1608 1088 1639 c 128,-1,8
 1057 1670 1057 1670 1057 1713 c 128,-1,9
143 795 m 2,16,-1
 143 893 l 1,17,-1
 143 901 l 1,18,-1
 143 907 l 1,19,-1
 143 1006 l 1,20,-1
 143 1284 l 2,21,22
 143 1356 143 1356 158 1391 c 0,23,24
 194 1477 194 1477 276 1477 c 0,25,26
 363 1477 363 1477 399 1389 c 0,27,28
 414 1345 414 1345 414 1253 c 0,29,30
 413 1204 413 1204 413 1103 c 0,31,32
 413 1052 413 1052 413.5 949.5 c 128,-1,33
 414 847 414 847 414 797 c 2,34,-1
 414 643 l 1,35,-1
 414 627 l 1,36,-1
 414 592 l 2,37,38
 413 584 413 584 413 568 c 0,39,40
 413 455 413 455 489 373 c 0,41,42
 569 287 569 287 678 266 c 0,43,44
 730 254 730 254 781 254 c 0,45,46
 900 254 900 254 999 324 c 0,47,48
 1136 417 1136 417 1139 590 c 2,49,-1
 1139 737 l 1,50,-1
 1139 795 l 1,51,-1
 1139 950 l 1,52,-1
 1139 1282 l 1,53,-1
 1139 1296 l 2,54,55
 1139 1364 1139 1364 1149 1391 c 0,56,57
 1165 1435 1165 1435 1193 1456 c 128,-1,58
 1221 1477 1221 1477 1276 1477 c 0,59,60
 1369 1477 1369 1477 1399 1382 c 0,61,62
 1409 1353 1409 1353 1409 1282 c 2,63,-1
 1409 1268 l 1,64,-1
 1409 1106 l 2,65,66
 1407 936 1407 936 1407 851 c 0,67,68
 1407 764 1407 764 1409 600 c 0,69,70
 1409 472 1409 472 1374 377 c 0,71,72
 1332 271 1332 271 1274 205 c 0,73,74
 1157 64 1157 64 971 12 c 0,75,76
 856 -16 856 -16 758 -16 c 0,77,78
 489 -16 489 -16 291 188 c 0,79,80
 145 340 145 340 145 543 c 0,81,82
 143 627 143 627 143 795 c 2,16,-1
EndSplineSet
EndChar

StartChar: Adieresis
Encoding: 196 196 127
Width: 1646
Flags: W
LayerCount: 2
Fore
SplineSet
1017 1643 m 132,-1,1
 1017 1686 1017 1686 1048 1717 c 132,-1,2
 1079 1748 1079 1748 1122 1748 c 132,-1,3
 1165 1748 1165 1748 1196 1717 c 132,-1,4
 1227 1686 1227 1686 1227 1643 c 132,-1,5
 1227 1600 1227 1600 1196 1569 c 132,-1,6
 1165 1538 1165 1538 1122 1538 c 132,-1,7
 1079 1538 1079 1538 1048 1569 c 132,-1,0
 1017 1600 1017 1600 1017 1643 c 132,-1,1
407 1643 m 128,-1,9
 407 1686 407 1686 438 1717 c 128,-1,10
 469 1748 469 1748 512 1748 c 128,-1,11
 555 1748 555 1748 586 1717 c 128,-1,12
 617 1686 617 1686 617 1643 c 128,-1,13
 617 1600 617 1600 586 1569 c 128,-1,14
 555 1538 555 1538 512 1538 c 128,-1,15
 469 1538 469 1538 438 1569 c 128,-1,8
 407 1600 407 1600 407 1643 c 128,-1,9
125 109 m 0,16,17
 123 117 123 117 123.5 126 c 128,-1,18
 124 135 124 135 125 145 c 0,19,20
 136 196 136 196 154 236 c 2,21,-1
 172 274 l 2,22,23
 188 308 188 308 219 376.5 c 128,-1,24
 250 445 250 445 266 479 c 0,25,26
 560 1100 560 1100 645 1288 c 0,27,28
 649 1298 649 1298 653 1305.5 c 128,-1,29
 657 1313 657 1313 659 1317 c 2,30,-1
 662 1323 l 2,31,32
 673 1347 673 1347 680 1360.5 c 128,-1,33
 687 1374 687 1374 703.5 1398.5 c 128,-1,34
 720 1423 720 1423 736 1437.5 c 128,-1,35
 752 1452 752 1452 777 1463.5 c 128,-1,36
 802 1475 802 1475 829 1475 c 0,37,38
 922 1475 922 1475 993 1323 c 2,39,-1
 1016 1274 l 1,40,41
 1344 565 1344 565 1479 279 c 0,42,43
 1507 217 1507 217 1520 170 c 0,44,45
 1526 150 1526 150 1526 126 c 0,46,47
 1526 67 1526 67 1479 25 c 0,48,49
 1442 -4 1442 -4 1399 -4 c 2,50,-1
 1384 -4 l 1,51,52
 1329 2 1329 2 1300 43 c 2,53,-1
 1296 49 l 1,54,55
 1256 123 1256 123 1225 184 c 0,56,57
 1170 297 1170 297 1047 297 c 0,58,59
 918 294 918 294 788 294 c 0,60,61
 666 294 666 294 606 295 c 2,62,-1
 595 295 l 2,63,64
 540 295 540 295 496 268 c 0,65,66
 449 236 449 236 424 178 c 0,67,68
 417 165 417 165 405 141.5 c 128,-1,69
 393 118 393 118 387 106 c 0,70,71
 359 52 359 52 330 27 c 0,72,73
 292 -4 292 -4 250 -4 c 0,74,75
 200 -4 200 -4 158 43 c 0,76,77
 138 65 138 65 131 86 c 0,78,79
 125 101 125 101 125 109 c 0,16,17
650 640 m 0,80,81
 650 620 650 620 659 604 c 0,82,83
 679 571 679 571 729 565 c 2,84,-1
 823 561 l 2,85,86
 895 561 895 561 932 567 c 0,87,88
 973 573 973 573 993 606 c 0,89,90
 1002 622 1002 622 1002 643 c 0,91,92
 1002 662 1002 662 993 682 c 0,93,94
 982 704 982 704 958 759 c 128,-1,95
 934 814 934 814 920 842 c 0,96,97
 916 851 916 851 895 893 c 0,98,99
 887 914 887 914 879 924 c 0,100,101
 857 952 857 952 827 952 c 2,102,-1
 825 952 l 2,103,104
 797 952 797 952 774 922 c 0,105,106
 769 916 769 916 763 904.5 c 128,-1,107
 757 893 757 893 756 891 c 0,108,109
 755 887 755 887 733 844 c 0,110,111
 669 701 669 701 662 686 c 0,112,113
 650 659 650 659 650 640 c 0,80,81
EndSplineSet
EndChar

StartChar: adieresis
Encoding: 228 228 128
Width: 1646
Flags: W
LayerCount: 2
Fore
SplineSet
1017 1643 m 132,-1,1
 1017 1686 1017 1686 1048 1717 c 132,-1,2
 1079 1748 1079 1748 1122 1748 c 132,-1,3
 1165 1748 1165 1748 1196 1717 c 132,-1,4
 1227 1686 1227 1686 1227 1643 c 132,-1,5
 1227 1600 1227 1600 1196 1569 c 132,-1,6
 1165 1538 1165 1538 1122 1538 c 132,-1,7
 1079 1538 1079 1538 1048 1569 c 132,-1,0
 1017 1600 1017 1600 1017 1643 c 132,-1,1
407 1643 m 132,-1,9
 407 1686 407 1686 438 1717 c 132,-1,10
 469 1748 469 1748 512 1748 c 132,-1,11
 555 1748 555 1748 586 1717 c 132,-1,12
 617 1686 617 1686 617 1643 c 132,-1,13
 617 1600 617 1600 586 1569 c 132,-1,14
 555 1538 555 1538 512 1538 c 132,-1,15
 469 1538 469 1538 438 1569 c 132,-1,8
 407 1600 407 1600 407 1643 c 132,-1,9
125 109 m 0,16,17
 123 117 123 117 123.5 126 c 128,-1,18
 124 135 124 135 125 145 c 0,19,20
 136 196 136 196 154 236 c 2,21,-1
 172 274 l 2,22,23
 188 308 188 308 219 376.5 c 128,-1,24
 250 445 250 445 266 479 c 0,25,26
 560 1100 560 1100 645 1288 c 0,27,28
 649 1298 649 1298 653 1305.5 c 128,-1,29
 657 1313 657 1313 659 1317 c 2,30,-1
 662 1323 l 2,31,32
 673 1347 673 1347 680 1360.5 c 128,-1,33
 687 1374 687 1374 703.5 1398.5 c 128,-1,34
 720 1423 720 1423 736 1437.5 c 128,-1,35
 752 1452 752 1452 777 1463.5 c 128,-1,36
 802 1475 802 1475 829 1475 c 0,37,38
 922 1475 922 1475 993 1323 c 2,39,-1
 1016 1274 l 1,40,41
 1344 565 1344 565 1479 279 c 0,42,43
 1507 217 1507 217 1520 170 c 0,44,45
 1526 150 1526 150 1526 126 c 0,46,47
 1526 67 1526 67 1479 25 c 0,48,49
 1442 -4 1442 -4 1399 -4 c 2,50,-1
 1384 -4 l 1,51,52
 1329 2 1329 2 1300 43 c 2,53,-1
 1296 49 l 1,54,55
 1256 123 1256 123 1225 184 c 0,56,57
 1170 297 1170 297 1047 297 c 0,58,59
 918 294 918 294 788 294 c 0,60,61
 666 294 666 294 606 295 c 2,62,-1
 595 295 l 2,63,64
 540 295 540 295 496 268 c 0,65,66
 449 236 449 236 424 178 c 0,67,68
 417 165 417 165 405 141.5 c 128,-1,69
 393 118 393 118 387 106 c 0,70,71
 359 52 359 52 330 27 c 0,72,73
 292 -4 292 -4 250 -4 c 0,74,75
 200 -4 200 -4 158 43 c 0,76,77
 138 65 138 65 131 86 c 0,78,79
 125 101 125 101 125 109 c 0,16,17
650 640 m 0,80,81
 650 620 650 620 659 604 c 0,82,83
 679 571 679 571 729 565 c 2,84,-1
 823 561 l 2,85,86
 895 561 895 561 932 567 c 0,87,88
 973 573 973 573 993 606 c 0,89,90
 1002 622 1002 622 1002 643 c 0,91,92
 1002 662 1002 662 993 682 c 0,93,94
 982 704 982 704 958 759 c 128,-1,95
 934 814 934 814 920 842 c 0,96,97
 916 851 916 851 895 893 c 0,98,99
 887 914 887 914 879 924 c 0,100,101
 857 952 857 952 827 952 c 2,102,-1
 825 952 l 2,103,104
 797 952 797 952 774 922 c 0,105,106
 769 916 769 916 763 904.5 c 128,-1,107
 757 893 757 893 756 891 c 0,108,109
 755 887 755 887 733 844 c 0,110,111
 669 701 669 701 662 686 c 0,112,113
 650 659 650 659 650 640 c 0,80,81
EndSplineSet
EndChar
